<svg width="24" height="24" viewBox="0 0 24 24" fill="none" xmlns="http://www.w3.org/2000/svg">
<path d="M10.5 6.75C11.082 6.75515 11.657 6.62287 12.1783 6.36393C12.6996 6.10498 13.1524 5.72667 13.5 5.25975C13.8511 5.7228 14.3046 6.09829 14.8251 6.3568C15.3456 6.61531 15.9188 6.74984 16.5 6.74984C17.0811 6.74984 17.6543 6.61531 18.1748 6.3568C18.6953 6.09829 19.1488 5.7228 19.5 5.25975C19.8475 5.72667 20.3003 6.10498 20.8216 6.36393C21.3429 6.62287 21.9179 6.75515 22.5 6.75V5.25C21.9893 5.22012 21.499 5.03901 21.0915 4.7297C20.684 4.42039 20.3778 3.99686 20.2117 3.513C20.1613 3.36402 20.0656 3.23452 19.938 3.14255C19.8104 3.05058 19.6572 3.00075 19.5 3C19.3429 2.99887 19.1896 3.04756 19.062 3.13906C18.9343 3.23056 18.839 3.36017 18.7897 3.50925C18.624 3.99393 18.3177 4.41831 17.9099 4.72831C17.5021 5.03832 17.0113 5.21993 16.5 5.25C15.9893 5.22012 15.499 5.03901 15.0915 4.7297C14.684 4.42039 14.3778 3.99686 14.2117 3.513C14.1613 3.36402 14.0656 3.23452 13.938 3.14255C13.8104 3.05058 13.6572 3.00075 13.5 3C13.3424 2.99661 13.188 3.04442 13.0599 3.13624C12.9319 3.22806 12.8371 3.35895 12.7897 3.50925C12.624 3.99393 12.3177 4.41831 11.9099 4.72831C11.5021 5.03832 11.0113 5.21993 10.5 5.25H9.74995V4.5C9.74995 3.70435 9.43388 2.94129 8.87127 2.37868C8.30866 1.81607 7.5456 1.5 6.74995 1.5C5.9543 1.5 5.19124 1.81607 4.62863 2.37868C4.06602 2.94129 3.74995 3.70435 3.74995 4.5V12.9465C2.85816 13.5629 2.1786 14.4397 1.80426 15.4571C1.42991 16.4745 1.37907 17.5827 1.6587 18.6301C1.93832 19.6775 2.53475 20.6128 3.36636 21.3083C4.19798 22.0037 5.22416 22.4252 6.3045 22.515C7.38483 22.6049 8.46654 22.3587 9.40162 21.8102C10.3367 21.2618 11.0795 20.4378 11.5283 19.451C11.9771 18.4642 12.11 17.3628 11.9089 16.2975C11.7078 15.2323 11.1824 14.2552 10.4047 13.5H10.5C11.082 13.5052 11.657 13.3729 12.1783 13.1139C12.6996 12.855 13.1524 12.4767 13.5 12.0098C13.8511 12.4728 14.3046 12.8483 14.8251 13.1068C15.3456 13.3653 15.9188 13.4998 16.5 13.4998C17.0811 13.4998 17.6543 13.3653 18.1748 13.1068C18.6953 12.8483 19.1488 12.4728 19.5 12.0098C19.8475 12.4767 20.3003 12.855 20.8216 13.1139C21.3429 13.3729 21.9179 13.5052 22.5 13.5V12C21.9893 11.9701 21.499 11.789 21.0915 11.4797C20.684 11.1704 20.3778 10.7469 20.2117 10.263C20.1613 10.114 20.0656 9.98452 19.938 9.89255C19.8104 9.80058 19.6572 9.75075 19.5 9.75C19.3429 9.74887 19.1896 9.79756 19.062 9.88906C18.9343 9.98056 18.839 10.1102 18.7897 10.2592C18.624 10.7439 18.3177 11.1683 17.9099 11.4783C17.5021 11.7883 17.0113 11.9699 16.5 12C15.9893 11.9701 15.499 11.789 15.0915 11.4797C14.684 11.1704 14.3778 10.7469 14.2117 10.263C14.1613 10.114 14.0656 9.98452 13.938 9.89255C13.8104 9.80058 13.6572 9.75075 13.5 9.75C13.3424 9.74661 13.188 9.79442 13.0599 9.88624C12.9319 9.97806 12.8371 10.109 12.7897 10.2592C12.624 10.7439 12.3177 11.1683 11.9099 11.4783C11.5021 11.7883 11.0113 11.9699 10.5 12H9.74995V6.75H10.5ZM5.24995 4.5C5.24995 4.10218 5.40799 3.72064 5.68929 3.43934C5.9706 3.15804 6.35213 3 6.74995 3C7.14778 3 7.52931 3.15804 7.81061 3.43934C8.09192 3.72064 8.24995 4.10218 8.24995 4.5V9H5.24995V4.5ZM6.74995 21C5.9248 21.0002 5.12264 20.7281 4.46793 20.2259C3.81321 19.7237 3.34255 19.0194 3.12895 18.2224C2.91536 17.4253 2.97077 16.5801 3.2866 15.8178C3.60243 15.0555 4.16102 14.4187 4.8757 14.0062L5.24995 13.7888V10.5H8.24995V13.7895L8.6242 14.0062C9.33888 14.4187 9.89747 15.0555 10.2133 15.8178C10.5291 16.5801 10.5845 17.4253 10.371 18.2224C10.1574 19.0194 9.68669 19.7237 9.03198 20.2259C8.37726 20.7281 7.5751 21.0002 6.74995 21V21Z" fill="#26998D"/>
</svg>
