<svg width="25" height="24" viewBox="0 0 25 24" fill="none" xmlns="http://www.w3.org/2000/svg">
<path d="M11.5 18H13.5V15H16.5V13H13.5V10H11.5V13H8.5V15H11.5V18ZM4.5 22C3.95 22 3.47933 21.8043 3.088 21.413C2.696 21.021 2.5 20.55 2.5 20V8C2.5 7.45 2.696 6.97933 3.088 6.588C3.47933 6.196 3.95 6 4.5 6H8.5V4C8.5 3.45 8.696 2.979 9.088 2.587C9.47933 2.19567 9.95 2 10.5 2H14.5C15.05 2 15.521 2.19567 15.913 2.587C16.3043 2.979 16.5 3.45 16.5 4V6H20.5C21.05 6 21.521 6.196 21.913 6.588C22.3043 6.97933 22.5 7.45 22.5 8V20C22.5 20.55 22.3043 21.021 21.913 21.413C21.521 21.8043 21.05 22 20.5 22H4.5ZM4.5 20H20.5V8H4.5V20ZM10.5 6H14.5V4H10.5V6ZM4.5 20V8V20Z" fill="#26998D"/>
</svg>
