<svg width="554" height="372" viewBox="0 0 554 372" fill="none" xmlns="http://www.w3.org/2000/svg">
<path d="M473.61 364.315C473.61 368.234 385.63 371.394 277.215 371.394C168.8 371.394 80.8076 368.234 80.8076 364.315C80.8076 360.396 168.787 357.25 277.215 357.25C385.643 357.25 473.61 360.41 473.61 364.315Z" fill="#26998D"/>
<path opacity="0.6" d="M473.61 364.315C473.61 368.234 385.63 371.394 277.215 371.394C168.8 371.394 80.8076 368.234 80.8076 364.315C80.8076 360.396 168.787 357.25 277.215 357.25C385.643 357.25 473.61 360.41 473.61 364.315Z" fill="white"/>
<path d="M91.445 143.673C91.525 143.673 90.5252 138.701 90.4185 138.341C89.2721 134.795 84.9665 128.61 80.7808 128.61C80.0864 128.632 79.4044 128.799 78.7789 129.101C78.1533 129.403 77.5982 129.833 77.1496 130.364C76.7009 130.894 76.3687 131.513 76.1744 132.18C75.9801 132.847 75.9282 133.547 76.0219 134.235C76.3285 137.168 78.9679 139.674 81.354 141.114C84.1533 142.86 91.445 143.673 91.445 143.673Z" fill="#26998D"/>
<path d="M99.5364 110.188C95.604 111.601 93.6577 118.879 93.7777 122.611C93.7777 122.931 94.5242 127.944 94.6042 127.944H94.6842C94.3642 129.09 94.031 130.316 93.6977 131.676C93.1112 134.182 92.4714 137.008 91.9781 140.154C91.4062 143.524 91.0324 146.925 90.8584 150.338C90.6525 154.164 90.7818 158 91.245 161.802C91.25 161.847 91.25 161.891 91.245 161.936C90.7384 160.829 89.1921 157.777 89.0455 157.55C86.9926 154.431 81.2073 149.552 77.1682 150.712C76.5063 150.916 75.8946 151.257 75.3727 151.712C74.8509 152.168 74.4306 152.728 74.139 153.356C73.8475 153.984 73.6912 154.667 73.6803 155.36C73.6693 156.052 73.804 156.739 74.0756 157.377C75.142 160.136 78.3413 161.842 81.0207 162.615C84.0466 163.469 90.7917 162.456 91.325 162.376C91.9029 166.229 92.7311 170.041 93.8044 173.786C94.4309 175.972 95.1374 178.159 95.8306 180.331C95.364 179.385 94.9241 178.545 94.8575 178.438C92.8046 175.319 87.0193 170.44 82.9802 171.6C82.3183 171.804 81.7065 172.145 81.1847 172.601C80.6629 173.056 80.2426 173.616 79.951 174.245C79.6595 174.873 79.5032 175.556 79.4922 176.248C79.4813 176.941 79.616 177.628 79.8876 178.265C80.954 181.011 84.1533 182.731 86.8327 183.491C89.512 184.25 95.324 183.491 96.8437 183.304C97.1236 184.13 97.4035 184.97 97.6968 185.797C99.0298 189.796 100.469 193.795 101.696 197.714C102.136 199.047 102.509 200.487 102.896 201.873C102.482 201.033 102.109 200.327 102.042 200.233C100.003 197.101 94.2043 192.235 90.1786 193.395C89.5154 193.598 88.9023 193.937 88.379 194.392C87.8557 194.847 87.4339 195.407 87.141 196.036C86.8481 196.664 86.6907 197.347 86.6789 198.041C86.6671 198.734 86.8012 199.422 87.0726 200.06C88.139 202.806 91.3516 204.526 94.031 205.286C96.7104 206.045 101.949 205.379 103.762 205.126C104.122 206.552 104.482 207.992 104.762 209.391C104.922 210.351 105.148 211.258 105.268 212.244L105.668 215.097C105.855 216.923 106.068 218.802 106.201 220.589C106.308 221.842 106.388 223.028 106.468 224.215C106.055 222.881 105.135 220.122 105.135 219.909C103.659 216.976 101.456 214.47 98.7366 212.631C98.5852 212.297 98.4068 211.976 98.2034 211.671C97.8232 211.09 97.3253 210.595 96.7419 210.218C96.1584 209.842 95.5023 209.592 94.8162 209.485C94.1301 209.379 93.4292 209.417 92.7589 209.598C92.0886 209.78 91.4638 210.1 90.925 210.538C87.7658 213.27 88.5523 220.762 90.0053 224.201C90.0852 224.401 91.3383 226.507 92.0315 227.814L90.3385 225.707C89.1655 224.281 87.9657 222.895 86.686 221.402C86.0284 220.709 85.3752 220.002 84.7265 219.282C84.0866 218.562 83.3268 217.883 82.6203 217.163C80.9407 215.55 79.1678 213.99 77.2882 212.471C78.5413 211.444 82.9002 207.765 84.1533 205.259C85.4063 202.753 86.2995 199.247 84.9931 196.594C84.7059 195.963 84.2893 195.4 83.7702 194.94C83.2512 194.48 82.6412 194.135 81.9801 193.926C81.3189 193.718 80.6212 193.65 79.9323 193.729C79.2435 193.807 78.5788 194.03 77.9814 194.381C74.4355 196.594 74.0756 204.126 74.9954 207.712C74.9954 207.938 76.0085 210.471 76.555 211.844C75.4486 210.924 74.3556 210.018 73.2092 209.178C69.9033 206.632 66.544 204.152 63.0782 201.66L59.9722 199.354C60.4121 198.994 65.6909 194.728 67.1039 191.915C68.357 189.423 69.2501 185.903 67.9437 183.264C67.6581 182.63 67.2419 182.063 66.7223 181.601C66.2028 181.139 65.5916 180.791 64.9287 180.581C64.2657 180.371 63.5659 180.303 62.875 180.382C62.184 180.461 61.5174 180.684 60.9187 181.038C57.3862 183.264 57.0263 190.782 57.946 194.368C58.0127 194.635 59.3857 198.261 59.7856 199.167C57.5061 197.474 55.2533 195.768 53.1205 193.995C50.2033 191.606 47.4427 189.033 44.8558 186.29C45.0557 186.13 50.5878 181.691 52.0274 178.825C53.2805 176.332 54.1736 172.813 52.8672 170.16C52.5786 169.532 52.1615 168.972 51.6429 168.515C51.1243 168.058 50.5156 167.715 49.8562 167.507C49.1968 167.3 48.5013 167.233 47.8145 167.312C47.1277 167.39 46.4649 167.611 45.8689 167.961C42.323 170.187 41.9764 177.719 42.8829 181.291C42.9495 181.531 43.9893 184.304 44.5225 185.597L44.3225 185.73C41.7902 182.899 39.5151 179.847 37.5241 176.612C36.4177 174.853 35.4446 173.093 34.5382 171.373C35.6579 170.654 40.7101 167.374 42.2964 164.868C43.8826 162.362 45.0957 159.123 44.0826 156.35C43.8657 155.699 43.5156 155.1 43.0546 154.591C42.5936 154.083 42.0317 153.676 41.4048 153.396C40.7778 153.116 40.0995 152.97 39.413 152.967C38.7266 152.964 38.047 153.104 37.4175 153.378C33.6584 155.191 32.472 162.709 32.9918 166.335C32.9918 166.535 33.525 168.547 33.925 170C33.525 169.227 33.0985 168.414 32.7386 167.654C31.4055 164.815 30.2725 162.122 29.3394 159.736C28.8195 158.403 28.3663 157.07 28.0063 155.95C28.7262 154.684 31.5922 149.499 31.8588 146.619C32.1254 143.74 31.6988 140.234 29.526 138.234C29.0301 137.747 28.4373 137.37 27.7861 137.127C27.1349 136.883 26.4398 136.78 25.7459 136.822C25.052 136.865 24.3749 137.053 23.7585 137.375C23.142 137.696 22.6 138.143 22.1677 138.688C19.6749 142.034 22.061 149.192 24.2205 152.231C24.4072 152.498 27.793 156.23 27.833 156.23V156.15C28.2063 157.283 28.6062 158.483 29.0861 159.803C29.9792 162.216 31.0056 164.935 32.3253 167.801C33.7101 170.929 35.2768 173.974 37.0176 176.919C38.9587 180.22 41.1891 183.343 43.6827 186.25L43.776 186.343C42.7362 185.703 39.7769 184.01 39.5237 183.904C36.0978 182.424 28.5929 181.598 25.8468 184.744C25.4055 185.28 25.082 185.903 24.8975 186.573C24.713 187.242 24.6716 187.943 24.776 188.63C24.8804 189.316 25.1282 189.973 25.5033 190.558C25.8785 191.142 26.3725 191.641 26.9532 192.022C29.3527 193.728 32.9785 193.355 35.6312 192.555C38.6305 191.609 43.6294 187.036 44.0959 186.677C46.7033 189.574 49.4999 192.294 52.4673 194.821C54.1869 196.301 55.9598 197.741 57.7994 199.167C56.8796 198.647 56.0532 198.181 55.9332 198.127C52.5073 196.648 45.0157 195.821 42.2697 198.967C41.8257 199.502 41.4996 200.124 41.3129 200.793C41.1262 201.463 41.0831 202.164 41.1863 202.851C41.2895 203.538 41.5367 204.196 41.9118 204.781C42.2869 205.366 42.7813 205.865 43.3628 206.245C45.7755 207.952 49.388 207.578 52.0541 206.779C54.7201 205.979 59.1324 202.113 60.2922 201.087L62.3717 202.713C65.7309 205.286 69.0368 207.832 72.3027 210.431C73.4358 211.351 74.5155 212.284 75.6086 213.23C74.7955 212.764 74.1023 212.377 73.9823 212.324C70.5564 210.858 63.0649 210.018 60.3188 213.177C59.8748 213.712 59.5488 214.334 59.3621 215.003C59.1754 215.673 59.1322 216.374 59.2354 217.061C59.3386 217.748 59.5859 218.406 59.9609 218.991C60.336 219.576 60.8305 220.075 61.4119 220.455C63.8247 222.162 67.4372 221.788 70.1032 220.975C72.7693 220.162 76.7683 216.683 78.1014 215.483C79.1811 216.47 80.2742 217.469 81.2873 218.482C81.9538 219.189 82.6203 219.816 83.2868 220.575L85.193 222.748C86.3661 224.161 87.5658 225.614 88.6722 227.027C89.4454 228.014 90.1652 228.96 90.8984 229.907C89.7786 228.987 87.5525 227.24 87.3392 227.094C84.1799 225.108 76.9016 223.161 73.7024 225.854C73.1861 226.318 72.7731 226.885 72.4905 227.519C72.2078 228.153 72.0617 228.839 72.0617 229.533C72.0617 230.227 72.2078 230.914 72.4905 231.547C72.7731 232.181 73.1861 232.749 73.7024 233.212C75.8219 235.265 79.4477 235.479 82.2071 235.052C85.233 234.585 90.7251 231.053 91.4049 230.56C92.6047 232.133 93.7511 233.679 94.8175 235.145C98.5099 240.251 101.389 244.65 103.362 247.742L103.562 248.062L106.122 246.823L105.722 246.209C103.655 243.13 100.656 238.758 96.8037 233.679C95.604 232.066 94.2709 230.386 92.8979 228.653C94.324 227.096 95.6593 225.459 96.897 223.748C99.8296 224.894 105.948 224.934 106.735 224.934C106.868 226.921 106.975 228.84 107.041 230.653C107.308 236.958 107.281 242.21 107.228 245.876C107.228 246.023 107.228 246.156 107.228 246.303L110.041 244.97C110.041 241.317 109.894 236.385 109.534 230.546C109.401 228.547 109.227 226.401 109.041 224.201C109.814 224.015 116.173 222.375 118.572 220.455C120.758 218.722 123.051 215.896 122.971 212.95C122.976 212.256 122.835 211.569 122.557 210.932C122.279 210.296 121.871 209.726 121.358 209.258C120.845 208.79 120.239 208.436 119.58 208.217C118.921 207.999 118.223 207.922 117.532 207.992C113.373 208.525 109.907 215.203 109.227 218.882C109.227 219.096 109.001 221.548 108.921 223.001C108.841 222.108 108.761 221.242 108.668 220.335C108.481 218.509 108.241 216.696 108.001 214.737C107.841 213.804 107.681 212.844 107.535 211.884C107.388 210.924 107.135 209.938 106.935 208.965C106.428 206.685 105.815 204.406 105.135 202.126C106.735 201.966 112.413 201.3 114.839 199.9C117.266 198.5 119.945 196.074 120.318 193.142C120.428 192.457 120.392 191.756 120.213 191.086C120.034 190.416 119.716 189.791 119.28 189.252C118.843 188.712 118.299 188.271 117.681 187.956C117.063 187.641 116.385 187.459 115.693 187.423C111.507 187.316 107.055 193.395 105.828 196.928C105.748 197.141 105.148 199.767 104.855 201.22C104.429 199.887 104.029 198.487 103.522 197.114C102.189 193.115 100.683 189.209 99.2165 185.25L97.8834 181.611C98.4566 181.611 105.215 180.918 107.934 179.345C110.347 178.012 113.04 175.519 113.413 172.587C113.525 171.901 113.49 171.2 113.312 170.529C113.134 169.858 112.816 169.232 112.38 168.692C111.943 168.152 111.397 167.711 110.778 167.397C110.159 167.082 109.481 166.902 108.788 166.868C104.602 166.761 100.15 172.853 98.9232 176.372C98.8299 176.639 97.9767 180.371 97.8035 181.398C96.8437 178.732 95.9106 176.066 95.1374 173.4C94.0241 169.796 93.1337 166.128 92.4714 162.416C92.738 162.416 99.803 161.749 102.589 160.149C105.002 158.75 107.694 156.31 108.068 153.378C108.177 152.692 108.141 151.99 107.961 151.319C107.781 150.648 107.462 150.022 107.025 149.483C106.587 148.943 106.041 148.502 105.421 148.188C104.802 147.874 104.123 147.693 103.429 147.659C99.2564 147.552 94.8041 153.644 93.5778 157.163C93.4978 157.39 92.8446 160.283 92.5647 161.656H92.3247C91.7741 157.901 91.56 154.105 91.6849 150.312C91.6849 148.232 91.8848 146.233 92.0848 144.3C93.4178 144.3 99.4831 144.3 102.149 143.153C104.815 142.007 107.641 139.901 108.334 137.035C108.519 136.363 108.56 135.661 108.455 134.972C108.349 134.284 108.1 133.626 107.722 133.04C107.345 132.455 106.848 131.956 106.264 131.577C105.68 131.197 105.023 130.944 104.335 130.836C100.19 130.276 95.0974 135.835 93.4978 139.194C93.4045 139.381 92.7246 141.34 92.2447 142.78C92.338 141.9 92.4314 141.007 92.5513 140.114C92.9779 136.981 93.5511 134.142 94.0843 131.623C94.4042 130.196 94.7108 128.957 95.0174 127.717C96.3504 127.05 101.576 124.318 103.375 122.092C105.175 119.865 106.748 116.679 106.042 113.813C105.895 113.124 105.602 112.473 105.183 111.906C104.764 111.338 104.228 110.867 103.612 110.524C102.996 110.18 102.314 109.973 101.611 109.915C100.908 109.857 100.2 109.95 99.5364 110.188Z" fill="#26998D"/>
<path d="M23.9815 174.626C27.2474 174.493 33.7792 171.134 33.7926 171.134C33.8059 171.134 30.2734 167.508 30.0201 167.294C27.1008 164.975 20.0891 162.189 16.6099 164.508C16.0429 164.908 15.5663 165.423 15.2112 166.019C14.8561 166.615 14.6303 167.279 14.5486 167.968C14.4669 168.657 14.531 169.355 14.7369 170.018C14.9427 170.68 15.2857 171.292 15.7434 171.813C17.623 174.093 21.2355 174.733 23.9815 174.626Z" fill="#26998D"/>
<g opacity="0.5">
<path d="M91.445 143.673C91.525 143.673 90.5252 138.701 90.4185 138.341C89.2721 134.795 84.9665 128.61 80.7808 128.61C80.0864 128.632 79.4044 128.799 78.7789 129.101C78.1533 129.403 77.5982 129.833 77.1496 130.364C76.7009 130.894 76.3687 131.513 76.1744 132.18C75.9801 132.847 75.9282 133.547 76.0219 134.235C76.3285 137.168 78.9679 139.674 81.354 141.114C84.1533 142.86 91.445 143.673 91.445 143.673Z" fill="white"/>
<path d="M99.5369 110.188C95.6044 111.601 93.6582 118.879 93.7782 122.611C93.7782 122.931 94.5247 127.944 94.6047 127.944H94.6847C94.3647 129.09 94.0315 130.316 93.6982 131.676C93.1117 134.182 92.4718 137.008 91.9786 140.154C91.4067 143.524 91.0329 146.925 90.8589 150.338C90.653 154.164 90.7823 158 91.2455 161.802C91.2505 161.847 91.2505 161.891 91.2455 161.936C90.7389 160.829 89.1926 157.777 89.046 157.55C86.9931 154.431 81.2078 149.552 77.1687 150.712C76.5068 150.916 75.8951 151.257 75.3732 151.712C74.8514 152.168 74.4311 152.728 74.1395 153.356C73.848 153.984 73.6917 154.667 73.6807 155.36C73.6698 156.052 73.8045 156.739 74.0761 157.377C75.1425 160.136 78.3418 161.842 81.0212 162.615C84.0471 163.469 90.7922 162.456 91.3254 162.376C91.9034 166.229 92.7316 170.041 93.8049 173.786C94.4314 175.972 95.1379 178.159 95.8311 180.331C95.3645 179.385 94.9246 178.545 94.858 178.438C92.8051 175.319 87.0198 170.44 82.9807 171.6C82.3187 171.804 81.707 172.145 81.1852 172.601C80.6634 173.056 80.2431 173.616 79.9515 174.245C79.6599 174.873 79.5036 175.556 79.4927 176.248C79.4818 176.941 79.6165 177.628 79.8881 178.265C80.9545 181.011 84.1538 182.731 86.8332 183.491C89.5125 184.25 95.3245 183.491 96.8442 183.304C97.1241 184.13 97.404 184.97 97.6973 185.797C99.0303 189.796 100.47 193.795 101.696 197.714C102.136 199.047 102.51 200.487 102.896 201.873C102.483 201.033 102.11 200.327 102.043 200.233C100.003 197.101 94.2048 192.235 90.179 193.395C89.5159 193.598 88.9028 193.937 88.3794 194.392C87.8561 194.847 87.4344 195.407 87.1415 196.036C86.8486 196.664 86.6911 197.347 86.6794 198.041C86.6676 198.734 86.8017 199.422 87.0731 200.06C88.1395 202.806 91.3521 204.526 94.0315 205.286C96.7109 206.045 101.95 205.379 103.763 205.126C104.122 206.552 104.482 207.992 104.762 209.391C104.922 210.351 105.149 211.258 105.269 212.244L105.669 215.097C105.855 216.923 106.069 218.802 106.202 220.589C106.309 221.842 106.389 223.028 106.469 224.215C106.055 222.881 105.136 220.122 105.136 219.909C103.66 216.976 101.457 214.47 98.7371 212.631C98.5856 212.297 98.4073 211.976 98.2038 211.671C97.8237 211.09 97.3258 210.595 96.7423 210.218C96.1589 209.842 95.5028 209.592 94.8167 209.485C94.1306 209.379 93.4297 209.417 92.7594 209.598C92.0891 209.78 91.4643 210.1 90.9255 210.538C87.7663 213.27 88.5527 220.762 90.0057 224.201C90.0857 224.401 91.3388 226.507 92.0319 227.814L90.339 225.707C89.1659 224.281 87.9662 222.895 86.6865 221.402C86.0289 220.709 85.3757 220.002 84.727 219.282C84.0871 218.562 83.3273 217.883 82.6208 217.163C80.9412 215.55 79.1683 213.99 77.2887 212.471C78.5417 211.444 82.9007 207.765 84.1538 205.259C85.4068 202.753 86.2999 199.247 84.9936 196.594C84.7064 195.963 84.2898 195.4 83.7707 194.94C83.2516 194.48 82.6417 194.135 81.9805 193.926C81.3194 193.718 80.6217 193.65 79.9328 193.729C79.2439 193.807 78.5792 194.03 77.9819 194.381C74.436 196.594 74.0761 204.126 74.9959 207.712C74.9959 207.938 76.009 210.471 76.5555 211.844C75.4491 210.924 74.356 210.018 73.2096 209.178C69.9037 206.632 66.5445 204.152 63.0787 201.66L59.9727 199.354C60.4126 198.994 65.6914 194.728 67.1044 191.915C68.3574 189.423 69.2506 185.903 67.9442 183.264C67.6585 182.63 67.2423 182.063 66.7228 181.601C66.2033 181.139 65.5921 180.791 64.9292 180.581C64.2662 180.371 63.5664 180.303 62.8755 180.382C62.1845 180.461 61.5179 180.684 60.9192 181.038C57.3867 183.264 57.0267 190.782 57.9465 194.368C58.0132 194.635 59.3862 198.261 59.7861 199.167C57.5066 197.474 55.2538 195.768 53.121 193.995C50.2038 191.606 47.4432 189.033 44.8562 186.29C45.0562 186.13 50.5882 181.691 52.0279 178.825C53.2809 176.332 54.1741 172.813 52.8677 170.16C52.5791 169.532 52.162 168.972 51.6434 168.515C51.1248 168.058 50.5161 167.715 49.8567 167.507C49.1973 167.3 48.5017 167.233 47.8149 167.312C47.1282 167.39 46.4654 167.611 45.8693 167.961C42.3235 170.187 41.9769 177.719 42.8834 181.291C42.95 181.531 43.9898 184.304 44.523 185.597L44.323 185.73C41.7907 182.899 39.5156 179.847 37.5246 176.612C36.4182 174.853 35.4451 173.093 34.5386 171.373C35.6584 170.654 40.7105 167.374 42.2968 164.868C43.8831 162.362 45.0962 159.123 44.0831 156.35C43.8662 155.699 43.5161 155.1 43.0551 154.591C42.5941 154.083 42.0322 153.676 41.4053 153.396C40.7783 153.116 40.1 152.97 39.4135 152.967C38.7271 152.964 38.0475 153.104 37.418 153.378C33.6588 155.191 32.4725 162.709 32.9923 166.335C32.9923 166.535 33.5255 168.547 33.9254 170C33.5255 169.227 33.099 168.414 32.7391 167.654C31.406 164.815 30.273 162.122 29.3398 159.736C28.82 158.403 28.3667 157.07 28.0068 155.95C28.7267 154.684 31.5927 149.499 31.8593 146.619C32.1259 143.74 31.6993 140.234 29.5265 138.234C29.0306 137.747 28.4378 137.37 27.7866 137.127C27.1353 136.883 26.4403 136.78 25.7464 136.822C25.0525 136.865 24.3754 137.053 23.759 137.375C23.1425 137.696 22.6005 138.143 22.1682 138.688C19.6754 142.034 22.0615 149.192 24.221 152.231C24.4077 152.498 27.7935 156.23 27.8335 156.23V156.15C28.2068 157.283 28.6067 158.483 29.0866 159.803C29.9797 162.216 31.0061 164.935 32.3258 167.801C33.7106 170.929 35.2773 173.974 37.0181 176.919C38.9592 180.22 41.1896 183.343 43.6832 186.25L43.7765 186.343C42.7367 185.703 39.7774 184.01 39.5241 183.904C36.0983 182.424 28.5934 181.598 25.8473 184.744C25.406 185.28 25.0825 185.903 24.898 186.573C24.7135 187.242 24.6721 187.943 24.7765 188.63C24.8809 189.316 25.1287 189.973 25.5038 190.558C25.879 191.142 26.373 191.641 26.9537 192.022C29.3532 193.728 32.979 193.355 35.6317 192.555C38.631 191.609 43.6299 187.036 44.0964 186.677C46.7038 189.574 49.5004 192.294 52.4678 194.821C54.1874 196.301 55.9603 197.741 57.7999 199.167C56.8801 198.647 56.0536 198.181 55.9337 198.127C52.5078 196.648 45.0162 195.821 42.2702 198.967C41.8262 199.502 41.5001 200.124 41.3134 200.793C41.1267 201.463 41.0836 202.164 41.1868 202.851C41.29 203.538 41.5372 204.196 41.9123 204.781C42.2874 205.366 42.7818 205.865 43.3633 206.245C45.776 207.952 49.3885 207.578 52.0546 206.779C54.7206 205.979 59.1329 202.113 60.2927 201.087L62.3722 202.713C65.7314 205.286 69.0373 207.832 72.3032 210.431C73.4363 211.351 74.516 212.284 75.6091 213.23C74.7959 212.764 74.1028 212.377 73.9828 212.324C70.5569 210.858 63.0653 210.018 60.3193 213.177C59.8753 213.712 59.5493 214.334 59.3626 215.003C59.1759 215.673 59.1327 216.374 59.2359 217.061C59.3391 217.748 59.5863 218.406 59.9614 218.991C60.3365 219.576 60.831 220.075 61.4124 220.455C63.8252 222.162 67.4377 221.788 70.1037 220.975C72.7698 220.162 76.7688 216.683 78.1019 215.483C79.1816 216.47 80.2747 217.469 81.2878 218.482C81.9543 219.189 82.6208 219.816 83.2873 220.575L85.1935 222.748C86.3666 224.161 87.5663 225.614 88.6727 227.027C89.4459 228.014 90.1657 228.96 90.8989 229.907C89.7791 228.987 87.553 227.24 87.3397 227.094C84.1804 225.108 76.9021 223.161 73.7029 225.854C73.1865 226.318 72.7736 226.885 72.491 227.519C72.2083 228.153 72.0622 228.839 72.0622 229.533C72.0622 230.227 72.2083 230.914 72.491 231.547C72.7736 232.181 73.1865 232.749 73.7029 233.212C75.8224 235.265 79.4482 235.479 82.2076 235.052C85.2335 234.585 90.7256 231.053 91.4054 230.56C92.6051 232.133 93.7515 233.679 94.818 235.145C98.5104 240.251 101.39 244.65 103.363 247.742L103.563 248.062L106.122 246.823L105.722 246.209C103.656 243.13 100.657 238.758 96.8042 233.679C95.6044 232.066 94.2714 230.386 92.8984 228.653C94.3245 227.096 95.6597 225.459 96.8975 223.748C99.8301 224.894 105.949 224.934 106.735 224.934C106.868 226.921 106.975 228.84 107.042 230.653C107.308 236.958 107.282 242.21 107.228 245.876C107.228 246.023 107.228 246.156 107.228 246.303L110.041 244.97C110.041 241.317 109.894 236.385 109.535 230.546C109.401 228.547 109.228 226.401 109.041 224.201C109.814 224.015 116.173 222.375 118.572 220.455C120.759 218.722 123.051 215.896 122.971 212.95C122.977 212.256 122.836 211.569 122.558 210.932C122.28 210.296 121.871 209.726 121.358 209.258C120.845 208.79 120.239 208.436 119.58 208.217C118.921 207.999 118.223 207.922 117.533 207.992C113.374 208.525 109.908 215.203 109.228 218.882C109.228 219.096 109.001 221.548 108.921 223.001C108.841 222.108 108.761 221.242 108.668 220.335C108.481 218.509 108.242 216.696 108.002 214.737C107.842 213.804 107.682 212.844 107.535 211.884C107.388 210.924 107.135 209.938 106.935 208.965C106.429 206.685 105.815 204.406 105.136 202.126C106.735 201.966 112.414 201.3 114.84 199.9C117.266 198.5 119.945 196.074 120.319 193.142C120.428 192.457 120.392 191.756 120.213 191.086C120.034 190.416 119.716 189.791 119.28 189.252C118.844 188.712 118.299 188.271 117.681 187.956C117.063 187.641 116.386 187.459 115.693 187.423C111.507 187.316 107.055 193.395 105.829 196.928C105.749 197.141 105.149 199.767 104.856 201.22C104.429 199.887 104.029 198.487 103.523 197.114C102.19 193.115 100.683 189.209 99.2169 185.25L97.8839 181.611C98.4571 181.611 105.216 180.918 107.935 179.345C110.348 178.012 113.04 175.519 113.414 172.587C113.525 171.901 113.491 171.2 113.313 170.529C113.135 169.858 112.817 169.232 112.38 168.692C111.944 168.152 111.398 167.711 110.779 167.397C110.16 167.082 109.481 166.902 108.788 166.868C104.602 166.761 100.15 172.853 98.9237 176.372C98.8304 176.639 97.9772 180.371 97.8039 181.398C96.8442 178.732 95.911 176.066 95.1379 173.4C94.0245 169.796 93.1342 166.128 92.4718 162.416C92.7384 162.416 99.8035 161.749 102.589 160.149C105.002 158.75 107.695 156.31 108.068 153.378C108.178 152.692 108.141 151.99 107.962 151.319C107.782 150.648 107.463 150.022 107.025 149.483C106.588 148.943 106.041 148.502 105.422 148.188C104.802 147.874 104.123 147.693 103.429 147.659C99.2569 147.552 94.8046 153.644 93.5782 157.163C93.4983 157.39 92.8451 160.283 92.5652 161.656H92.3252C91.7746 157.901 91.5605 154.105 91.6854 150.312C91.6854 148.232 91.8853 146.233 92.0853 144.3C93.4183 144.3 99.4835 144.3 102.15 143.153C104.816 142.007 107.642 139.901 108.335 137.035C108.52 136.363 108.561 135.661 108.455 134.972C108.35 134.284 108.1 133.626 107.723 133.04C107.345 132.455 106.848 131.956 106.265 131.577C105.681 131.197 105.024 130.944 104.336 130.836C100.19 130.276 95.0979 135.835 93.4983 139.194C93.405 139.381 92.7251 141.34 92.2452 142.78C92.3385 141.9 92.4318 141.007 92.5518 140.114C92.9784 136.981 93.5516 134.142 94.0848 131.623C94.4047 130.196 94.7113 128.957 95.0179 127.717C96.3509 127.05 101.576 124.318 103.376 122.092C105.176 119.865 106.749 116.679 106.042 113.813C105.895 113.124 105.602 112.473 105.183 111.906C104.764 111.338 104.229 110.867 103.613 110.524C102.997 110.18 102.314 109.973 101.611 109.915C100.908 109.857 100.201 109.95 99.5369 110.188Z" fill="white"/>
<path d="M23.9815 174.626C27.2474 174.493 33.7792 171.134 33.7926 171.134C33.8059 171.134 30.2734 167.508 30.0201 167.294C27.1008 164.975 20.0891 162.189 16.6099 164.508C16.0429 164.908 15.5663 165.423 15.2112 166.019C14.8561 166.615 14.6303 167.279 14.5486 167.968C14.4669 168.657 14.531 169.355 14.7369 170.018C14.9427 170.68 15.2857 171.292 15.7434 171.813C17.623 174.093 21.2355 174.733 23.9815 174.626Z" fill="white"/>
</g>
<path d="M62.1191 256.407C62.1191 256.407 81.9411 208.631 93.0319 210.711C104.123 212.79 74.0096 286.88 74.0096 286.88C74.0096 286.88 108.882 221.095 132.663 221.095C156.444 221.095 123.945 293.798 93.8317 318.033C93.8317 318.033 141.381 266.791 169.134 277.882C196.888 288.973 113.64 340.894 113.64 340.894C113.64 340.894 161.989 325.658 156.444 337.428C150.898 349.199 135.875 351.278 135.875 351.278L190.529 354.051H0.293457L43.0968 349.892C43.0968 349.892 -1.29284 327.737 10.5711 318.726C22.435 309.715 48.6156 329.11 48.6156 329.11C48.6156 329.11 3.43939 279.255 12.1574 260.566C20.8753 241.877 59.7196 294.492 59.7196 294.492C59.7196 294.492 28.007 227.334 34.3922 215.55C40.7774 203.766 62.1191 256.407 62.1191 256.407Z" fill="#26998D"/>
<path opacity="0.4" d="M62.1191 256.407C62.1191 256.407 81.9411 208.631 93.0319 210.711C104.123 212.79 74.0096 286.88 74.0096 286.88C74.0096 286.88 108.882 221.095 132.663 221.095C156.444 221.095 123.945 293.798 93.8317 318.033C93.8317 318.033 141.381 266.791 169.134 277.882C196.888 288.973 113.64 340.894 113.64 340.894C113.64 340.894 161.989 325.658 156.444 337.428C150.898 349.199 135.875 351.278 135.875 351.278L190.529 354.051H0.293457L43.0968 349.892C43.0968 349.892 -1.29284 327.737 10.5711 318.726C22.435 309.715 48.6156 329.11 48.6156 329.11C48.6156 329.11 3.43939 279.255 12.1574 260.566C20.8753 241.877 59.7196 294.492 59.7196 294.492C59.7196 294.492 28.007 227.334 34.3922 215.55C40.7774 203.766 62.1191 256.407 62.1191 256.407Z" fill="white"/>
<path d="M55.787 258.926C73.223 310.448 73.223 346.906 73.223 346.906C73.223 346.906 52.6144 347.706 31.2061 331.856" stroke="#263238" stroke-width="1.29844" stroke-linecap="round" stroke-linejoin="round"/>
<path d="M64.5059 286.667C68.0945 271.264 72.8631 256.161 78.7692 241.49" stroke="#263238" stroke-width="1.29844" stroke-linecap="round" stroke-linejoin="round"/>
<path d="M116.026 256.554L71.6367 322.338C71.6367 322.338 41.5103 297.011 31.2061 282.708" stroke="#263238" stroke-width="1.29844" stroke-linecap="round" stroke-linejoin="round"/>
<path d="M72.4238 338.188C72.4238 338.188 119.186 315.993 138.222 303.316" stroke="#263238" stroke-width="1.29844" stroke-linecap="round" stroke-linejoin="round"/>
<path d="M461.96 143.673C461.88 143.673 462.893 138.701 462.986 138.341C464.132 134.795 468.451 128.61 472.624 128.61C473.318 128.632 474 128.799 474.626 129.101C475.251 129.403 475.806 129.833 476.255 130.364C476.704 130.894 477.036 131.513 477.23 132.18C477.424 132.847 477.476 133.547 477.383 134.235C477.076 137.168 474.437 139.674 472.051 141.114C469.251 142.86 461.96 143.673 461.96 143.673Z" fill="#26998D"/>
<path d="M453.867 110.188C457.8 111.601 459.759 118.879 459.626 122.611C459.626 122.931 458.88 127.944 458.813 127.944H458.733C459.04 129.09 459.373 130.316 459.706 131.676C460.293 134.182 460.932 137.008 461.426 140.154C461.998 143.524 462.371 146.925 462.545 150.338C462.758 154.164 462.629 158 462.159 161.802C462.154 161.847 462.154 161.891 462.159 161.936C462.679 160.829 464.225 157.777 464.358 157.55C466.411 154.431 472.196 149.552 476.236 150.712C476.899 150.914 477.512 151.254 478.035 151.709C478.558 152.164 478.979 152.724 479.271 153.353C479.563 153.982 479.719 154.666 479.728 155.359C479.738 156.052 479.602 156.74 479.328 157.377C478.262 160.136 475.062 161.842 472.383 162.616C469.357 163.469 462.612 162.456 462.079 162.376C461.507 166.23 460.679 170.042 459.599 173.786C458.977 175.972 458.302 178.154 457.573 180.331C458.04 179.385 458.48 178.545 458.546 178.438C460.599 175.319 466.398 170.44 470.424 171.6C471.087 171.802 471.7 172.142 472.223 172.597C472.746 173.053 473.167 173.613 473.459 174.242C473.751 174.871 473.907 175.554 473.916 176.247C473.926 176.941 473.79 177.628 473.516 178.265C472.45 181.011 469.25 182.731 466.571 183.491C463.892 184.25 458.08 183.491 456.56 183.304L455.72 185.797C454.387 189.796 452.934 193.795 451.721 197.714C451.281 199.047 450.895 200.487 450.508 201.873C450.935 201.033 451.295 200.327 451.361 200.233C453.414 197.101 459.2 192.235 463.225 193.395C463.888 193.598 464.502 193.937 465.025 194.392C465.548 194.847 465.97 195.407 466.263 196.036C466.556 196.664 466.713 197.347 466.725 198.041C466.737 198.734 466.603 199.422 466.331 200.06C465.265 202.806 462.052 204.526 459.373 205.286C456.693 206.045 451.455 205.379 449.642 205.126C449.282 206.552 448.935 207.992 448.655 209.391C448.482 210.351 448.255 211.258 448.135 212.244L447.736 215.097C447.549 216.923 447.336 218.802 447.202 220.589C447.096 221.842 447.016 223.028 446.936 224.215C447.362 222.882 448.269 220.122 448.335 219.909C449.816 216.979 452.018 214.474 454.734 212.631C454.885 212.294 455.068 211.972 455.28 211.671C455.658 211.088 456.154 210.592 456.736 210.215C457.318 209.837 457.974 209.587 458.66 209.48C459.345 209.373 460.046 209.412 460.715 209.594C461.385 209.776 462.009 210.098 462.545 210.538C465.718 213.27 464.918 220.762 463.465 224.201C463.385 224.401 462.199 226.507 461.439 227.814C462.012 227.107 462.545 226.481 463.145 225.708C464.305 224.281 465.505 222.895 466.784 221.402L468.744 219.282C469.384 218.563 470.157 217.883 470.863 217.163C472.53 215.55 474.303 213.99 476.129 212.471C474.889 211.444 470.517 207.765 469.264 205.259C468.011 202.753 467.118 199.247 468.424 196.594C468.711 195.961 469.128 195.396 469.648 194.935C470.168 194.474 470.78 194.128 471.442 193.919C472.105 193.71 472.805 193.644 473.495 193.723C474.185 193.803 474.851 194.027 475.449 194.381C478.982 196.594 479.341 204.126 478.422 207.712C478.422 207.938 477.409 210.471 476.862 211.844C477.968 210.924 479.062 210.018 480.208 209.178C483.514 206.632 486.94 204.153 490.339 201.66L493.445 199.354C493.005 198.994 487.726 194.728 486.313 191.915C485.074 189.423 484.167 185.903 485.473 183.264C485.759 182.63 486.175 182.063 486.695 181.601C487.214 181.139 487.826 180.791 488.488 180.581C489.151 180.371 489.851 180.303 490.542 180.382C491.233 180.461 491.9 180.684 492.498 181.038C496.044 183.264 496.391 190.782 495.471 194.368C495.404 194.635 494.031 198.261 493.645 199.167C495.911 197.474 498.164 195.768 500.31 193.995C503.227 191.606 505.988 189.033 508.575 186.29C508.375 186.13 502.843 181.691 501.403 178.825C500.15 176.332 499.257 172.813 500.563 170.16C500.849 169.528 501.265 168.963 501.783 168.502C502.302 168.041 502.912 167.694 503.573 167.485C504.234 167.275 504.932 167.206 505.622 167.284C506.311 167.361 506.977 167.583 507.575 167.934C511.121 170.16 511.481 177.692 510.561 181.265C510.494 181.504 509.454 184.277 508.935 185.57C508.996 185.622 509.063 185.667 509.135 185.703C511.663 182.872 513.934 179.821 515.92 176.586C517.039 174.826 517.999 173.066 518.906 171.347C517.786 170.627 512.734 167.348 511.147 164.842C509.561 162.336 508.361 159.096 509.361 156.324C509.577 155.664 509.929 155.057 510.395 154.542C510.86 154.027 511.429 153.617 512.064 153.336C512.699 153.056 513.386 152.912 514.08 152.915C514.774 152.917 515.46 153.066 516.093 153.351C519.865 155.164 521.038 162.682 520.519 166.308C520.519 166.508 519.985 168.521 519.599 169.974C519.985 169.201 520.412 168.388 520.772 167.628C522.105 164.788 523.238 162.096 524.171 159.71C524.704 158.377 525.144 157.043 525.504 155.924C524.771 154.657 521.918 149.472 521.638 146.593C521.358 143.713 521.812 140.207 523.984 138.208C524.479 137.721 525.071 137.344 525.721 137.101C526.371 136.857 527.065 136.754 527.758 136.797C528.451 136.839 529.127 137.027 529.742 137.349C530.357 137.67 530.898 138.117 531.329 138.661C533.835 142.007 531.449 149.165 529.29 152.205C529.103 152.471 525.704 156.204 525.664 156.204V156.124C525.291 157.257 524.891 158.456 524.411 159.776C523.531 162.189 522.505 164.908 521.185 167.774C519.79 170.9 518.219 173.944 516.48 176.892C514.538 180.194 512.308 183.316 509.814 186.223L509.721 186.317C510.761 185.677 513.72 183.984 513.973 183.877C517.413 182.398 524.904 181.571 527.65 184.717C528.092 185.252 528.417 185.875 528.602 186.544C528.788 187.213 528.83 187.913 528.727 188.6C528.624 189.287 528.378 189.944 528.004 190.529C527.63 191.114 527.137 191.613 526.557 191.995C524.144 193.702 520.532 193.328 517.866 192.529C514.867 191.582 509.868 187.01 509.414 186.65C506.807 189.547 504.011 192.268 501.043 194.795C499.324 196.274 497.537 197.714 495.711 199.14C496.631 198.621 497.457 198.154 497.577 198.101C501.003 196.621 508.495 195.794 511.241 198.94C511.685 199.475 512.011 200.097 512.198 200.767C512.384 201.436 512.427 202.137 512.324 202.824C512.221 203.512 511.974 204.169 511.599 204.754C511.224 205.339 510.729 205.838 510.148 206.219C507.748 207.925 504.122 207.552 501.47 206.752C498.817 205.952 494.378 202.086 493.232 201.06C492.525 201.606 491.899 202.153 491.139 202.686C487.793 205.259 484.474 207.805 481.208 210.404C480.075 211.324 478.995 212.257 477.902 213.204L479.528 212.297C482.954 210.831 490.446 209.991 493.192 213.15C493.636 213.685 493.962 214.307 494.148 214.977C494.335 215.646 494.378 216.347 494.275 217.034C494.172 217.722 493.925 218.379 493.549 218.964C493.174 219.549 492.68 220.048 492.099 220.429C489.686 222.135 486.073 221.762 483.421 220.949C480.768 220.136 476.755 216.656 475.422 215.457C474.343 216.443 473.25 217.443 472.25 218.456C471.57 219.162 470.917 219.789 470.25 220.549L468.331 222.722C467.171 224.135 465.958 225.588 464.852 227.001C464.078 227.987 463.359 228.933 462.639 229.88C463.745 228.96 465.985 227.214 466.185 227.067C469.344 225.081 476.635 223.135 479.821 225.828C480.338 226.291 480.751 226.859 481.033 227.492C481.316 228.126 481.462 228.813 481.462 229.507C481.462 230.201 481.316 230.887 481.033 231.521C480.751 232.155 480.338 232.722 479.821 233.186C477.689 235.239 474.063 235.452 471.317 235.025C468.277 234.559 462.785 231.026 462.106 230.533C460.906 232.106 459.759 233.652 458.693 235.119C455 240.224 452.121 244.623 450.148 247.716C450.148 247.836 450.015 247.929 449.948 248.036L447.389 246.796L447.789 246.183C449.855 243.104 452.868 238.731 456.707 233.652C457.92 232.039 459.239 230.36 460.612 228.627C459.184 227.072 457.848 225.434 456.613 223.721C453.667 224.868 447.562 224.908 446.762 224.908C446.642 226.894 446.536 228.814 446.456 230.626C446.189 236.932 446.216 242.184 446.282 245.85V246.276L443.47 244.943C443.47 241.291 443.616 236.358 443.99 230.52C444.11 228.52 444.283 226.374 444.483 224.175C443.696 223.988 437.338 222.348 434.938 220.429C432.766 218.696 430.473 215.87 430.553 212.924C430.545 212.229 430.685 211.54 430.962 210.903C431.239 210.266 431.648 209.695 432.162 209.226C432.675 208.758 433.282 208.404 433.942 208.186C434.602 207.969 435.3 207.894 435.992 207.965C440.137 208.498 443.616 215.177 444.296 218.856C444.296 219.069 444.51 221.522 444.59 222.975C444.683 222.082 444.75 221.215 444.856 220.309C445.029 218.483 445.269 216.67 445.523 214.71C445.669 213.777 445.829 212.817 445.976 211.857C446.123 210.898 446.376 209.911 446.576 208.938C447.082 206.659 447.695 204.379 448.375 202.1C446.776 201.94 441.11 201.273 438.671 199.874C436.231 198.474 433.565 196.048 433.206 193.115C433.094 192.43 433.128 191.729 433.306 191.058C433.485 190.387 433.802 189.761 434.239 189.221C434.676 188.681 435.221 188.24 435.84 187.925C436.459 187.611 437.138 187.431 437.831 187.396C442.003 187.29 446.456 193.368 447.682 196.901C447.762 197.114 448.362 199.74 448.655 201.193C449.082 199.86 449.482 198.461 449.988 197.088C451.321 193.088 452.828 189.183 454.294 185.224C454.747 184.011 455.174 182.798 455.627 181.584C455.054 181.584 448.295 180.891 445.576 179.318C443.163 177.985 440.471 175.493 440.097 172.56C439.988 171.875 440.024 171.175 440.203 170.504C440.382 169.834 440.7 169.209 441.136 168.67C441.572 168.131 442.117 167.689 442.735 167.374C443.353 167.059 444.03 166.877 444.723 166.841C448.909 166.735 453.361 172.826 454.587 176.346C454.681 176.612 455.534 180.345 455.707 181.371C456.667 178.705 457.613 176.039 458.373 173.373C459.499 169.773 460.389 166.104 461.039 162.389C460.772 162.389 453.721 161.722 450.935 160.123C448.509 158.723 445.816 156.284 445.456 153.351C445.344 152.666 445.379 151.965 445.557 151.294C445.735 150.623 446.053 149.997 446.489 149.457C446.926 148.917 447.472 148.475 448.091 148.161C448.71 147.847 449.388 147.666 450.082 147.632C454.254 147.526 458.706 153.618 459.933 157.137C460.013 157.363 460.679 160.256 460.959 161.629H461.186C461.736 157.874 461.95 154.078 461.826 150.285C461.826 148.206 461.626 146.206 461.426 144.273C460.093 144.273 454.041 144.273 451.375 143.127C448.709 141.98 445.869 139.874 445.176 137.008C444.991 136.337 444.95 135.634 445.056 134.946C445.161 134.257 445.411 133.599 445.788 133.014C446.166 132.429 446.663 131.93 447.246 131.55C447.83 131.17 448.487 130.918 449.175 130.81C453.321 130.25 458.413 135.808 460.026 139.168C460.106 139.354 460.799 141.314 461.266 142.753C461.172 141.874 461.079 140.981 460.959 140.087C460.546 136.955 459.959 134.115 459.426 131.596C459.106 130.17 458.8 128.93 458.493 127.69C457.16 127.024 451.935 124.291 450.148 122.065C448.362 119.839 446.762 116.653 447.482 113.787C447.635 113.113 447.927 112.48 448.339 111.926C448.752 111.372 449.276 110.911 449.877 110.572C450.478 110.233 451.144 110.023 451.832 109.957C452.519 109.891 453.212 109.97 453.867 110.188Z" fill="#26998D"/>
<path d="M529.424 174.626C526.158 174.493 519.626 171.134 519.626 171.134C519.626 171.134 523.132 167.508 523.385 167.294C526.304 164.975 533.316 162.189 536.795 164.508C537.364 164.907 537.842 165.421 538.199 166.017C538.555 166.613 538.781 167.277 538.863 167.967C538.945 168.657 538.88 169.356 538.673 170.018C538.466 170.681 538.122 171.293 537.662 171.813C535.782 174.093 532.21 174.733 529.424 174.626Z" fill="#26998D"/>
<g opacity="0.5">
<path d="M461.96 143.673C461.88 143.673 462.893 138.701 462.986 138.341C464.132 134.795 468.451 128.61 472.624 128.61C473.318 128.632 474 128.799 474.626 129.101C475.251 129.403 475.806 129.833 476.255 130.364C476.704 130.894 477.036 131.513 477.23 132.18C477.424 132.847 477.476 133.547 477.383 134.235C477.076 137.168 474.437 139.674 472.051 141.114C469.251 142.86 461.96 143.673 461.96 143.673Z" fill="white"/>
<path d="M453.867 110.188C457.8 111.601 459.759 118.879 459.626 122.611C459.626 122.931 458.88 127.944 458.813 127.944H458.733C459.04 129.09 459.373 130.316 459.706 131.676C460.293 134.182 460.932 137.008 461.426 140.154C461.998 143.524 462.371 146.925 462.545 150.338C462.758 154.164 462.629 158 462.159 161.802C462.154 161.847 462.154 161.891 462.159 161.936C462.679 160.829 464.225 157.777 464.358 157.55C466.411 154.431 472.196 149.552 476.236 150.712C476.899 150.914 477.512 151.254 478.035 151.709C478.558 152.164 478.979 152.724 479.271 153.353C479.563 153.982 479.719 154.666 479.728 155.359C479.738 156.052 479.602 156.74 479.328 157.377C478.262 160.136 475.062 161.842 472.383 162.616C469.357 163.469 462.612 162.456 462.079 162.376C461.507 166.23 460.679 170.042 459.599 173.786C458.977 175.972 458.302 178.154 457.573 180.331C458.04 179.385 458.48 178.545 458.546 178.438C460.599 175.319 466.398 170.44 470.424 171.6C471.087 171.802 471.7 172.142 472.223 172.597C472.746 173.053 473.167 173.613 473.459 174.242C473.751 174.871 473.907 175.554 473.916 176.247C473.926 176.941 473.79 177.628 473.516 178.265C472.45 181.011 469.25 182.731 466.571 183.491C463.892 184.25 458.08 183.491 456.56 183.304L455.72 185.797C454.387 189.796 452.934 193.795 451.721 197.714C451.281 199.047 450.895 200.487 450.508 201.873C450.935 201.033 451.295 200.327 451.361 200.233C453.414 197.101 459.2 192.235 463.225 193.395C463.888 193.598 464.502 193.937 465.025 194.392C465.548 194.847 465.97 195.407 466.263 196.036C466.556 196.664 466.713 197.347 466.725 198.041C466.737 198.734 466.603 199.422 466.331 200.06C465.265 202.806 462.052 204.526 459.373 205.286C456.693 206.045 451.455 205.379 449.642 205.126C449.282 206.552 448.935 207.992 448.655 209.391C448.482 210.351 448.255 211.258 448.135 212.244L447.736 215.097C447.549 216.923 447.336 218.802 447.202 220.589C447.096 221.842 447.016 223.028 446.936 224.215C447.362 222.882 448.269 220.122 448.335 219.909C449.816 216.979 452.018 214.474 454.734 212.631C454.885 212.294 455.068 211.972 455.28 211.671C455.658 211.088 456.154 210.592 456.736 210.215C457.318 209.837 457.974 209.587 458.66 209.48C459.345 209.373 460.046 209.412 460.715 209.594C461.385 209.776 462.009 210.098 462.545 210.538C465.718 213.27 464.918 220.762 463.465 224.201C463.385 224.401 462.199 226.507 461.439 227.814C462.012 227.107 462.545 226.481 463.145 225.708C464.305 224.281 465.505 222.895 466.784 221.402L468.744 219.282C469.384 218.563 470.157 217.883 470.863 217.163C472.53 215.55 474.303 213.99 476.129 212.471C474.889 211.444 470.517 207.765 469.264 205.259C468.011 202.753 467.118 199.247 468.424 196.594C468.711 195.961 469.128 195.396 469.648 194.935C470.168 194.474 470.78 194.128 471.442 193.919C472.105 193.71 472.805 193.644 473.495 193.723C474.185 193.803 474.851 194.027 475.449 194.381C478.982 196.594 479.341 204.126 478.422 207.712C478.422 207.938 477.409 210.471 476.862 211.844C477.968 210.924 479.062 210.018 480.208 209.178C483.514 206.632 486.94 204.153 490.339 201.66L493.445 199.354C493.005 198.994 487.726 194.728 486.313 191.915C485.074 189.423 484.167 185.903 485.473 183.264C485.759 182.63 486.175 182.063 486.695 181.601C487.214 181.139 487.826 180.791 488.488 180.581C489.151 180.371 489.851 180.303 490.542 180.382C491.233 180.461 491.9 180.684 492.498 181.038C496.044 183.264 496.391 190.782 495.471 194.368C495.404 194.635 494.031 198.261 493.645 199.167C495.911 197.474 498.164 195.768 500.31 193.995C503.227 191.606 505.988 189.033 508.575 186.29C508.375 186.13 502.843 181.691 501.403 178.825C500.15 176.332 499.257 172.813 500.563 170.16C500.849 169.528 501.265 168.963 501.783 168.502C502.302 168.041 502.912 167.694 503.573 167.485C504.234 167.275 504.932 167.206 505.622 167.284C506.311 167.361 506.977 167.583 507.575 167.934C511.121 170.16 511.481 177.692 510.561 181.265C510.494 181.504 509.454 184.277 508.935 185.57C508.996 185.622 509.063 185.667 509.135 185.703C511.663 182.872 513.934 179.821 515.92 176.586C517.039 174.826 517.999 173.066 518.906 171.347C517.786 170.627 512.734 167.348 511.147 164.842C509.561 162.336 508.361 159.096 509.361 156.324C509.577 155.664 509.929 155.057 510.395 154.542C510.86 154.027 511.429 153.617 512.064 153.336C512.699 153.056 513.386 152.912 514.08 152.915C514.774 152.917 515.46 153.066 516.093 153.351C519.865 155.164 521.038 162.682 520.519 166.308C520.519 166.508 519.985 168.521 519.599 169.974C519.985 169.201 520.412 168.388 520.772 167.628C522.105 164.788 523.238 162.096 524.171 159.71C524.704 158.377 525.144 157.043 525.504 155.924C524.771 154.657 521.918 149.472 521.638 146.593C521.358 143.713 521.812 140.207 523.984 138.208C524.479 137.721 525.071 137.344 525.721 137.101C526.371 136.857 527.065 136.754 527.758 136.797C528.451 136.839 529.127 137.027 529.742 137.349C530.357 137.67 530.898 138.117 531.329 138.661C533.835 142.007 531.449 149.165 529.29 152.205C529.103 152.471 525.704 156.204 525.664 156.204V156.124C525.291 157.257 524.891 158.456 524.411 159.776C523.531 162.189 522.505 164.908 521.185 167.774C519.79 170.9 518.219 173.944 516.48 176.892C514.538 180.194 512.308 183.316 509.814 186.223L509.721 186.317C510.761 185.677 513.72 183.984 513.973 183.877C517.413 182.398 524.904 181.571 527.65 184.717C528.092 185.252 528.417 185.875 528.602 186.544C528.788 187.213 528.83 187.913 528.727 188.6C528.624 189.287 528.378 189.944 528.004 190.529C527.63 191.114 527.137 191.613 526.557 191.995C524.144 193.702 520.532 193.328 517.866 192.529C514.867 191.582 509.868 187.01 509.414 186.65C506.807 189.547 504.011 192.268 501.043 194.795C499.324 196.274 497.537 197.714 495.711 199.14C496.631 198.621 497.457 198.154 497.577 198.101C501.003 196.621 508.495 195.794 511.241 198.94C511.685 199.475 512.011 200.097 512.198 200.767C512.384 201.436 512.427 202.137 512.324 202.824C512.221 203.512 511.974 204.169 511.599 204.754C511.224 205.339 510.729 205.838 510.148 206.219C507.748 207.925 504.122 207.552 501.47 206.752C498.817 205.952 494.378 202.086 493.232 201.06C492.525 201.606 491.899 202.153 491.139 202.686C487.793 205.259 484.474 207.805 481.208 210.404C480.075 211.324 478.995 212.257 477.902 213.204L479.528 212.297C482.954 210.831 490.446 209.991 493.192 213.15C493.636 213.685 493.962 214.307 494.148 214.977C494.335 215.646 494.378 216.347 494.275 217.034C494.172 217.722 493.925 218.379 493.549 218.964C493.174 219.549 492.68 220.048 492.099 220.429C489.686 222.135 486.073 221.762 483.421 220.949C480.768 220.136 476.755 216.656 475.422 215.457C474.343 216.443 473.25 217.443 472.25 218.456C471.57 219.162 470.917 219.789 470.25 220.549L468.331 222.722C467.171 224.135 465.958 225.588 464.852 227.001C464.078 227.987 463.359 228.933 462.639 229.88C463.745 228.96 465.985 227.214 466.185 227.067C469.344 225.081 476.635 223.135 479.821 225.828C480.338 226.291 480.751 226.859 481.033 227.492C481.316 228.126 481.462 228.813 481.462 229.507C481.462 230.201 481.316 230.887 481.033 231.521C480.751 232.155 480.338 232.722 479.821 233.186C477.689 235.239 474.063 235.452 471.317 235.025C468.277 234.559 462.785 231.026 462.106 230.533C460.906 232.106 459.759 233.652 458.693 235.119C455 240.224 452.121 244.623 450.148 247.716C450.148 247.836 450.015 247.929 449.948 248.036L447.389 246.796L447.789 246.183C449.855 243.104 452.868 238.731 456.707 233.652C457.92 232.039 459.239 230.36 460.612 228.627C459.184 227.072 457.848 225.434 456.613 223.721C453.667 224.868 447.562 224.908 446.762 224.908C446.642 226.894 446.536 228.814 446.456 230.626C446.189 236.932 446.216 242.184 446.282 245.85V246.276L443.47 244.943C443.47 241.291 443.616 236.358 443.99 230.52C444.11 228.52 444.283 226.374 444.483 224.175C443.696 223.988 437.338 222.348 434.938 220.429C432.766 218.696 430.473 215.87 430.553 212.924C430.545 212.229 430.685 211.54 430.962 210.903C431.239 210.266 431.648 209.695 432.162 209.226C432.675 208.758 433.282 208.404 433.942 208.186C434.602 207.969 435.3 207.894 435.992 207.965C440.137 208.498 443.616 215.177 444.296 218.856C444.296 219.069 444.51 221.522 444.59 222.975C444.683 222.082 444.75 221.215 444.856 220.309C445.029 218.483 445.269 216.67 445.523 214.71C445.669 213.777 445.829 212.817 445.976 211.857C446.123 210.898 446.376 209.911 446.576 208.938C447.082 206.659 447.695 204.379 448.375 202.1C446.776 201.94 441.11 201.273 438.671 199.874C436.231 198.474 433.565 196.048 433.206 193.115C433.094 192.43 433.128 191.729 433.306 191.058C433.485 190.387 433.802 189.761 434.239 189.221C434.676 188.681 435.221 188.24 435.84 187.925C436.459 187.611 437.138 187.431 437.831 187.396C442.003 187.29 446.456 193.368 447.682 196.901C447.762 197.114 448.362 199.74 448.655 201.193C449.082 199.86 449.482 198.461 449.988 197.088C451.321 193.088 452.828 189.183 454.294 185.224C454.747 184.011 455.174 182.798 455.627 181.584C455.054 181.584 448.295 180.891 445.576 179.318C443.163 177.985 440.471 175.493 440.097 172.56C439.988 171.875 440.024 171.175 440.203 170.504C440.382 169.834 440.7 169.209 441.136 168.67C441.572 168.131 442.117 167.689 442.735 167.374C443.353 167.059 444.03 166.877 444.723 166.841C448.909 166.735 453.361 172.826 454.587 176.346C454.681 176.612 455.534 180.345 455.707 181.371C456.667 178.705 457.613 176.039 458.373 173.373C459.499 169.773 460.389 166.104 461.039 162.389C460.772 162.389 453.721 161.722 450.935 160.123C448.509 158.723 445.816 156.284 445.456 153.351C445.344 152.666 445.379 151.965 445.557 151.294C445.735 150.623 446.053 149.997 446.489 149.457C446.926 148.917 447.472 148.475 448.091 148.161C448.71 147.847 449.388 147.666 450.082 147.632C454.254 147.526 458.706 153.618 459.933 157.137C460.013 157.363 460.679 160.256 460.959 161.629H461.186C461.736 157.874 461.95 154.078 461.826 150.285C461.826 148.206 461.626 146.206 461.426 144.273C460.093 144.273 454.041 144.273 451.375 143.127C448.709 141.98 445.869 139.874 445.176 137.008C444.991 136.337 444.95 135.634 445.056 134.946C445.161 134.257 445.411 133.599 445.788 133.014C446.166 132.429 446.663 131.93 447.246 131.55C447.83 131.17 448.487 130.918 449.175 130.81C453.321 130.25 458.413 135.808 460.026 139.168C460.106 139.354 460.799 141.314 461.266 142.753C461.172 141.874 461.079 140.981 460.959 140.087C460.546 136.955 459.959 134.115 459.426 131.596C459.106 130.17 458.8 128.93 458.493 127.69C457.16 127.024 451.935 124.291 450.148 122.065C448.362 119.839 446.762 116.653 447.482 113.787C447.635 113.113 447.927 112.48 448.339 111.926C448.752 111.372 449.276 110.911 449.877 110.572C450.478 110.233 451.144 110.023 451.832 109.957C452.519 109.891 453.212 109.97 453.867 110.188Z" fill="white"/>
<path d="M529.423 174.626C526.157 174.493 519.625 171.134 519.625 171.134C519.625 171.134 523.131 167.508 523.385 167.294C526.304 164.975 533.316 162.189 536.795 164.508C537.364 164.907 537.842 165.421 538.198 166.017C538.554 166.613 538.781 167.277 538.863 167.967C538.945 168.657 538.88 169.356 538.673 170.018C538.466 170.681 538.121 171.293 537.661 171.813C535.782 174.093 532.209 174.733 529.423 174.626Z" fill="white"/>
</g>
<path d="M491.285 256.407C491.285 256.407 471.463 208.631 460.372 210.711C449.282 212.79 479.395 286.88 479.395 286.88C479.395 286.88 444.523 221.095 420.742 221.095C396.961 221.095 429.46 293.798 459.586 318.033C459.586 318.033 412.024 266.791 384.283 277.882C356.543 288.973 439.804 340.894 439.804 340.894C439.804 340.894 391.455 325.658 397.001 337.428C402.546 349.199 417.609 351.278 417.609 351.278L362.955 354.051H553.111L510.308 349.892C510.308 349.892 554.697 327.737 542.807 318.726C530.916 309.715 504.762 329.11 504.762 329.11C504.762 329.11 549.938 279.255 541.22 260.566C532.502 241.877 493.658 294.492 493.658 294.492C493.658 294.492 525.371 227.334 518.985 215.55C512.6 203.766 491.285 256.407 491.285 256.407Z" fill="#26998D"/>
<path opacity="0.4" d="M491.285 256.407C491.285 256.407 471.463 208.631 460.372 210.711C449.282 212.79 479.395 286.88 479.395 286.88C479.395 286.88 444.523 221.095 420.742 221.095C396.961 221.095 429.46 293.798 459.586 318.033C459.586 318.033 412.024 266.791 384.283 277.882C356.543 288.973 439.804 340.894 439.804 340.894C439.804 340.894 391.455 325.658 397.001 337.428C402.546 349.199 417.609 351.278 417.609 351.278L362.955 354.051H553.111L510.308 349.892C510.308 349.892 554.697 327.737 542.807 318.726C530.916 309.715 504.762 329.11 504.762 329.11C504.762 329.11 549.938 279.255 541.22 260.566C532.502 241.877 493.658 294.492 493.658 294.492C493.658 294.492 525.371 227.334 518.985 215.55C512.6 203.766 491.285 256.407 491.285 256.407Z" fill="white"/>
<path d="M497.632 258.926C480.196 310.448 480.196 346.906 480.196 346.906C480.196 346.906 500.804 347.706 522.199 331.856" stroke="#263238" stroke-width="1.29844" stroke-linecap="round" stroke-linejoin="round"/>
<path d="M488.913 286.667C485.316 271.265 480.543 256.162 474.637 241.49" stroke="#263238" stroke-width="1.29844" stroke-linecap="round" stroke-linejoin="round"/>
<path d="M437.392 256.554L481.768 322.338C481.768 322.338 511.895 297.011 522.199 282.708" stroke="#263238" stroke-width="1.29844" stroke-linecap="round" stroke-linejoin="round"/>
<path d="M480.982 338.188C480.982 338.188 434.22 315.993 415.197 303.316" stroke="#263238" stroke-width="1.29844" stroke-linecap="round" stroke-linejoin="round"/>
<path d="M184.798 17.3826L173.907 0H77.9824V17.3826V23.6345V312.821H472.824V17.3826H184.798Z" fill="#263238"/>
<path d="M470.224 25.3541H80.9146V306.515H470.224V25.3541Z" fill="white"/>
<path opacity="0.17" d="M472.131 22.9414H463.093V308.648H472.131V22.9414Z" fill="black"/>
<path opacity="0.17" d="M472.131 195.688H463.093V306.329H472.131V195.688Z" fill="black"/>
<path d="M470.731 21.555H79.3682V36.8448H470.731V21.555Z" fill="#26998D" stroke="#263238" stroke-width="1.29844" stroke-miterlimit="10"/>
<path d="M470.224 25.3541H80.9146V306.515H470.224V25.3541Z" stroke="#263238" stroke-width="1.29844" stroke-linecap="round" stroke-linejoin="round"/>
<g opacity="0.17">
<path d="M283.748 51.5879H256.514C256.199 51.5879 255.887 51.5259 255.596 51.4053C255.305 51.2847 255.04 51.1079 254.818 50.8851C254.595 50.6623 254.418 50.3978 254.297 50.1067C254.177 49.8156 254.115 49.5036 254.115 49.1885C254.113 48.8722 254.174 48.5588 254.294 48.2662C254.413 47.9735 254.59 47.7074 254.813 47.4832C255.036 47.259 255.301 47.081 255.593 46.9596C255.885 46.8382 256.198 46.7757 256.514 46.7757H283.748C284.064 46.7757 284.377 46.8382 284.669 46.9596C284.961 47.081 285.226 47.259 285.449 47.4832C285.672 47.7074 285.849 47.9735 285.969 48.2662C286.088 48.5588 286.149 48.8722 286.147 49.1885C286.147 49.5036 286.085 49.8156 285.965 50.1067C285.844 50.3978 285.667 50.6623 285.445 50.8851C285.222 51.1079 284.957 51.2847 284.666 51.4053C284.375 51.5259 284.063 51.5879 283.748 51.5879Z" fill="black"/>
<path d="M338.215 51.5879H310.981C310.346 51.5844 309.737 51.3305 309.288 50.8813C308.839 50.432 308.585 49.8238 308.582 49.1885C308.582 48.5509 308.834 47.9392 309.284 47.4871C309.733 47.035 310.343 46.7792 310.981 46.7757H338.215C338.855 46.7757 339.468 47.0299 339.921 47.4824C340.373 47.9349 340.627 48.5486 340.627 49.1885C340.624 49.8261 340.368 50.4363 339.916 50.8859C339.464 51.3356 338.852 51.5879 338.215 51.5879Z" fill="black"/>
<path d="M392.695 51.5879H365.462C364.824 51.5879 364.212 51.3356 363.76 50.8859C363.308 50.4363 363.052 49.8261 363.049 49.1885C363.049 48.5486 363.303 47.9349 363.755 47.4824C364.208 47.0299 364.822 46.7757 365.462 46.7757H392.695C393.333 46.7792 393.943 47.035 394.393 47.4871C394.842 47.9392 395.095 48.5509 395.095 49.1885C395.091 49.8238 394.837 50.432 394.388 50.8813C393.939 51.3305 393.331 51.5844 392.695 51.5879Z" fill="black"/>
<path d="M447.162 51.5879H419.929C419.614 51.5879 419.302 51.5259 419.011 51.4053C418.719 51.2847 418.455 51.1079 418.232 50.8851C418.009 50.6623 417.833 50.3978 417.712 50.1067C417.591 49.8156 417.529 49.5036 417.529 49.1885C417.528 48.8722 417.588 48.5588 417.708 48.2662C417.828 47.9735 418.004 47.7074 418.227 47.4832C418.45 47.259 418.715 47.081 419.007 46.9596C419.299 46.8382 419.613 46.7757 419.929 46.7757H447.162C447.8 46.7792 448.41 47.035 448.86 47.4871C449.31 47.9392 449.562 48.5509 449.562 49.1885C449.558 49.8238 449.304 50.432 448.855 50.8813C448.406 51.3305 447.798 51.5844 447.162 51.5879Z" fill="black"/>
</g>
<path d="M117.707 166.348H158.857" stroke="#263238" stroke-width="3.89532" stroke-linecap="round" stroke-linejoin="round"/>
<path d="M158.124 172.76H162.616" stroke="#263238" stroke-width="1.29844" stroke-linecap="round" stroke-linejoin="round"/>
<path d="M132.356 172.76H155.404" stroke="#263238" stroke-width="1.29844" stroke-linecap="round" stroke-linejoin="round"/>
<path d="M114.56 172.76H129.916" stroke="#263238" stroke-width="1.29844" stroke-linecap="round" stroke-linejoin="round"/>
<path d="M143.74 179.172H162.615" stroke="#263238" stroke-width="1.29844" stroke-linecap="round" stroke-linejoin="round"/>
<path d="M133.436 179.172H140.768" stroke="#263238" stroke-width="1.29844" stroke-linecap="round" stroke-linejoin="round"/>
<path d="M114.56 179.172H130.183" stroke="#263238" stroke-width="1.29844" stroke-linecap="round" stroke-linejoin="round"/>
<path d="M124.759 185.57H162.617" stroke="#263238" stroke-width="1.29844" stroke-linecap="round" stroke-linejoin="round"/>
<path d="M114.56 185.57H121.239" stroke="#263238" stroke-width="1.29844" stroke-linecap="round" stroke-linejoin="round"/>
<path d="M153.244 191.982H162.615" stroke="#263238" stroke-width="1.29844" stroke-linecap="round" stroke-linejoin="round"/>
<path d="M135.341 191.982H149.978" stroke="#263238" stroke-width="1.29844" stroke-linecap="round" stroke-linejoin="round"/>
<path d="M114.56 191.982H132.356" stroke="#263238" stroke-width="1.29844" stroke-linecap="round" stroke-linejoin="round"/>
<path d="M130.184 198.394H162.616" stroke="#263238" stroke-width="1.29844" stroke-linecap="round" stroke-linejoin="round"/>
<path d="M114.56 198.394H127.197" stroke="#263238" stroke-width="1.29844" stroke-linecap="round" stroke-linejoin="round"/>
<path d="M211.552 166.348H252.702" stroke="#263238" stroke-width="3.89532" stroke-linecap="round" stroke-linejoin="round"/>
<path d="M251.967 172.76H256.46" stroke="#263238" stroke-width="1.29844" stroke-linecap="round" stroke-linejoin="round"/>
<path d="M226.201 172.76H249.249" stroke="#263238" stroke-width="1.29844" stroke-linecap="round" stroke-linejoin="round"/>
<path d="M208.405 172.76H223.761" stroke="#263238" stroke-width="1.29844" stroke-linecap="round" stroke-linejoin="round"/>
<path d="M237.585 179.172H256.461" stroke="#263238" stroke-width="1.29844" stroke-linecap="round" stroke-linejoin="round"/>
<path d="M227.28 179.172H234.612" stroke="#263238" stroke-width="1.29844" stroke-linecap="round" stroke-linejoin="round"/>
<path d="M208.405 179.172H224.028" stroke="#263238" stroke-width="1.29844" stroke-linecap="round" stroke-linejoin="round"/>
<path d="M218.603 185.57H256.46" stroke="#263238" stroke-width="1.29844" stroke-linecap="round" stroke-linejoin="round"/>
<path d="M208.405 185.57H215.083" stroke="#263238" stroke-width="1.29844" stroke-linecap="round" stroke-linejoin="round"/>
<path d="M247.09 191.982H256.461" stroke="#263238" stroke-width="1.29844" stroke-linecap="round" stroke-linejoin="round"/>
<path d="M229.188 191.982H243.824" stroke="#263238" stroke-width="1.29844" stroke-linecap="round" stroke-linejoin="round"/>
<path d="M208.405 191.982H226.201" stroke="#263238" stroke-width="1.29844" stroke-linecap="round" stroke-linejoin="round"/>
<path d="M224.029 198.394H256.461" stroke="#263238" stroke-width="1.29844" stroke-linecap="round" stroke-linejoin="round"/>
<path d="M208.405 198.394H221.042" stroke="#263238" stroke-width="1.29844" stroke-linecap="round" stroke-linejoin="round"/>
<path d="M305.396 166.348H346.546" stroke="#263238" stroke-width="3.89532" stroke-linecap="round" stroke-linejoin="round"/>
<path d="M345.813 172.76H350.305" stroke="#263238" stroke-width="1.29844" stroke-linecap="round" stroke-linejoin="round"/>
<path d="M320.045 172.76H343.093" stroke="#263238" stroke-width="1.29844" stroke-linecap="round" stroke-linejoin="round"/>
<path d="M302.251 172.76H317.607" stroke="#263238" stroke-width="1.29844" stroke-linecap="round" stroke-linejoin="round"/>
<path d="M331.431 179.172H350.306" stroke="#263238" stroke-width="1.29844" stroke-linecap="round" stroke-linejoin="round"/>
<path d="M321.126 179.172H328.458" stroke="#263238" stroke-width="1.29844" stroke-linecap="round" stroke-linejoin="round"/>
<path d="M302.251 179.172H317.874" stroke="#263238" stroke-width="1.29844" stroke-linecap="round" stroke-linejoin="round"/>
<path d="M312.447 185.57H350.305" stroke="#263238" stroke-width="1.29844" stroke-linecap="round" stroke-linejoin="round"/>
<path d="M302.251 185.57H308.929" stroke="#263238" stroke-width="1.29844" stroke-linecap="round" stroke-linejoin="round"/>
<path d="M340.935 191.982H350.306" stroke="#263238" stroke-width="1.29844" stroke-linecap="round" stroke-linejoin="round"/>
<path d="M323.031 191.982H337.668" stroke="#263238" stroke-width="1.29844" stroke-linecap="round" stroke-linejoin="round"/>
<path d="M302.251 191.982H320.047" stroke="#263238" stroke-width="1.29844" stroke-linecap="round" stroke-linejoin="round"/>
<path d="M317.872 198.394H350.305" stroke="#263238" stroke-width="1.29844" stroke-linecap="round" stroke-linejoin="round"/>
<path d="M302.251 198.394H314.888" stroke="#263238" stroke-width="1.29844" stroke-linecap="round" stroke-linejoin="round"/>
<path d="M399.24 166.348H440.391" stroke="#263238" stroke-width="3.89532" stroke-linecap="round" stroke-linejoin="round"/>
<path d="M439.659 172.76H444.151" stroke="#263238" stroke-width="1.29844" stroke-linecap="round" stroke-linejoin="round"/>
<path d="M413.89 172.76H436.938" stroke="#263238" stroke-width="1.29844" stroke-linecap="round" stroke-linejoin="round"/>
<path d="M396.096 172.76H411.453" stroke="#263238" stroke-width="1.29844" stroke-linecap="round" stroke-linejoin="round"/>
<path d="M425.274 179.172H444.15" stroke="#263238" stroke-width="1.29844" stroke-linecap="round" stroke-linejoin="round"/>
<path d="M414.971 179.172H422.302" stroke="#263238" stroke-width="1.29844" stroke-linecap="round" stroke-linejoin="round"/>
<path d="M396.096 179.172H411.719" stroke="#263238" stroke-width="1.29844" stroke-linecap="round" stroke-linejoin="round"/>
<path d="M406.293 185.57H444.151" stroke="#263238" stroke-width="1.29844" stroke-linecap="round" stroke-linejoin="round"/>
<path d="M396.096 185.57H402.775" stroke="#263238" stroke-width="1.29844" stroke-linecap="round" stroke-linejoin="round"/>
<path d="M434.779 191.982H444.15" stroke="#263238" stroke-width="1.29844" stroke-linecap="round" stroke-linejoin="round"/>
<path d="M416.876 191.982H431.513" stroke="#263238" stroke-width="1.29844" stroke-linecap="round" stroke-linejoin="round"/>
<path d="M396.096 191.982H413.892" stroke="#263238" stroke-width="1.29844" stroke-linecap="round" stroke-linejoin="round"/>
<path d="M411.717 198.394H444.15" stroke="#263238" stroke-width="1.29844" stroke-linecap="round" stroke-linejoin="round"/>
<path d="M396.096 198.394H408.733" stroke="#263238" stroke-width="1.29844" stroke-linecap="round" stroke-linejoin="round"/>
<path d="M456.829 145.699H94.2461V70.9035H456.829V145.699Z" fill="#26998D"/>
<path opacity="0.7" d="M456.829 145.699H94.2461V70.9035H456.829V145.699Z" fill="white"/>
<path d="M365.075 145.699H186.063V70.9035H365.075V145.699Z" fill="#26998D"/>
<path opacity="0.92" d="M365.075 145.699H186.063V70.9035H365.075V145.699Z" fill="white"/>
<path d="M328.497 92.5784H340.694" stroke="#263238" stroke-width="1.29844" stroke-linecap="round" stroke-linejoin="round"/>
<path d="M258.673 92.5784H321.152" stroke="#263238" stroke-width="1.29844" stroke-linecap="round" stroke-linejoin="round"/>
<path d="M210.445 92.5784H252.048" stroke="#263238" stroke-width="1.29844" stroke-linecap="round" stroke-linejoin="round"/>
<path d="M289.546 98.9903H340.694" stroke="#263238" stroke-width="1.29844" stroke-linecap="round" stroke-linejoin="round"/>
<path d="M261.606 98.9903H281.455" stroke="#263238" stroke-width="1.29844" stroke-linecap="round" stroke-linejoin="round"/>
<path d="M210.445 98.9903H252.795" stroke="#263238" stroke-width="1.29844" stroke-linecap="round" stroke-linejoin="round"/>
<path d="M238.09 105.402H340.693" stroke="#263238" stroke-width="1.29844" stroke-linecap="round" stroke-linejoin="round"/>
<path d="M210.445 105.402H228.534" stroke="#263238" stroke-width="1.29844" stroke-linecap="round" stroke-linejoin="round"/>
<path d="M315.274 111.814H340.695" stroke="#263238" stroke-width="1.29844" stroke-linecap="round" stroke-linejoin="round"/>
<path d="M266.752 111.814H306.45" stroke="#263238" stroke-width="1.29844" stroke-linecap="round" stroke-linejoin="round"/>
<path d="M210.445 111.814H258.674" stroke="#263238" stroke-width="1.29844" stroke-linecap="round" stroke-linejoin="round"/>
<path d="M252.794 118.212H340.694" stroke="#263238" stroke-width="1.29844" stroke-linecap="round" stroke-linejoin="round"/>
<path d="M210.445 118.212H244.704" stroke="#263238" stroke-width="1.29844" stroke-linecap="round" stroke-linejoin="round"/>
<path d="M456.829 305.582H94.2461V230.786H456.829V305.582Z" fill="#26998D"/>
<path opacity="0.7" d="M456.829 305.582H94.2461V230.786H456.829V305.582Z" fill="white"/>
<path d="M413.918 259.246C413.918 259.246 392.683 267.778 389.351 268.831C386.018 269.884 385.818 271.324 385.818 275.896C385.818 280.468 386.445 301.09 386.445 302.756C386.445 304.423 386.232 307.542 386.232 307.542H455.802C455.802 307.542 451.216 288.88 448.51 280.068C445.804 271.257 447.057 270.484 442.272 267.578C437.486 264.672 424.943 260.499 422.277 259.873C419.512 259.439 416.717 259.23 413.918 259.246Z" fill="#263238" stroke="#263238" stroke-width="1.29844" stroke-linecap="round" stroke-linejoin="round"/>
<path d="M414.957 256.954C414.957 256.954 409.958 256.54 407.878 260.713C405.799 264.885 400.8 274.603 400.8 274.603L406.838 278.349L399.813 281.934C400.987 287.077 402.447 292.151 404.186 297.131C405.396 300.399 406.784 303.599 408.345 306.715C408.345 306.715 418.476 295.265 422.475 291.719C425.112 289.196 427.294 286.238 428.927 282.974L423.728 278.189L432.686 277.149C432.686 277.149 430.393 265.498 427.474 260.713C424.554 255.927 414.957 256.954 414.957 256.954Z" fill="#263238" stroke="#263238" stroke-width="1.29844" stroke-linecap="round" stroke-linejoin="round"/>
<path d="M404.732 297.264C405.106 298.304 405.506 299.29 405.892 300.157" stroke="white" stroke-width="0.64922" stroke-linecap="round" stroke-linejoin="round"/>
<path d="M405.493 265.898L400.801 274.603L406.839 278.349L400.374 282.014C400.374 282.014 401.88 288.586 403.773 294.478" stroke="white" stroke-width="0.64922" stroke-linecap="round" stroke-linejoin="round"/>
<path d="M429.14 261.952L432.646 277.149L423.688 278.189L428.887 282.974C428.887 282.974 418.889 294.691 414.744 299.424" stroke="white" stroke-width="0.64922" stroke-linecap="round" stroke-linejoin="round"/>
<path d="M442.23 285.267L438.484 308.382" stroke="white" stroke-width="0.64922" stroke-linecap="round" stroke-linejoin="round"/>
<path d="M390.816 281.108C390.816 281.108 390.403 295.051 390.602 299.424C390.768 302.195 391.329 304.929 392.269 307.542" stroke="white" stroke-width="0.64922" stroke-linecap="round" stroke-linejoin="round"/>
<path d="M429.327 290.892L432.859 286.107L435.778 290.892H429.327Z" fill="white" stroke="#263238" stroke-width="1.29844" stroke-miterlimit="10"/>
<path d="M433.486 245.09C433.486 245.09 437.019 244.676 437.859 249.889C438.699 255.101 436.192 261.752 427.861 261.752C419.53 261.752 420.169 255.501 420.369 250.928C420.569 246.356 433.486 245.09 433.486 245.09Z" fill="#263238" stroke="#263238" stroke-width="1.29844" stroke-miterlimit="10"/>
<path d="M412.878 253.634C412.878 253.634 412.664 259.66 412.251 266.538C411.838 273.416 408.505 282.774 408.505 290.679C408.477 295.06 408.686 299.438 409.132 303.796C409.132 303.796 415.997 290.466 419.116 282.774C422.236 275.083 425.781 252.795 425.781 252.795L412.878 253.634Z" fill="white" stroke="#263238" stroke-width="1.29844" stroke-miterlimit="10"/>
<path d="M433.272 239.944C434.823 236.909 435.679 233.567 435.779 230.16C435.779 224.961 434.739 217.883 428.7 214.75C422.662 211.617 410.998 213.71 408.092 219.749C406.13 223.609 405.211 227.915 405.426 232.239C405.636 234.577 406.123 236.882 406.879 239.104C406.879 239.104 407.718 235.105 413.33 233.079C418.943 231.053 424.994 228.907 427.9 230.413C430.806 231.919 433.272 239.944 433.272 239.944Z" fill="#263238" stroke="#263238" stroke-width="1.29844" stroke-linecap="round" stroke-linejoin="round"/>
<path d="M407.053 237.811C407.053 237.811 404.546 234.066 403.507 236.772C402.467 239.478 403.933 243.437 405.586 244.263C407.239 245.09 408.092 244.676 408.092 244.676L407.053 237.811Z" fill="white" stroke="#263238" stroke-width="1.29844" stroke-linecap="round" stroke-linejoin="round"/>
<path d="M433.273 238.438C433.273 238.438 436.193 235.519 436.193 238.225C436.046 240.736 435.113 243.137 433.527 245.09C432.273 246.756 431.647 245.929 431.647 245.929L433.273 238.438Z" fill="white" stroke="#263238" stroke-width="1.29844" stroke-linecap="round" stroke-linejoin="round"/>
<path d="M428.328 226.454L430.394 220.629C430.475 220.401 430.463 220.15 430.359 219.931C430.255 219.712 430.069 219.544 429.841 219.462C429.613 219.381 429.362 219.394 429.143 219.497C428.924 219.601 428.756 219.787 428.674 220.015L426.942 224.881C425.118 224.45 423.226 224.395 421.381 224.721C419.536 225.046 417.776 225.745 416.211 226.774C410.799 230.32 406.426 233.439 406.426 233.439C406.426 233.439 406.64 245.303 408.919 249.675C411.198 254.048 415.171 259.246 418.503 259.246C421.836 259.246 427.661 251.968 429.954 249.675C432.247 247.382 433.7 238.438 433.7 235.519C433.7 233.426 430.261 228.867 428.328 226.454Z" fill="white" stroke="#263238" stroke-width="1.29844" stroke-miterlimit="10"/>
<path d="M420.129 279.935C416.748 280.241 413.341 279.785 410.158 278.602C409.205 282.594 408.651 286.671 408.505 290.772C408.477 295.153 408.686 299.532 409.132 303.889C409.132 303.889 415.997 290.559 419.116 282.868C419.45 281.961 419.81 280.961 420.129 279.935Z" fill="#26998D" stroke="#263238" stroke-width="1.29844" stroke-miterlimit="10"/>
<path d="M321.739 248.196C316.429 248.798 311.156 249.688 305.942 250.862C299.85 252.435 296.918 253.114 296.918 256.047C296.918 258.98 296.238 271.617 294.252 277.269C292.266 282.921 289.959 291.039 289.959 293.972C289.959 296.904 294.252 309.315 294.252 309.315H302.143C302.143 309.315 299.211 294.865 299.211 293.518C299.211 292.172 303.276 280.188 303.276 280.188L303.503 309.755H344.827L344.387 281.535C344.387 281.535 347.986 293.052 347.986 295.078C347.986 297.104 346.653 310.435 346.653 310.435H354.491C354.491 310.435 358.33 295.771 358.104 290.572C357.877 285.374 354.105 268.897 353.598 263.912C353.091 258.926 356.077 256.234 350.665 252.848C345.253 249.462 332.83 247.436 330.123 247.209C327.303 247.265 324.495 247.595 321.739 248.196Z" fill="#26998D" stroke="#263238" stroke-width="1.29844" stroke-miterlimit="10"/>
<path d="M303.236 280.255L303.916 268.964L301.423 260.393" stroke="#263238" stroke-width="1.29844" stroke-linecap="round" stroke-linejoin="round"/>
<path d="M344.32 267.165V281.601" stroke="#263238" stroke-width="1.29844" stroke-linecap="round" stroke-linejoin="round"/>
<path d="M344.534 271.23L348.147 265.805" stroke="#263238" stroke-width="1.29844" stroke-linecap="round" stroke-linejoin="round"/>
<path d="M325.578 263.552L324.231 309.368" stroke="#263238" stroke-width="1.29844" stroke-linecap="round" stroke-linejoin="round"/>
<path d="M324.898 242.784C322.889 242.894 320.979 243.689 319.485 245.036C317.006 247.302 316.1 256.1 316.1 256.1C316.1 256.1 324.004 253.848 325.351 253.434C326.697 253.021 338.681 255.687 338.681 255.687C338.681 255.687 337.561 247.796 334.402 244.41C331.243 241.024 324.898 242.784 324.898 242.784Z" fill="#263238" stroke="#263238" stroke-width="1.29844" stroke-linecap="round" stroke-linejoin="round"/>
<path d="M321.739 235.559C321.739 235.559 323.552 238.225 323.552 246.223C323.552 254.221 324.445 262.472 325.578 263.552C326.711 264.632 331.444 252.888 331.444 247.556C331.534 244.03 332.384 240.565 333.936 237.398C333.936 237.398 328.284 233.559 325.352 233.106C324.551 232.981 323.733 233.165 323.062 233.62C322.391 234.075 321.919 234.768 321.739 235.559Z" fill="white" stroke="#263238" stroke-width="1.29844" stroke-linecap="round" stroke-linejoin="round"/>
<path d="M323.912 255.021C324.272 259.406 324.885 262.859 325.578 263.552C326.271 264.245 328.444 259.846 329.937 255.127C327.935 255.41 325.902 255.374 323.912 255.021Z" fill="#263238" stroke="#263238" stroke-width="1.29844" stroke-linecap="round" stroke-linejoin="round"/>
<path d="M335.51 213.897C335.51 213.897 336.843 214.35 339.349 212.084C341.855 209.818 340.682 205.539 339.576 206.445C338.87 207.022 338.258 207.706 337.763 208.472C337.325 207.151 336.52 205.982 335.44 205.104C334.361 204.225 333.053 203.673 331.671 203.513C326.939 203.059 321.287 209.605 321.287 209.605C321.287 209.605 310.916 217.283 312.036 223.375C313.155 229.467 319.034 234.879 321.74 235.559C324.446 236.238 329.418 231.28 328.512 226.987C327.605 222.695 326.939 216.323 328.512 215.696C330.809 214.965 333.146 214.365 335.51 213.897Z" fill="#263238" stroke="#263238" stroke-width="1.29844" stroke-linecap="round" stroke-linejoin="round"/>
<path d="M321.285 231.946C321.285 231.946 317.459 229.28 316.553 231.28C315.646 233.279 317.686 236.918 320.165 238.038C322.645 239.158 324.898 235.559 324.898 235.559C324.898 235.559 332.802 241.877 338.228 242.104C343.653 242.33 343.88 238.038 342.973 229.92C342.067 221.802 339.361 215.47 337.335 213.217C335.308 210.964 327.404 212.99 324.911 215.017C322.418 217.043 320.912 218.856 323.338 219.309C325.764 219.762 328.07 220.642 325.817 223.148C323.565 225.654 322.431 224.721 323.151 226.534C323.871 228.347 326.764 230.146 324.058 231.053L321.285 231.946Z" fill="white" stroke="#263238" stroke-width="1.29844" stroke-linecap="round" stroke-linejoin="round"/>
<path d="M222.096 243.943C222.096 243.943 193.649 247.329 192.769 249.809C191.89 252.288 181.492 276.469 183.065 278.695C184.638 280.921 187.811 281.361 190.29 281.361C192.046 281.204 193.708 280.495 195.036 279.335L187.811 309.995H240.172L241.758 288.546C241.758 288.546 247.85 291.212 251.916 290.812C255.981 290.412 255.075 287.2 254.169 281.108C253.262 275.016 252.835 259.433 251.236 256.5C249.636 253.568 230.467 245.436 230.467 245.436L222.096 243.943Z" fill="#263238" stroke="#263238" stroke-width="1.29844" stroke-linecap="round" stroke-linejoin="round"/>
<path d="M242.183 280.708V266.711L243.302 264.005" stroke="white" stroke-width="1.29844" stroke-linecap="round" stroke-linejoin="round"/>
<path d="M196.581 268.964L198.847 259.486L198.393 257.46" stroke="white" stroke-width="1.29844" stroke-linecap="round" stroke-linejoin="round"/>
<path d="M202.527 310.954C202.527 310.954 206.806 292.439 208.845 280.935C210.885 269.431 219.376 243.943 219.376 243.943L232.48 247.556C232.48 247.556 223.669 273.283 221.416 284.347C219.163 295.411 217.27 311.088 217.27 311.088L202.527 310.954Z" fill="#26998D" stroke="#263238" stroke-width="1.29844" stroke-miterlimit="10"/>
<path d="M221.189 241.277C221.189 241.277 217.35 241.277 215.99 243.943C214.63 246.609 212.831 257.034 212.831 257.034C212.831 257.034 220.962 253.421 221.642 253.421C222.322 253.421 225.481 253.648 227.054 255.447C228.627 257.247 232.026 261.539 232.026 261.539C232.026 261.539 237.212 253.194 235.865 247.782C235.404 245.999 234.391 244.406 232.972 243.231C231.553 242.055 229.799 241.358 227.96 241.237L221.189 241.277Z" fill="#26998D" stroke="#263238" stroke-width="1.29844" stroke-miterlimit="10"/>
<path d="M219.855 235.332C219.855 235.332 219.402 251.142 219.855 255.647C220.308 260.153 220.988 261.286 220.988 261.286C220.988 261.286 224.827 254.967 225.947 252.715C227.067 250.462 230.466 247.969 232.052 245.943C233.639 243.917 234.718 236.238 234.718 236.238C234.718 236.238 228.853 240.757 225.694 239.624C223.459 238.635 221.466 237.17 219.855 235.332Z" fill="white" stroke="#263238" stroke-width="1.29844" stroke-linecap="round" stroke-linejoin="round"/>
<path d="M229.187 206.765C225.348 207.325 221.602 209.245 220.522 212.99C219.616 216.15 219.189 226.534 218.949 231.719C218.709 236.905 221.429 243.463 223.682 244.143C225.562 244.811 227.586 244.967 229.547 244.596C230.68 244.143 235.879 237.145 237.225 235.785C238.571 234.425 242.637 221.788 242.637 217.283C242.737 215.06 242.108 212.866 240.848 211.033C239.587 209.2 237.763 207.828 235.652 207.125C233.546 206.553 231.343 206.43 229.187 206.765Z" fill="white" stroke="#263238" stroke-width="1.29844" stroke-linecap="round" stroke-linejoin="round"/>
<path d="M240.37 227.947C240.37 227.947 243.982 224.774 243.036 228.84C242.745 230.055 242.191 231.191 241.412 232.168C240.634 233.144 239.65 233.938 238.53 234.492L240.37 227.947Z" fill="white" stroke="#263238" stroke-width="1.29844" stroke-linecap="round" stroke-linejoin="round"/>
<path d="M219.376 223.601C219.376 223.601 216.71 221.122 216.71 224.508C216.813 226.725 217.605 228.854 218.976 230.6L219.376 223.601Z" fill="white" stroke="#263238" stroke-width="1.29844" stroke-linecap="round" stroke-linejoin="round"/>
<path d="M240.37 227.947C241.541 224.494 242.297 220.914 242.623 217.283C242.722 215.06 242.094 212.866 240.833 211.033C239.573 209.2 237.749 207.828 235.638 207.125C233.532 206.553 231.329 206.43 229.173 206.765C225.334 207.325 221.588 209.245 220.508 212.99C219.813 216.726 219.408 220.51 219.295 224.308C220.441 223.415 222.827 221.229 222.321 218.629C221.641 215.243 220.281 213.67 222.761 212.084C225.24 210.498 228.186 212.764 232.252 214.123C236.318 215.483 240.37 213.67 241.503 214.79C242.636 215.91 237.891 220.669 238.57 222.468C239.25 224.268 240.823 226.307 240.37 227.894V227.947Z" fill="#263238" stroke="#263238" stroke-width="1.29844" stroke-linecap="round" stroke-linejoin="round"/>
<path d="M207.858 271.23C207.858 271.23 204.472 266.485 202.219 266.258C199.966 266.031 194.541 271.23 194.541 271.23H207.858Z" fill="white" stroke="#263238" stroke-width="1.29844" stroke-linecap="round" stroke-linejoin="round"/>
<path d="M229.306 271.67H232.479L233.145 278.002L229.759 277.096L229.306 271.67Z" fill="white" stroke="#263238" stroke-width="1.29844" stroke-linecap="round" stroke-linejoin="round"/>
<path d="M232.479 271.67L238.117 274.163L239.464 281.161L233.145 278.002L232.479 271.67Z" fill="white" stroke="#263238" stroke-width="1.29844" stroke-linecap="round" stroke-linejoin="round"/>
<path d="M250.516 283.934L218.243 271.297C216.383 272.211 214.638 273.343 213.044 274.669C212.103 275.616 211.407 276.778 211.018 278.055C211.018 278.055 226.361 289.119 233.813 292.505C241.264 295.891 252.102 297.024 253.901 295.171C255.701 293.318 255.234 286.373 254.128 285.24C253.53 284.623 252.848 284.094 252.102 283.667" fill="#263238"/>
<path d="M250.516 283.934L218.243 271.297C216.383 272.211 214.638 273.343 213.044 274.669C212.103 275.616 211.407 276.778 211.018 278.055C211.018 278.055 226.361 289.119 233.813 292.505C241.264 295.891 252.102 297.024 253.901 295.171C255.701 293.318 255.234 286.373 254.128 285.24C253.53 284.623 252.848 284.094 252.102 283.667" stroke="#263238" stroke-width="1.29844" stroke-linecap="round" stroke-linejoin="round"/>
<path d="M229.307 270.604L229.76 277.149C229.76 277.149 206.059 282.561 197.261 284.147C188.463 285.734 183.718 284.587 182.371 280.535C181.025 276.482 185.531 271.497 187.557 270.377C189.583 269.257 229.307 270.604 229.307 270.604Z" fill="#263238" stroke="#263238" stroke-width="1.29844" stroke-linecap="round" stroke-linejoin="round"/>
<path d="M142.127 255.127C142.127 255.127 151.165 257.38 154.777 258.513C158.39 259.646 159.51 260.993 159.51 263.699C159.51 266.405 157.483 278.362 157.483 280.175V292.372C157.483 295.758 160.869 308.168 160.869 308.168H116.879C116.879 308.168 111.921 289.213 108.535 278.842C105.149 268.471 104.696 264.845 108.081 263.259C116.13 260.309 124.342 257.826 132.676 255.821C135.806 255.369 138.964 255.137 142.127 255.127Z" fill="#26998D" stroke="#263238" stroke-width="1.29844" stroke-miterlimit="10"/>
<path d="M155.231 270.017C155.231 270.017 157.897 282.441 157.03 286.947C156.164 291.452 150.032 308.622 150.032 308.622" stroke="#263238" stroke-width="1.29844" stroke-linecap="round" stroke-linejoin="round"/>
<path d="M108.055 263.245C108.055 263.245 104.056 263.925 105.122 269.124C106.189 274.323 101.057 307.928 101.057 307.928H110.988C110.988 307.928 117.759 290.093 118.879 285.814C119.999 281.535 120.919 278.135 118.879 274.523" fill="#26998D"/>
<path d="M108.055 263.245C108.055 263.245 104.056 263.925 105.122 269.124C106.189 274.323 101.057 307.928 101.057 307.928H110.988C110.988 307.928 117.759 290.093 118.879 285.814C119.999 281.535 120.919 278.135 118.879 274.523" stroke="#263238" stroke-width="1.29844" stroke-miterlimit="10"/>
<path d="M150.112 233.146L151.592 279.122H138.248V237.105L150.112 233.146Z" fill="#263238" stroke="#263238" stroke-width="1.29844" stroke-linecap="round" stroke-linejoin="round"/>
<path d="M132.875 266.191C132.875 266.191 136.714 283.521 138.3 288.76C139.887 293.998 140.1 306.089 139.633 307.715C139.167 309.341 145.272 307.715 145.272 307.715C145.272 307.715 146.858 295.718 147.765 288.76C148.671 281.801 145.952 268.671 145.952 268.671L143.019 257.154L131.955 259.193L132.875 266.191Z" fill="white" stroke="#263238" stroke-width="1.29844" stroke-linecap="round" stroke-linejoin="round"/>
<path d="M142.54 247.223C141.911 250.815 141.987 254.497 142.766 258.06C144.099 263.032 147.739 272.057 144.579 274.536C141.42 277.016 137.128 275.669 134.875 271.15C132.622 266.631 130.583 255.354 130.583 246.103C130.583 236.852 131.489 235.265 134.648 235.265C137.808 235.265 142.54 247.223 142.54 247.223Z" fill="white" stroke="#263238" stroke-width="1.29844" stroke-linecap="round" stroke-linejoin="round"/>
<path d="M136.035 242.944C134.005 244.708 131.618 246.013 129.036 246.769C125.65 247.449 123.851 238.425 123.398 229.44C122.944 220.455 125.211 215.443 129.943 213.19C134.675 210.938 146.192 212.057 150.711 213.857C155.23 215.657 160.642 218.603 160.642 223.335C160.642 228.067 154.537 231.946 152.737 233.012C150.938 234.079 146.646 235.679 143.94 238.425C141.601 240.399 138.923 241.931 136.035 242.944Z" fill="#263238" stroke="#263238" stroke-width="1.29844" stroke-linecap="round" stroke-linejoin="round"/>
<path d="M136.035 242.944C136.035 242.944 138.701 249.715 143.713 249.929C148.726 250.142 154.378 238.651 154.551 233.679C154.724 228.707 149.579 220.135 149.579 220.135C149.579 220.135 140.781 240.224 136.035 242.944Z" fill="white" stroke="#263238" stroke-width="1.29844" stroke-linecap="round" stroke-linejoin="round"/>
<path d="M134.688 232.786L135.128 281.535H120.011L123.397 224.881" fill="#263238"/>
<path d="M134.688 232.786L135.128 281.535H120.011L123.397 224.881" stroke="#263238" stroke-width="1.29844" stroke-linecap="round" stroke-linejoin="round"/>
</svg>
