<svg width="699" height="910" viewBox="0 0 699 910" fill="none" xmlns="http://www.w3.org/2000/svg">
<path d="M809.851 111.113C774.828 70.5265 738.471 31.7904 700.915 -4.94844C643.913 -60.8032 578.731 -108.755 509.574 -128.491C349.142 -174.27 218.19 -83.6025 163.006 59.2155C107.822 202.033 237.244 310.093 258.412 419.64C279.58 529.187 222.451 546.022 264.238 700.808C306.025 855.594 501.477 883.594 612.613 798.094C723.748 712.594 699.669 643.334 804.55 599.354C909.432 555.373 957.166 489.063 920.286 323.216C907.336 264.944 885.581 204.477 848.663 158.03C836.151 142.283 823.152 126.586 809.851 111.113Z" fill="#E0ECEB"/>
</svg>
