<svg width="368" height="323" viewBox="0 0 368 323" fill="none" xmlns="http://www.w3.org/2000/svg">
<path d="M197.612 311.784V303.647H170.376V311.784C170.378 314.442 169.361 317.023 167.489 319.107L166.29 320.441H201.698L200.509 319.107C198.63 317.026 197.609 314.444 197.612 311.784Z" fill="white" stroke="#263238" stroke-width="0.875906" stroke-linecap="round" stroke-linejoin="round"/>
<g style="mix-blend-mode:multiply">
<path d="M168.71 317.496H199.29C198.188 315.749 197.611 313.783 197.614 311.784V303.647H170.377V311.784C170.378 313.782 169.805 315.747 168.71 317.496Z" fill="#72C1B8"/>
</g>
<path d="M197.613 304.873H170.376V308.311H197.613V304.873Z" fill="#263238" stroke="#263238" stroke-width="0.959494" stroke-linecap="round" stroke-linejoin="round"/>
<path d="M229.282 233.899H138.709C133.495 233.899 129.268 237.622 129.268 242.216V297.899C129.268 302.493 133.495 306.216 138.709 306.216H229.282C234.496 306.216 238.723 302.493 238.723 297.899V242.216C238.723 237.622 234.496 233.899 229.282 233.899Z" fill="#263238" stroke="#263238" stroke-width="0.959494" stroke-linecap="round" stroke-linejoin="round"/>
<path d="M129.268 294.972H238.723V297.935C238.723 299.027 238.479 300.109 238.004 301.118C237.53 302.127 236.835 303.044 235.958 303.816C235.081 304.588 234.04 305.201 232.895 305.619C231.749 306.037 230.522 306.252 229.282 306.252H138.709C137.469 306.252 136.241 306.037 135.096 305.619C133.95 305.201 132.91 304.588 132.033 303.816C131.156 303.044 130.461 302.127 129.986 301.118C129.512 300.109 129.268 299.027 129.268 297.935V295.017V294.972Z" fill="white" stroke="#263238" stroke-width="0.875906" stroke-linecap="round" stroke-linejoin="round"/>
<path d="M233.225 238.393H134.776V289.484H233.225V238.393Z" fill="#72C1B8" stroke="#263238" stroke-width="0.959494" stroke-linecap="round" stroke-linejoin="round"/>
<path d="M186.018 300.621C186.018 300.267 185.899 299.921 185.675 299.626C185.452 299.332 185.134 299.102 184.763 298.967C184.392 298.831 183.983 298.796 183.589 298.865C183.194 298.934 182.832 299.104 182.548 299.355C182.264 299.605 182.07 299.924 181.992 300.272C181.913 300.619 181.954 300.979 182.107 301.306C182.261 301.633 182.522 301.913 182.856 302.11C183.19 302.306 183.583 302.411 183.985 302.411C184.524 302.411 185.041 302.223 185.422 301.887C185.804 301.551 186.018 301.096 186.018 300.621Z" fill="#263238" stroke="#263238" stroke-width="0.959494" stroke-linecap="round" stroke-linejoin="round"/>
<path d="M201.698 320.441H166.29V321.892H201.698V320.441Z" fill="white" stroke="#263238" stroke-width="0.875906" stroke-linecap="round" stroke-linejoin="round"/>
<path d="M171.515 237.587C171.515 237.587 166.728 236.414 163.262 238.76C159.797 241.106 159.543 247.193 161.667 250.246C163.791 253.299 166.748 255.161 162.998 257.273C159.248 259.386 156.616 260.792 157.144 264.534C157.673 268.276 161.667 273.209 168.049 273.441C174.431 273.674 182.155 268.759 182.155 263.37C182.155 257.981 177.633 254.462 179.228 251.419C180.824 248.375 185.611 244.382 181.891 240.166C178.171 235.949 171.515 237.587 171.515 237.587Z" fill="#263238" stroke="#263238" stroke-width="0.875906" stroke-linecap="round" stroke-linejoin="round"/>
<path d="M218.387 288.705L207.574 268.446H158.751L149.604 288.705H218.387Z" fill="white" stroke="#263238" stroke-width="0.875906" stroke-linecap="round" stroke-linejoin="round"/>
<path d="M200.154 288.705L207.573 268.446L183.07 256.692L158.75 268.446L164.523 288.705H200.154Z" fill="white" stroke="#263238" stroke-width="0.875906" stroke-linecap="round" stroke-linejoin="round"/>
<path d="M178.873 258.715L171.912 262.126C170.631 265.178 169.483 269.861 172.928 272.546C175.062 274.247 183.294 268.804 183.294 268.804C183.294 268.804 189.148 274.426 193.935 272.546C197.33 271.221 195.785 265.913 193.742 261.803L186.15 258.169L178.873 258.715Z" fill="white" stroke="#263238" stroke-width="0.875906" stroke-linecap="round" stroke-linejoin="round"/>
<path d="M176.363 251.204V260.156L178.954 266.817C179.214 267.491 179.708 268.077 180.367 268.489C181.026 268.902 181.816 269.121 182.625 269.115C183.433 269.109 184.219 268.878 184.87 268.456C185.521 268.034 186.005 267.441 186.251 266.763L188.741 260.022V250.685L176.363 251.204Z" fill="white" stroke="#263238" stroke-width="0.875906" stroke-linecap="round" stroke-linejoin="round"/>
<path d="M173.69 241.097C173.69 241.097 171.119 237.077 169.696 239.306C168.273 241.535 170.265 246.334 171.119 247.587C171.972 248.84 173.405 246.835 173.405 246.835" fill="white"/>
<path d="M173.69 241.097C173.69 241.097 171.119 237.077 169.696 239.306C168.273 241.535 170.265 246.334 171.119 247.587C171.972 248.84 173.405 246.835 173.405 246.835" stroke="#263238" stroke-width="0.875906" stroke-linecap="round" stroke-linejoin="round"/>
<path d="M192.044 241.097C192.044 241.097 194.615 237.077 196.038 239.306C197.461 241.535 195.469 246.334 194.615 247.587C193.761 248.84 192.329 246.835 192.329 246.835" fill="white"/>
<path d="M192.044 241.097C192.044 241.097 194.615 237.077 196.038 239.306C197.461 241.535 195.469 246.334 194.615 247.587C193.761 248.84 192.329 246.835 192.329 246.835" stroke="#263238" stroke-width="0.875906" stroke-linecap="round" stroke-linejoin="round"/>
<path d="M193.335 240.345C193.335 247.408 188.619 257.148 182.796 257.148C176.972 257.148 172.257 247.408 172.257 240.345C172.257 233.281 176.983 227.543 182.796 227.543C188.609 227.543 193.335 233.272 193.335 240.345Z" fill="white" stroke="#263238" stroke-width="0.875906" stroke-linecap="round" stroke-linejoin="round"/>
<path d="M178.72 234.776C178.72 234.776 180.854 230.56 184.31 234.776C187.765 238.993 186.169 242.046 189.096 242.977C189.847 243.269 190.693 243.312 191.476 243.096C192.259 242.88 192.927 242.421 193.355 241.804C193.355 241.804 201.607 236.889 193.355 228.921C191.744 227.38 189.76 226.178 187.551 225.403C185.341 224.628 182.962 224.301 180.59 224.445C176.332 224.687 175.803 229.369 175.803 229.369C175.803 229.369 172.602 228.671 171.281 231.947C169.959 235.224 172.602 244.364 172.602 242.028C172.602 239.691 176.067 232.431 178.72 234.776Z" fill="#263238" stroke="#263238" stroke-width="0.875906" stroke-linecap="round" stroke-linejoin="round"/>
<path d="M325.891 197.937V189.791H298.654V197.937C298.656 200.596 297.635 203.178 295.757 205.26L294.568 206.621H329.976L328.777 205.296C326.898 203.201 325.881 200.607 325.891 197.937Z" fill="white" stroke="#263238" stroke-width="0.875906" stroke-linecap="round" stroke-linejoin="round"/>
<g style="mix-blend-mode:multiply">
<path d="M296.977 203.64H327.558C326.464 201.893 325.891 199.932 325.891 197.937V189.791H298.654V197.937C298.655 199.933 298.078 201.896 296.977 203.64Z" fill="#72C1B8"/>
</g>
<path d="M325.891 191.017H298.654V194.455H325.891V191.017Z" fill="#263238" stroke="#263238" stroke-width="0.959494" stroke-linecap="round" stroke-linejoin="round"/>
<path d="M357.559 120.043H266.986C261.772 120.043 257.544 123.766 257.544 128.359V184.043C257.544 188.636 261.772 192.36 266.986 192.36H357.559C362.773 192.36 367 188.636 367 184.043V128.359C367 123.766 362.773 120.043 357.559 120.043Z" fill="#263238" stroke="#263238" stroke-width="0.959494" stroke-linecap="round" stroke-linejoin="round"/>
<path d="M257.544 181.116H367V184.034C367 185.126 366.756 186.208 366.281 187.217C365.807 188.226 365.111 189.143 364.235 189.915C363.358 190.687 362.317 191.3 361.172 191.718C360.026 192.136 358.798 192.351 357.559 192.351H266.986C265.746 192.351 264.518 192.136 263.373 191.718C262.227 191.3 261.186 190.687 260.31 189.915C259.433 189.143 258.738 188.226 258.263 187.217C257.789 186.208 257.544 185.126 257.544 184.034V181.116Z" fill="white" stroke="#263238" stroke-width="0.875906" stroke-linecap="round" stroke-linejoin="round"/>
<path d="M361.492 124.546H263.043V175.637H361.492V124.546Z" fill="#72C1B8" stroke="#263238" stroke-width="0.959494" stroke-linecap="round" stroke-linejoin="round"/>
<path d="M314.284 186.738C314.284 186.384 314.165 186.038 313.942 185.743C313.719 185.449 313.401 185.219 313.03 185.084C312.658 184.948 312.25 184.913 311.855 184.982C311.461 185.051 311.099 185.221 310.815 185.472C310.53 185.722 310.337 186.041 310.258 186.388C310.18 186.736 310.22 187.096 310.374 187.423C310.528 187.75 310.788 188.03 311.123 188.227C311.457 188.423 311.85 188.528 312.252 188.528C312.791 188.528 313.308 188.34 313.689 188.004C314.07 187.668 314.284 187.213 314.284 186.738Z" fill="#263238" stroke="#263238" stroke-width="0.959494" stroke-linecap="round" stroke-linejoin="round"/>
<path d="M329.976 206.585H294.568V208.035H329.976V206.585Z" fill="white" stroke="#263238" stroke-width="0.875906" stroke-linecap="round" stroke-linejoin="round"/>
<path d="M346.471 175.27L335.84 155.36H287.017L278.043 175.27H346.471Z" fill="white" stroke="#263238" stroke-width="0.875906" stroke-linecap="round" stroke-linejoin="round"/>
<path d="M335.841 175.27V155.36L316.937 145.808L311.338 143.605L305.037 145.808L287.018 155.36V175.27H335.841Z" fill="white" stroke="#263238" stroke-width="0.875906" stroke-linecap="round" stroke-linejoin="round"/>
<path d="M306.938 158.278L310.271 162.898L308.604 175.064H314.56L311.704 162.898L315.515 158.072L310.515 153.032L306.938 158.278Z" fill="#263238" stroke="#263238" stroke-width="0.875906" stroke-linecap="round" stroke-linejoin="round"/>
<path d="M310.972 157.016L305.748 160.588L301.937 147.786L305.037 145.808H316.938L319.56 147.374L317.415 160.794L310.972 157.016Z" fill="white" stroke="#263238" stroke-width="0.875906" stroke-linecap="round" stroke-linejoin="round"/>
<path d="M304.629 138.118V147.079L310.971 157.016L317.018 146.954V137.598L304.629 138.118Z" fill="white" stroke="#263238" stroke-width="0.875906" stroke-linecap="round" stroke-linejoin="round"/>
<path d="M301.957 128.01C301.957 128.01 299.395 123.991 297.973 126.22C296.55 128.449 298.542 133.239 299.395 134.501C300.249 135.763 301.672 133.749 301.672 133.749" fill="white"/>
<path d="M301.957 128.01C301.957 128.01 299.395 123.991 297.973 126.22C296.55 128.449 298.542 133.239 299.395 134.501C300.249 135.763 301.672 133.749 301.672 133.749" stroke="#263238" stroke-width="0.875906" stroke-linecap="round" stroke-linejoin="round"/>
<path d="M320.321 128.01C320.321 128.01 322.882 123.991 324.305 126.22C325.728 128.449 323.736 133.239 322.882 134.501C322.029 135.763 320.606 133.749 320.606 133.749" fill="white"/>
<path d="M320.321 128.01C320.321 128.01 322.882 123.991 324.305 126.22C325.728 128.449 323.736 133.239 322.882 134.501C322.029 135.763 320.606 133.749 320.606 133.749" stroke="#263238" stroke-width="0.875906" stroke-linecap="round" stroke-linejoin="round"/>
<path d="M321.613 127.258C321.613 134.322 316.897 144.071 311.074 144.071C305.25 144.071 300.585 134.322 300.585 127.258C300.585 120.195 305.301 114.456 311.124 114.456C316.948 114.456 321.613 120.186 321.613 127.258Z" fill="white" stroke="#263238" stroke-width="0.875906" stroke-linecap="round" stroke-linejoin="round"/>
<path d="M298.37 165.619L305.87 175.27H316.49L324.326 168.135L319.326 162.683L325.515 162.262L324.804 150.096L319.56 147.374L310.748 175.064L301.937 147.786L297.648 150.096L295.981 161.009L301.226 161.841L298.37 165.619Z" fill="white" stroke="#263238" stroke-width="0.875906" stroke-linecap="round" stroke-linejoin="round"/>
<path d="M300.514 129.12C300.514 129.12 302.872 129.389 302.415 128.7C301.957 128.01 302.415 125.557 302.415 125.557C302.958 125.175 303.37 124.666 303.604 124.089C304.081 123.042 302.892 121.565 302.892 120.311C302.892 119.058 310.271 121.565 311.46 121.565C312.649 121.565 319.326 120.096 319.326 120.096C319.326 120.096 318.127 123.874 318.848 124.295C319.57 124.716 320.037 126.605 320.037 126.605C320.037 126.605 319.326 129.962 319.56 130.589C319.793 131.215 321.226 131.636 321.47 131.009C321.714 130.383 321.704 124.922 321.704 124.922C321.704 124.922 323.371 125.137 323.371 122.236C323.371 119.335 321.47 112.791 318.127 111.538C314.783 110.285 307.181 110.276 304.081 111.744C300.982 113.212 298.837 119.926 299.559 122.236C300.081 124.505 300.401 126.807 300.514 129.12Z" fill="#263238" stroke="#263238" stroke-width="0.875906" stroke-linecap="round" stroke-linejoin="round"/>
<path d="M197.612 86.8384V78.6918H170.376V86.8384C170.376 89.4931 169.359 92.0702 167.489 94.1525L166.29 95.4864H201.698L200.509 94.1525C198.632 92.0731 197.611 89.4948 197.612 86.8384Z" fill="white" stroke="#263238" stroke-width="0.875906" stroke-linecap="round" stroke-linejoin="round"/>
<g style="mix-blend-mode:multiply">
<path d="M168.71 92.5411H199.29C198.189 90.797 197.612 88.8341 197.614 86.8384V78.6918H170.377V86.8384C170.377 88.8328 169.803 90.7947 168.71 92.5411Z" fill="#72C1B8"/>
</g>
<path d="M197.613 79.9182H170.376V83.3559H197.613V79.9182Z" fill="#263238" stroke="#263238" stroke-width="0.959494" stroke-linecap="round" stroke-linejoin="round"/>
<path d="M229.282 8.94385H138.709C133.495 8.94385 129.268 12.6674 129.268 17.2606V72.9443C129.268 77.5375 133.495 81.261 138.709 81.261H229.282C234.496 81.261 238.723 77.5375 238.723 72.9443V17.2606C238.723 12.6674 234.496 8.94385 229.282 8.94385Z" fill="#263238" stroke="#263238" stroke-width="0.959494" stroke-linecap="round" stroke-linejoin="round"/>
<path d="M129.268 70.0168H238.723V72.9353C238.723 75.141 237.728 77.2565 235.958 78.8161C234.187 80.3758 231.786 81.2521 229.282 81.2521H138.709C136.205 81.2521 133.804 80.3758 132.033 78.8161C130.262 77.2565 129.268 75.141 129.268 72.9353V70.0168Z" fill="white" stroke="#263238" stroke-width="0.875906" stroke-linecap="round" stroke-linejoin="round"/>
<path d="M233.225 13.438H134.776V64.5291H233.225V13.438Z" fill="#72C1B8" stroke="#263238" stroke-width="0.959494" stroke-linecap="round" stroke-linejoin="round"/>
<path d="M183.995 77.4205C185.112 77.4205 186.017 76.6229 186.017 75.6389C186.017 74.655 185.112 73.8574 183.995 73.8574C182.878 73.8574 181.972 74.655 181.972 75.6389C181.972 76.6229 182.878 77.4205 183.995 77.4205Z" fill="#263238" stroke="#263238" stroke-width="0.959494" stroke-linecap="round" stroke-linejoin="round"/>
<path d="M201.698 95.4863H166.29V96.9366H201.698V95.4863Z" fill="white" stroke="#263238" stroke-width="0.875906" stroke-linecap="round" stroke-linejoin="round"/>
<path d="M218.387 64.3053L207.574 44.0461H158.751L149.604 64.3053H218.387Z" fill="white" stroke="#263238" stroke-width="0.875906" stroke-linecap="round" stroke-linejoin="round"/>
<path d="M166.728 18.7019C166.728 18.7019 164.97 25.9265 166.728 28.8718C168.486 31.8171 170.966 35.3444 169.625 37.8958C168.283 40.4472 166.952 41.0291 166.505 45.9529C166.057 50.8767 174.97 60.6616 185.215 59.6769C195.459 58.6921 201.476 51.2438 199.687 45.1651C197.898 39.0864 195.012 38.2986 195.896 34.4223C196.78 30.5459 199.016 27.9497 197.929 22.6589C196.841 17.368 191.475 8.72898 185.022 6.76841C178.568 4.80784 174.503 7.55622 172.104 11.2446C169.706 14.933 167.155 17.1711 166.728 18.7019Z" fill="#263238" stroke="#263238" stroke-width="0.875906" stroke-linecap="round" stroke-linejoin="round"/>
<path d="M200.154 64.3053L207.573 44.0461L183.07 32.2916L158.75 44.0461L164.523 64.3053H200.154Z" fill="white" stroke="#263238" stroke-width="0.875906" stroke-linecap="round" stroke-linejoin="round"/>
<path d="M173.517 36.911L170.976 43.7775L176.769 45.1472L171.647 48.4865L182.338 57.6984L192.359 49.4623L187.46 45.3442L194.361 43.7775L192.552 36.8484L183.07 32.2916L173.517 36.911Z" fill="white" stroke="#263238" stroke-width="0.875906" stroke-linecap="round" stroke-linejoin="round"/>
<path d="M176.363 26.8038V35.7651L182.694 52.0136L188.741 35.6308V26.2845L176.363 26.8038Z" fill="white" stroke="#263238" stroke-width="0.875906" stroke-linecap="round" stroke-linejoin="round"/>
<path d="M173.69 16.6966C173.69 16.6966 171.119 12.677 169.696 14.9061C168.273 17.1353 170.265 21.9248 171.119 23.1871C171.972 24.4494 173.405 22.4261 173.405 22.4261" fill="white"/>
<path d="M173.69 16.6966C173.69 16.6966 171.119 12.677 169.696 14.9061C168.273 17.1353 170.265 21.9248 171.119 23.1871C171.972 24.4494 173.405 22.4261 173.405 22.4261" stroke="#263238" stroke-width="0.875906" stroke-linecap="round" stroke-linejoin="round"/>
<path d="M192.044 16.6966C192.044 16.6966 194.615 12.677 196.038 14.9061C197.461 17.1353 195.469 21.9248 194.615 23.1871C193.761 24.4494 192.329 22.4261 192.329 22.4261" fill="white"/>
<path d="M192.044 16.6966C192.044 16.6966 194.615 12.677 196.038 14.9061C197.461 17.1353 195.469 21.9248 194.615 23.1871C193.761 24.4494 192.329 22.4261 192.329 22.4261" stroke="#263238" stroke-width="0.875906" stroke-linecap="round" stroke-linejoin="round"/>
<path d="M193.335 15.9356C193.335 22.999 188.619 32.7482 182.796 32.7482C176.972 32.7482 172.257 23.008 172.257 15.9356C172.257 8.86324 176.983 3.13373 182.796 3.13373C188.609 3.13373 193.335 8.8722 193.335 15.9356Z" fill="white" stroke="#263238" stroke-width="0.875906" stroke-linecap="round" stroke-linejoin="round"/>
<path d="M180.773 6.70579C180.773 4.62884 180.061 1.83571 176.789 2.80256C172.937 3.95742 170.396 11.2088 168.536 14.1631C167.583 15.5494 166.967 17.095 166.727 18.702C165.813 23.7153 170.538 27.8871 170.538 27.8871C170.538 27.8871 169.421 22.5962 170.091 19.0601C170.467 17.0905 171.595 16.3743 173.567 15.6671C178.079 14.1452 180.773 11.2088 180.773 6.70579Z" fill="#263238" stroke="#263238" stroke-width="0.875906" stroke-linecap="round" stroke-linejoin="round"/>
<path d="M201.211 16.5623C199.773 14.4302 197.985 12.4965 195.906 10.8238C193.457 8.66632 192.125 3.37547 186.556 1.6029C180.987 -0.169669 178.537 2.19376 178.761 5.72994C178.796 6.29545 178.877 6.85798 179.005 7.41299C179 7.43968 179 7.46686 179.005 7.49356C179.005 7.49356 179.005 7.58308 179.107 7.75318C179.272 8.69885 179.787 9.57024 180.57 10.233L180.712 10.3225C181.853 11.7719 183.146 13.1237 184.574 14.36C189.249 18.4781 195.042 22.2023 195.266 26.5173C195.439 30.0446 194.006 32.784 193.233 36.3649H193.04C192.599 38.2807 191.691 40.089 190.377 41.6647C188.345 43.8222 188.142 45.3889 192.827 45.5859C199.087 45.8455 202.207 38.5314 203.071 34.091C203.928 29.983 203.962 25.7746 203.173 21.6562C202.83 19.8773 202.168 18.1579 201.211 16.5623Z" fill="#263238" stroke="#263238" stroke-width="0.875906" stroke-linecap="round" stroke-linejoin="round"/>
<path d="M69.3463 197.937V189.791H42.1095V197.937C42.1066 200.596 41.0861 203.176 39.213 205.26L38.0239 206.621H73.4217L72.2326 205.296C70.3537 203.201 69.3363 200.607 69.3463 197.937Z" fill="white" stroke="#263238" stroke-width="0.875906" stroke-linecap="round" stroke-linejoin="round"/>
<g style="mix-blend-mode:multiply">
<path d="M40.4121 203.64H70.9926C69.8992 201.893 69.3258 199.932 69.3259 197.937V189.791H42.089V197.937C42.0855 199.932 41.5086 201.894 40.4121 203.64Z" fill="#72C1B8"/>
</g>
<path d="M69.3467 191.017H42.1099V194.455H69.3467V191.017Z" fill="#263238" stroke="#263238" stroke-width="0.959494" stroke-linecap="round" stroke-linejoin="round"/>
<path d="M101.014 120.043H10.4414C5.22707 120.043 1 123.766 1 128.359V184.043C1 188.636 5.22707 192.36 10.4414 192.36H101.014C106.228 192.36 110.456 188.636 110.456 184.043V128.359C110.456 123.766 106.228 120.043 101.014 120.043Z" fill="#263238" stroke="#263238" stroke-width="0.959494" stroke-linecap="round" stroke-linejoin="round"/>
<path d="M1 181.116H110.456V184.034C110.456 185.126 110.211 186.208 109.737 187.217C109.262 188.226 108.567 189.143 107.69 189.915C106.814 190.687 105.773 191.3 104.627 191.718C103.482 192.136 102.254 192.351 101.014 192.351H10.4414C9.20157 192.351 7.97384 192.136 6.82835 191.718C5.68286 191.3 4.64205 190.687 3.76533 189.915C2.88861 189.143 2.19316 188.226 1.71869 187.217C1.24421 186.208 1 185.126 1 184.034V181.116Z" fill="white" stroke="#263238" stroke-width="0.875906" stroke-linecap="round" stroke-linejoin="round"/>
<path d="M104.947 124.546H6.49805V175.637H104.947V124.546Z" fill="#72C1B8" stroke="#263238" stroke-width="0.959494" stroke-linecap="round" stroke-linejoin="round"/>
<path d="M57.7395 186.738C57.7395 186.384 57.6203 186.038 57.397 185.743C57.1736 185.449 56.8562 185.219 56.4848 185.084C56.1134 184.948 55.7047 184.913 55.3104 184.982C54.9161 185.051 54.5539 185.221 54.2697 185.472C53.9854 185.722 53.7918 186.041 53.7134 186.388C53.6349 186.736 53.6752 187.096 53.829 187.423C53.9829 187.75 54.2434 188.03 54.5777 188.227C54.9119 188.423 55.3049 188.528 55.7069 188.528C56.246 188.528 56.763 188.34 57.1442 188.004C57.5254 187.668 57.7395 187.213 57.7395 186.738Z" fill="#263238" stroke="#263238" stroke-width="0.959494" stroke-linecap="round" stroke-linejoin="round"/>
<path d="M73.4318 206.585H38.0239V208.035H73.4318V206.585Z" fill="white" stroke="#263238" stroke-width="0.875906" stroke-linecap="round" stroke-linejoin="round"/>
<path d="M90.1095 175.413L79.296 155.145H30.473L21.3364 175.413H90.1095Z" fill="white" stroke="#263238" stroke-width="0.875906" stroke-linecap="round" stroke-linejoin="round"/>
<path d="M79.2952 175.413V155.145L63.4816 145.602L54.7922 143.39L46.1029 145.602L30.4722 155.145V175.413H79.2952Z" fill="white" stroke="#263238" stroke-width="0.875906" stroke-linecap="round" stroke-linejoin="round"/>
<path d="M49.5589 141.618C49.5589 141.618 46.0831 142.513 45.3819 143.149C44.6806 143.784 44.1623 146.98 43.4712 148.663C42.7802 150.346 40.5138 153.256 41.2151 153.408C41.9163 153.56 47.821 150.955 47.821 150.955L54.5997 157.723L61.0329 150.651C61.0329 150.651 66.1144 154.026 66.4193 153.56C66.7242 153.095 64.1631 147.589 63.9903 145.288C63.8176 142.988 59.9861 142.227 57.7299 142.074C55.4737 141.922 49.5589 141.618 49.5589 141.618Z" fill="white" stroke="#263238" stroke-width="0.875906" stroke-linecap="round" stroke-linejoin="round"/>
<path d="M48.085 137.912V146.864L54.4267 157.15L60.4737 146.739V137.383L48.085 137.912Z" fill="white" stroke="#263238" stroke-width="0.875906" stroke-linecap="round" stroke-linejoin="round"/>
<path d="M45.4121 127.84C45.4121 127.84 42.851 123.83 41.4282 126.05C40.0053 128.27 41.9973 133.077 42.851 134.331C43.7047 135.584 45.1275 133.579 45.1275 133.579" fill="white"/>
<path d="M45.4121 127.84C45.4121 127.84 42.851 123.83 41.4282 126.05C40.0053 128.27 41.9973 133.077 42.851 134.331C43.7047 135.584 45.1275 133.579 45.1275 133.579" stroke="#263238" stroke-width="0.875906" stroke-linecap="round" stroke-linejoin="round"/>
<path d="M63.7871 127.84C63.7871 127.84 66.3482 123.83 67.771 126.05C69.1938 128.27 67.2019 133.077 66.3482 134.331C65.4945 135.584 64.0717 133.579 64.0717 133.579" fill="white"/>
<path d="M63.7871 127.84C63.7871 127.84 66.3482 123.83 67.771 126.05C69.1938 128.27 67.2019 133.077 66.3482 134.331C65.4945 135.584 64.0717 133.579 64.0717 133.579" stroke="#263238" stroke-width="0.875906" stroke-linecap="round" stroke-linejoin="round"/>
<path d="M65.0673 127.043C65.0673 134.107 60.3517 143.856 54.5283 143.856C48.7049 143.856 43.9893 134.107 43.9893 127.043C43.9893 119.98 48.7049 114.251 54.5283 114.251C60.3517 114.251 65.0673 119.98 65.0673 127.043Z" fill="white" stroke="#263238" stroke-width="0.875906" stroke-linecap="round" stroke-linejoin="round"/>
<path d="M62.8313 123.498C62.8313 123.498 62.0894 125.289 62.9736 126.095C63.8578 126.9 63.7155 128.037 63.5631 129.595C63.4106 131.153 63.8578 132.066 64.4473 131.547C65.0367 131.027 65.6262 123.758 65.6262 123.239C65.6262 122.719 62.8313 123.498 62.8313 123.498Z" fill="#263238" stroke="#263238" stroke-width="0.875906" stroke-linecap="round" stroke-linejoin="round"/>
<path d="M44.1119 125.96L44.4066 129.989C44.5226 130.025 44.6457 130.04 44.7685 130.034C44.8914 130.027 45.0114 129.999 45.1215 129.95C45.2315 129.902 45.3294 129.834 45.4091 129.751C45.4889 129.669 45.5489 129.573 45.5855 129.47C45.8803 128.691 45.1384 126.22 45.8803 124.922C46.6222 123.624 49.417 122.979 49.5593 122.066C49.7016 121.153 48.0856 119.47 48.0856 118.825C48.0856 118.181 48.5328 117.527 52.2118 120.616C55.8908 123.704 62.6797 124.376 66.2164 123.597C69.7532 122.818 65.4847 118.145 64.6005 117.106C63.7163 116.068 66.9583 116.847 65.19 114.251C63.4216 111.654 57.2222 109.962 51.0329 111.914C44.8436 113.866 41.3069 116.587 42.1911 119.318C43.0753 122.048 44.1119 125.96 44.1119 125.96Z" fill="#263238" stroke="#263238" stroke-width="0.875906" stroke-linecap="round" stroke-linejoin="round"/>
<path d="M184.411 192.172V220.291" stroke="#263238" stroke-width="1.75181" stroke-miterlimit="10"/>
<path d="M179.239 218.957L184.412 226.835L189.575 218.957H179.239Z" fill="#263238"/>
<path d="M184.411 131.967V103.848" stroke="#263238" stroke-width="1.75181" stroke-miterlimit="10"/>
<path d="M189.575 105.182L184.412 97.3036L179.239 105.182H189.575Z" fill="#263238"/>
<path d="M147 162L118 161.665" stroke="#263238" stroke-width="1.75181" stroke-miterlimit="10"/>
<path d="M119.836 157.517L110.882 162.074L119.836 166.622V157.517Z" fill="#263238"/>
<path d="M128.86 91.5742L105.516 112.138" stroke="#263238" stroke-width="1.75181" stroke-miterlimit="10"/>
<path d="M124.134 89.2913L134.114 86.9368L131.441 95.737L124.134 89.2913Z" fill="#263238"/>
<path d="M102.925 107.975L100.252 116.775L110.242 114.421L102.925 107.975Z" fill="#263238"/>
<path d="M241.568 91.5742L264.913 112.138" stroke="#263238" stroke-width="1.75181" stroke-miterlimit="10"/>
<path d="M238.977 95.737L236.304 86.9368L246.284 89.3003L238.977 95.737Z" fill="#263238"/>
<path d="M260.187 114.421L270.167 116.775L267.494 107.975L260.187 114.421Z" fill="#263238"/>
<path d="M128.86 228.635L105.516 208.071" stroke="#263238" stroke-width="1.75181" stroke-miterlimit="10"/>
<path d="M131.441 224.481L134.125 233.272L124.134 230.918L131.441 224.481Z" fill="#263238"/>
<path d="M110.242 205.797L100.252 203.443L102.925 212.234L110.242 205.797Z" fill="#263238"/>
<path d="M241.568 228.635L264.913 208.071" stroke="#263238" stroke-width="1.75181" stroke-miterlimit="10"/>
<path d="M246.284 230.918L236.304 233.272L238.977 224.481L246.284 230.918Z" fill="#263238"/>
<path d="M267.494 212.234L270.167 203.443L260.187 205.797L267.494 212.234Z" fill="#263238"/>
<path d="M222 162L251 161.665" stroke="#263238" stroke-width="1.75181" stroke-miterlimit="10"/>
<path d="M248.987 166.622L257.941 162.074L248.987 157.517V166.622Z" fill="#263238"/>
<path opacity="0.3" d="M239.756 161.248C240.645 156.514 240.117 151.624 238.238 147.19C236.359 142.755 233.212 138.974 229.193 136.32C225.174 133.667 220.461 132.258 215.645 132.272C210.829 132.285 206.124 133.72 202.12 136.397C199.204 129.342 193.933 123.516 187.205 119.912C180.476 116.307 172.706 115.146 165.217 116.627C157.729 118.108 150.986 122.139 146.136 128.034C141.286 133.928 138.629 141.322 138.618 148.955C138.618 149.363 138.618 149.761 138.618 150.168C133.873 151.514 129.736 154.451 126.901 158.487C124.067 162.523 122.708 167.412 123.053 172.331C123.397 177.251 125.425 181.903 128.794 185.504C132.164 189.105 136.67 191.437 141.556 192.108V192.335H238.704C242.735 192.327 246.605 190.755 249.5 187.95C252.395 185.146 254.089 181.327 254.225 177.299C254.361 173.271 252.93 169.347 250.231 166.353C247.532 163.359 243.777 161.529 239.756 161.248Z" fill="#BBDDDA"/>
<path d="M185.012 186C180.067 186.002 175.232 184.538 171.119 181.792C167.006 179.047 163.8 175.143 161.906 170.575C160.012 166.007 159.516 160.98 160.479 156.13C161.442 151.28 163.822 146.824 167.318 143.326C170.814 139.829 175.269 137.447 180.119 136.481C184.968 135.516 189.996 136.01 194.564 137.902C199.133 139.794 203.038 142.998 205.786 147.11C208.534 151.221 210 156.055 210 161C209.991 167.626 207.356 173.977 202.672 178.663C197.988 183.35 191.637 185.988 185.012 186ZM185.012 137.165C180.294 137.162 175.682 138.559 171.759 141.179C167.835 143.798 164.777 147.523 162.971 151.88C161.164 156.238 160.691 161.034 161.611 165.661C162.531 170.288 164.802 174.538 168.138 177.874C171.473 181.21 175.724 183.481 180.351 184.401C184.977 185.321 189.773 184.847 194.131 183.041C198.489 181.235 202.213 178.176 204.833 174.253C207.452 170.33 208.849 165.717 208.847 161C208.838 154.681 206.324 148.624 201.856 144.156C197.388 139.688 191.33 137.174 185.012 137.165Z" fill="#263238"/>
<path d="M185.011 183.82C180.498 183.816 176.089 182.473 172.339 179.963C168.589 177.453 165.668 173.887 163.944 169.717C162.22 165.547 161.772 160.959 162.655 156.534C163.538 152.108 165.713 148.044 168.906 144.855C172.098 141.666 176.164 139.495 180.59 138.616C185.016 137.737 189.604 138.191 193.772 139.919C197.941 141.646 201.504 144.571 204.01 148.324C206.517 152.076 207.855 156.487 207.855 161C207.845 167.053 205.435 172.856 201.152 177.134C196.87 181.413 191.064 183.817 185.011 183.82ZM185.011 139.344C180.726 139.348 176.539 140.623 172.978 143.007C169.418 145.392 166.644 148.778 165.008 152.738C163.372 156.698 162.947 161.055 163.787 165.257C164.626 169.459 166.693 173.317 169.725 176.345C172.757 179.372 176.619 181.433 180.822 182.265C185.026 183.098 189.381 182.666 193.339 181.024C197.297 179.381 200.679 176.603 203.057 173.038C205.435 169.474 206.704 165.285 206.701 161C206.695 155.252 204.407 149.742 200.34 145.681C196.272 141.62 190.759 139.341 185.011 139.344Z" fill="#263238"/>
<path d="M189.468 148V152.868H195L189.468 148Z" fill="#263238"/>
<path d="M188.659 148.06H176V174.453H195V153.556H188.659V148.06ZM190.7 168.667H180.046C179.886 168.667 179.733 168.603 179.619 168.49C179.506 168.377 179.442 168.223 179.442 168.063C179.442 167.903 179.506 167.749 179.619 167.636C179.733 167.523 179.886 167.459 180.046 167.459H190.676C190.836 167.459 190.99 167.523 191.103 167.636C191.216 167.749 191.28 167.903 191.28 168.063C191.28 168.223 191.216 168.377 191.103 168.49C190.99 168.603 190.836 168.667 190.676 168.667H190.7ZM190.7 165.043H180.046C179.886 165.043 179.733 164.98 179.619 164.866C179.506 164.753 179.442 164.599 179.442 164.439C179.442 164.279 179.506 164.125 179.619 164.012C179.733 163.899 179.886 163.835 180.046 163.835H190.676C190.836 163.835 190.99 163.899 191.103 164.012C191.216 164.125 191.28 164.279 191.28 164.439C191.28 164.599 191.216 164.753 191.103 164.866C190.99 164.98 190.836 165.043 190.676 165.043H190.7ZM190.7 161.42H180.046C179.886 161.42 179.733 161.356 179.619 161.243C179.506 161.129 179.442 160.976 179.442 160.816C179.442 160.655 179.506 160.502 179.619 160.389C179.733 160.275 179.886 160.212 180.046 160.212H190.676C190.836 160.212 190.99 160.275 191.103 160.389C191.216 160.502 191.28 160.655 191.28 160.816C191.28 160.976 191.216 161.129 191.103 161.243C190.99 161.356 190.836 161.42 190.676 161.42H190.7ZM190.7 156.588C190.86 156.588 191.014 156.652 191.127 156.765C191.24 156.878 191.304 157.032 191.304 157.192C191.304 157.352 191.24 157.506 191.127 157.619C191.014 157.732 190.86 157.796 190.7 157.796H180.046C179.886 157.796 179.733 157.732 179.619 157.619C179.506 157.506 179.442 157.352 179.442 157.192C179.442 157.032 179.506 156.878 179.619 156.765C179.733 156.652 179.886 156.588 180.046 156.588H190.7Z" fill="#263238"/>
</svg>
