<svg width="563" height="488" viewBox="0 0 563 488" fill="none" xmlns="http://www.w3.org/2000/svg">
<path d="M70.7516 103.313C162.158 -0.694807 319.089 -18.0055 389.049 15.4027C416.233 28.2839 441.378 45.0868 463.68 65.2737C466.602 67.8827 469.441 70.5657 472.198 73.3225C480.806 81.8013 488.879 90.8066 496.371 100.286C505.349 111.627 513.448 123.637 520.595 136.212C530.837 154.107 538.949 173.139 544.768 192.919C548.617 205.897 551.144 219.232 552.308 232.719C554.303 258.04 552.568 283.595 549.164 308.706C548.851 311.107 548.511 313.507 548.146 315.907C548.055 316.573 547.964 317.212 547.859 317.903C544.115 342.91 538.819 368.139 526.987 389.951C514.073 413.784 469.015 479.909 420.149 481.618C394.802 482.518 372.417 465.964 349.445 454.223C312.919 435.595 271.579 431.942 231.27 430.86C190.961 429.777 150.156 430.938 110.878 420.946C71.5995 410.953 33.0907 388.007 13.0144 349.863C6.19191 336.897 1.01304 318.216 1 303.267C1 259.161 8.20084 220.587 20.7762 187.075C24.7695 176.389 29.4269 165.963 34.7213 155.858C42.4761 141.041 51.6134 126.99 62.0114 113.892L70.7516 103.313Z" fill="#3AAB9F"/>
<g opacity="0.7">
<path d="M70.7516 103.313C162.158 -0.694807 319.089 -18.0055 389.049 15.4027C416.233 28.2839 441.378 45.0868 463.68 65.2737C466.602 67.8827 469.441 70.5657 472.198 73.3225C480.806 81.8013 488.879 90.8066 496.371 100.286C505.349 111.627 513.448 123.637 520.595 136.212C530.837 154.107 538.949 173.139 544.768 192.919C548.617 205.897 551.144 219.232 552.308 232.719C554.303 258.04 552.568 283.595 549.164 308.706C548.851 311.107 548.511 313.507 548.146 315.907C548.055 316.573 547.964 317.212 547.859 317.903C544.115 342.91 538.819 368.139 526.987 389.951C514.073 413.784 469.015 479.909 420.149 481.618C394.802 482.518 372.417 465.964 349.445 454.223C312.919 435.595 271.579 431.942 231.27 430.86C190.961 429.777 150.156 430.938 110.878 420.946C71.5995 410.953 33.0907 388.007 13.0144 349.863C6.19191 336.897 1.01304 318.216 1 303.267C1 259.161 8.20084 220.587 20.7762 187.075C24.7695 176.389 29.4269 165.963 34.7213 155.858C42.4761 141.041 51.6134 126.99 62.0114 113.892L70.7516 103.313Z" fill="white"/>
</g>
<path d="M1 480.105H562" stroke="#263238" stroke-width="0.868065" stroke-linecap="round" stroke-linejoin="round"/>
<path d="M432.738 290.861V291.004C432.738 291.239 432.79 291.487 432.894 291.748C433.478 294.606 433.913 297.493 434.199 300.397C434.447 302.888 434.642 305.732 434.695 308.902C434.818 316.228 434.317 323.551 433.195 330.792C432.908 332.696 432.568 334.705 432.164 336.714C431.525 340.027 430.742 343.497 429.777 347.085C429.346 348.755 428.851 350.463 428.329 352.185L427.716 354.286C427.481 355.134 427.246 355.981 427.024 356.895C425.525 362.69 424.327 368.56 423.437 374.479C422.328 381.85 421.637 389.168 421.258 396.095C420.75 405.331 420.776 413.862 420.997 420.88C420.991 420.998 420.991 421.115 420.997 421.233C421.232 428.368 421.676 433.964 421.976 437.147C422.145 439.013 422.263 440.07 422.276 440.135" stroke="#263238" stroke-width="0.868065" stroke-linecap="round" stroke-linejoin="round"/>
<path d="M432.777 291.044C430.824 289.308 428.471 288.084 425.928 287.482Z" fill="white"/>
<path d="M432.777 291.044C430.824 289.308 428.471 288.084 425.928 287.482" stroke="#263238" stroke-width="0.868065" stroke-linecap="round" stroke-linejoin="round"/>
<path d="M434.238 300.436L437.708 297.292" stroke="#263238" stroke-width="0.868065" stroke-linecap="round" stroke-linejoin="round"/>
<path d="M429.815 347.098C429.633 346.182 429.362 345.287 429.006 344.424C428.492 343.158 427.793 341.975 426.932 340.915C426.289 340.117 425.558 339.395 424.753 338.762" stroke="#263238" stroke-width="0.868065" stroke-linecap="round" stroke-linejoin="round"/>
<path d="M427.037 356.881C427.528 355.663 428.265 354.559 429.2 353.637C430.136 352.714 431.251 351.994 432.476 351.52" stroke="#263238" stroke-width="0.868065" stroke-linecap="round" stroke-linejoin="round"/>
<path d="M421.01 405.409C422.171 404 423.045 398.665 423.514 395.795C423.632 395.116 423.723 394.49 423.814 394.112" fill="white"/>
<path d="M421.01 405.409C422.171 404 423.045 398.665 423.514 395.795C423.632 395.116 423.723 394.49 423.814 394.112" stroke="#263238" stroke-width="0.868065" stroke-linecap="round" stroke-linejoin="round"/>
<path d="M412.074 415.088C412.46 415.049 412.849 415.049 413.235 415.088C414.943 415.254 416.575 415.882 417.953 416.905C419.332 417.928 420.407 419.306 421.062 420.893" fill="white"/>
<path d="M412.074 415.088C412.46 415.049 412.849 415.049 413.235 415.088C414.943 415.254 416.575 415.882 417.953 416.905C419.332 417.928 420.407 419.306 421.062 420.893" stroke="#263238" stroke-width="0.868065" stroke-linecap="round" stroke-linejoin="round"/>
<path d="M432.202 336.818C432.202 336.818 432.815 315.646 421.192 307.963" stroke="#263238" stroke-width="0.868065" stroke-linecap="round" stroke-linejoin="round"/>
<path d="M433.194 382.202C434.72 387.146 424.063 396.551 424.063 396.551C424.063 396.551 409.987 394.79 408.409 389.859C406.83 384.928 410.444 376.814 417.279 374.727C424.115 372.64 431.72 377.258 433.194 382.202Z" fill="#3AAB9F"/>
<path d="M445.051 322.286C443.747 327.504 433.624 331.248 433.624 331.248C433.624 331.248 426.671 323.121 427.976 317.877C429.28 312.633 434.902 306.867 439.625 308.08C444.347 309.293 446.408 317.042 445.051 322.286Z" fill="#3AAB9F"/>
<path d="M404.625 400.647C410.952 403.1 414.826 414.293 414.826 414.293C414.826 414.293 404.39 419.915 398.077 417.449C391.763 414.984 385.032 408.044 386.858 403.413C388.684 398.782 398.298 398.13 404.625 400.647Z" fill="#3AAB9F"/>
<path d="M418.493 339.075C419.774 340.152 421.242 340.983 422.824 341.528C423.618 341.785 424.468 341.818 425.28 341.625C426.092 341.432 426.836 341.019 427.429 340.432C428.733 338.879 428.42 336.518 427.572 334.575C425.877 330.857 419.641 324.53 414.854 326.343C407.94 328.991 415.415 336.818 418.493 339.075Z" fill="#3AAB9F"/>
<path d="M432.646 348.559C431.733 349.681 430.768 351.103 431.277 352.472C431.56 353.048 432.026 353.513 432.602 353.796C433.178 354.079 433.831 354.164 434.46 354.038C435.711 353.741 436.879 353.166 437.877 352.355C440.317 350.659 445.326 347.137 442.13 343.784C438.934 340.432 434.499 346.198 432.646 348.559Z" fill="#3AAB9F"/>
<path d="M412.231 301.245C411.704 301.275 411.2 301.471 410.791 301.803C410.381 302.135 410.086 302.588 409.948 303.097C409.739 304.31 410.743 305.367 411.709 306.11C414.135 307.989 421.427 313.024 423.045 308.158C424.584 303.567 415.44 300.892 412.231 301.245Z" fill="#3AAB9F"/>
<path d="M425.654 285.251C424.154 285.395 422.654 284.847 421.141 284.938C419.627 285.03 417.971 286.243 418.297 287.73C418.623 289.217 420.306 289.543 421.689 289.622C424.069 289.774 426.46 289.612 428.798 289.139C429.352 289.086 429.865 288.825 430.233 288.408C430.846 287.508 429.881 286.308 428.837 285.995C427.766 285.853 426.712 285.599 425.693 285.238L425.654 285.251Z" fill="#3AAB9F"/>
<path d="M440.343 295.596C441.843 295.596 443.304 294.996 444.817 294.983C446.331 294.97 448.079 296.079 447.831 297.592C447.583 299.105 445.965 299.536 444.582 299.705C442.219 300.018 439.824 300.018 437.46 299.705C436.9 299.693 436.367 299.463 435.973 299.066C435.307 298.218 436.195 296.953 437.199 296.562C438.263 296.363 439.3 296.043 440.291 295.609L440.343 295.596Z" fill="#3AAB9F"/>
<path d="M438.855 406.766C439.2 406.405 439.663 406.179 440.159 406.126C440.495 406.158 440.808 406.306 441.046 406.544C441.284 406.782 441.432 407.096 441.464 407.431C441.536 408.075 441.456 408.728 441.229 409.336C440.199 412.766 428.719 437.539 426.071 433.09C424.518 430.481 428.354 421.754 429.489 419.289C431.654 414.478 434.852 410.203 438.855 406.766V406.766Z" fill="#3AAB9F"/>
<path d="M433.26 292.465C433.26 292.465 432.568 286.452 434.016 285.943" stroke="#263238" stroke-width="0.868065" stroke-linecap="round" stroke-linejoin="round"/>
<path d="M431.98 286.191C432.72 284.067 433.996 282.171 435.685 280.686C437.498 279.381 440.408 279.277 441.725 281.09C443.199 283.112 441.725 286.178 439.468 287.26C437.211 288.343 434.55 288.017 432.072 287.665C432.072 287.3 432.072 286.934 432.072 286.569L431.98 286.191Z" fill="#3AAB9F"/>
<path d="M438.164 479.805C425.867 481.879 413.309 481.879 401.012 479.805V479.805L386.558 437.16H452.618L438.164 479.805Z" fill="white" stroke="#263238" stroke-width="0.868065" stroke-linecap="round" stroke-linejoin="round"/>
<path d="M186.056 171.708V171.851C186.108 172.086 186.161 172.334 186.213 172.595C186.804 175.452 187.239 178.339 187.517 181.244C187.765 183.735 187.948 186.579 188.013 189.749C188.147 197.056 187.658 204.362 186.552 211.586C186.265 213.491 185.926 215.5 185.521 217.509C184.882 220.822 184.086 224.292 183.134 227.88C182.691 229.549 182.208 231.258 181.686 232.98C181.477 233.685 181.269 234.376 181.073 235.08C180.877 235.785 180.59 236.776 180.369 237.689" stroke="#263238" stroke-width="0.868065" stroke-linecap="round" stroke-linejoin="round"/>
<path d="M186.083 171.89C185.147 171.071 184.123 170.358 183.03 169.764C181.825 169.129 180.546 168.647 179.221 168.329" fill="white"/>
<path d="M186.083 171.89C185.147 171.071 184.123 170.358 183.03 169.764C181.825 169.129 180.546 168.647 179.221 168.329" stroke="#263238" stroke-width="0.868065" stroke-linecap="round" stroke-linejoin="round"/>
<path d="M187.544 181.283L191.027 178.139" stroke="#263238" stroke-width="0.868065" stroke-linecap="round" stroke-linejoin="round"/>
<path d="M183.135 227.945C182.949 227.029 182.674 226.133 182.313 225.271C181.799 224.005 181.1 222.822 180.239 221.761C179.596 220.964 178.865 220.242 178.061 219.609" stroke="#263238" stroke-width="0.868065" stroke-linecap="round" stroke-linejoin="round"/>
<path d="M180.356 237.676C180.843 236.457 181.577 235.352 182.51 234.429C183.444 233.507 184.558 232.787 185.783 232.315" stroke="#263238" stroke-width="0.868065" stroke-linecap="round" stroke-linejoin="round"/>
<path d="M174.316 286.256C175.477 284.847 176.364 279.512 176.834 276.642C176.938 275.963 177.043 275.337 177.121 274.959" fill="white"/>
<path d="M174.316 286.256C175.477 284.847 176.364 279.512 176.834 276.642C176.938 275.963 177.043 275.337 177.121 274.959" stroke="#263238" stroke-width="0.868065" stroke-linecap="round" stroke-linejoin="round"/>
<path d="M165.38 295.883C165.771 295.844 166.164 295.844 166.554 295.883C168.262 296.053 169.891 296.683 171.269 297.705C172.647 298.727 173.723 300.104 174.381 301.688" fill="white"/>
<path d="M165.38 295.883C165.771 295.844 166.164 295.844 166.554 295.883C168.262 296.053 169.891 296.683 171.269 297.705C172.647 298.727 173.723 300.104 174.381 301.688" stroke="#263238" stroke-width="0.868065" stroke-linecap="round" stroke-linejoin="round"/>
<path d="M185.509 217.613C185.509 217.613 186.135 196.441 174.499 188.758" stroke="#263238" stroke-width="0.868065" stroke-linecap="round" stroke-linejoin="round"/>
<path d="M186.565 263.049C188.078 267.993 177.433 277.398 177.433 277.398C177.433 277.398 163.345 275.637 161.779 270.706C160.214 265.775 163.828 257.661 170.65 255.574C177.473 253.487 185.039 258.118 186.565 263.049Z" fill="#3AAB9F"/>
<path d="M198.384 203.133C197.079 208.351 186.956 212.095 186.956 212.095C186.956 212.095 179.925 203.968 181.282 198.724C182.638 193.48 188.196 187.714 192.918 188.927C197.64 190.14 199.688 197.889 198.384 203.133Z" fill="#3AAB9F"/>
<path d="M157.944 281.495C164.271 283.96 168.158 295.14 168.158 295.14C168.158 295.14 157.722 300.762 151.396 298.296C145.069 295.831 138.351 288.891 140.19 284.26C142.029 279.629 151.604 279.029 157.944 281.495Z" fill="#3AAB9F"/>
<path d="M171.811 219.922C173.087 220.999 174.55 221.83 176.129 222.375C176.923 222.632 177.772 222.665 178.585 222.472C179.397 222.279 180.14 221.866 180.733 221.279C182.038 219.726 181.725 217.365 180.877 215.422C179.181 211.704 172.959 205.377 168.158 207.19C161.257 209.812 168.719 217.639 171.811 219.922Z" fill="#3AAB9F"/>
<path d="M185.952 229.419C185.052 230.541 184.086 232.028 184.582 233.332C184.866 233.908 185.332 234.373 185.907 234.656C186.483 234.94 187.136 235.024 187.765 234.898C189.017 234.603 190.186 234.028 191.183 233.215C193.622 231.532 198.632 227.997 195.436 224.644C192.239 221.292 187.869 227.045 185.952 229.419Z" fill="#3AAB9F"/>
<path d="M165.536 182.092C165.01 182.124 164.507 182.32 164.098 182.652C163.689 182.984 163.394 183.436 163.253 183.944C163.045 185.157 164.049 186.214 165.027 186.957C167.454 188.836 174.733 193.871 176.364 189.006C177.89 184.414 168.758 181.739 165.536 182.092Z" fill="#3AAB9F"/>
<path d="M178.96 166.098C177.46 166.242 175.959 165.694 174.459 165.785C172.959 165.877 171.276 167.09 171.615 168.577C171.955 170.064 173.611 170.39 175.007 170.469C177.383 170.621 179.77 170.459 182.104 169.986C182.661 169.934 183.178 169.673 183.552 169.255C184.152 168.355 183.186 167.155 182.156 166.842C181.08 166.7 180.022 166.446 178.999 166.085L178.96 166.098Z" fill="#3AAB9F"/>
<path d="M193.649 176.443C195.162 176.443 196.623 175.843 198.123 175.83C199.623 175.817 201.385 176.926 201.15 178.439C200.915 179.952 199.271 180.383 197.888 180.552C195.525 180.866 193.13 180.866 190.766 180.552C190.206 180.54 189.673 180.31 189.279 179.913C188.613 179.065 189.501 177.8 190.518 177.409C191.581 177.206 192.617 176.887 193.61 176.456L193.649 176.443Z" fill="#3AAB9F"/>
<path d="M192.161 287.613C192.508 287.254 192.97 287.028 193.466 286.973C193.798 287.012 194.108 287.162 194.345 287.399C194.581 287.636 194.731 287.945 194.77 288.278C194.838 288.923 194.753 289.576 194.522 290.182C193.505 293.613 182.012 318.386 179.377 313.937C177.812 311.328 181.647 302.601 182.782 300.136C184.951 295.324 188.154 291.048 192.161 287.613V287.613Z" fill="#3AAB9F"/>
<path d="M186.565 173.338C186.565 173.338 185.873 167.325 187.334 166.816" stroke="#263238" stroke-width="0.868065" stroke-linecap="round" stroke-linejoin="round"/>
<path d="M185.339 167.038C186.069 164.909 187.347 163.011 189.044 161.533C190.857 160.228 193.753 160.124 195.071 161.937C196.545 163.959 195.071 167.025 192.814 168.107C190.557 169.19 187.909 168.864 185.431 168.512C185.431 168.147 185.431 167.781 185.431 167.416L185.339 167.038Z" fill="#3AAB9F"/>
<path d="M20.7764 315.907V187.01" stroke="#263238" stroke-width="0.868065" stroke-linecap="round" stroke-linejoin="round"/>
<path d="M423.215 315.907H407.287" stroke="#263238" stroke-width="0.868065" stroke-linecap="round" stroke-linejoin="round"/>
<path d="M548.12 315.907H515.677" stroke="#263238" stroke-width="0.868065" stroke-linecap="round" stroke-linejoin="round"/>
<path d="M405.826 120.089H463.315V65.3259" stroke="#263238" stroke-width="0.868065" stroke-linecap="round" stroke-linejoin="round"/>
<path d="M70.752 103.365H131.829V147.914H198.776" stroke="#263238" stroke-width="0.868065" stroke-linecap="round" stroke-linejoin="round"/>
<path d="M34.7217 254.23V155.793" stroke="#263238" stroke-width="0.868065" stroke-linecap="round" stroke-linejoin="round"/>
<path d="M62.0107 113.071V190.219" stroke="#263238" stroke-width="0.868065" stroke-linecap="round" stroke-linejoin="round"/>
<path d="M89.2886 113.071V181.27" stroke="#263238" stroke-width="0.868065" stroke-linecap="round" stroke-linejoin="round"/>
<path d="M116.565 113.071V232.367" stroke="#263238" stroke-width="0.868065" stroke-linecap="round" stroke-linejoin="round"/>
<path d="M247.237 96.1512V17.7117H358.289V96.1512" stroke="#263238" stroke-width="0.868065" stroke-linecap="round" stroke-linejoin="round"/>
<path d="M255.378 56.677V27.0258H275.911" stroke="#263238" stroke-width="0.868065" stroke-linecap="round" stroke-linejoin="round"/>
<path d="M280.424 56.677V27.0258H300.957" stroke="#263238" stroke-width="0.868065" stroke-linecap="round" stroke-linejoin="round"/>
<path d="M305.47 56.677V27.0258H326.003" stroke="#263238" stroke-width="0.868065" stroke-linecap="round" stroke-linejoin="round"/>
<path d="M330.516 56.677V27.0258H351.049" stroke="#263238" stroke-width="0.868065" stroke-linecap="round" stroke-linejoin="round"/>
<path d="M255.378 96.1512V66.4999H275.911" stroke="#263238" stroke-width="0.868065" stroke-linecap="round" stroke-linejoin="round"/>
<path d="M280.424 96.1512V66.4999H300.957" stroke="#263238" stroke-width="0.868065" stroke-linecap="round" stroke-linejoin="round"/>
<path d="M305.47 96.1512V66.4999H326.003" stroke="#263238" stroke-width="0.868065" stroke-linecap="round" stroke-linejoin="round"/>
<path d="M330.516 96.1512V66.4999H351.049" stroke="#263238" stroke-width="0.868065" stroke-linecap="round" stroke-linejoin="round"/>
<path d="M472.211 72.1093V170.403" stroke="#263238" stroke-width="0.868065" stroke-linecap="round" stroke-linejoin="round"/>
<path d="M512.533 308.706H515.677" stroke="#263238" stroke-width="0.868065" stroke-linecap="round" stroke-linejoin="round"/>
<path d="M496.383 100.339V210.386" stroke="#263238" stroke-width="0.868065" stroke-linecap="round" stroke-linejoin="round"/>
<path d="M520.57 280.607V308.706H539.863" stroke="#263238" stroke-width="0.868065" stroke-linecap="round" stroke-linejoin="round"/>
<path d="M520.57 136.212V210.947" stroke="#263238" stroke-width="0.868065" stroke-linecap="round" stroke-linejoin="round"/>
<path d="M544.742 192.919V308.706H549.138" stroke="#263238" stroke-width="0.868065" stroke-linecap="round" stroke-linejoin="round"/>
<path d="M250.159 318.268H1V480.105H250.159V318.268Z" fill="white" stroke="#263238" stroke-width="0.868065" stroke-linecap="round" stroke-linejoin="round"/>
<path d="M1 318.268L125.58 399.187L250.159 318.268H1Z" fill="white" stroke="#263238" stroke-width="0.868065" stroke-linecap="round" stroke-linejoin="round"/>
<path d="M88.1275 374.858L1 480.105" stroke="#263238" stroke-width="0.868065" stroke-linecap="round" stroke-linejoin="round"/>
<path d="M163.711 374.858L250.838 480.105" stroke="#263238" stroke-width="0.868065" stroke-linecap="round" stroke-linejoin="round"/>
<path d="M383.493 111.766H325.573C323.905 111.768 322.268 112.217 320.832 113.066C319.396 113.914 318.213 115.132 317.407 116.593V116.593C315.984 119.161 313.899 121.302 311.369 122.793C308.838 124.284 305.955 125.07 303.019 125.07C300.082 125.07 297.199 124.284 294.668 122.793C292.138 121.302 290.053 119.161 288.63 116.593V116.593C287.83 115.113 286.645 113.878 285.201 113.017C283.757 112.155 282.106 111.701 280.425 111.701H222.57C220.982 111.68 219.405 111.973 217.93 112.561C216.455 113.15 215.111 114.023 213.973 115.132C212.836 116.24 211.928 117.562 211.301 119.021C210.674 120.48 210.341 122.049 210.321 123.637V450.31C210.365 453.516 211.68 456.573 213.977 458.811C216.273 461.049 219.364 462.284 222.57 462.246H383.493C386.701 462.284 389.792 461.049 392.091 458.812C394.39 456.575 395.707 453.517 395.755 450.31V123.702C395.711 120.494 394.394 117.434 392.095 115.196C389.795 112.958 386.702 111.724 383.493 111.766Z" fill="#3AAB9F"/>
<path d="M401.402 120.089C401.409 117.888 400.982 115.708 400.144 113.673C399.307 111.638 398.076 109.788 396.523 108.23C394.969 106.671 393.123 105.435 391.091 104.591C389.058 103.747 386.879 103.313 384.679 103.313H221.395C219.199 103.311 217.025 103.742 214.996 104.581C212.967 105.42 211.123 106.651 209.57 108.203C208.017 109.755 206.785 111.597 205.944 113.626C205.104 115.654 204.671 117.828 204.671 120.024V120.024V463.355C204.671 467.787 206.431 472.037 209.565 475.171C212.699 478.305 216.95 480.065 221.382 480.065H384.679C389.112 480.065 393.364 478.305 396.5 475.172C399.636 472.038 401.399 467.788 401.402 463.355V463.355V120.089ZM395.754 450.31C395.706 453.517 394.388 456.575 392.09 458.812C389.791 461.049 386.699 462.284 383.492 462.246H222.569C219.362 462.284 216.272 461.049 213.975 458.811C211.679 456.573 210.364 453.516 210.319 450.31V123.702C210.34 122.114 210.673 120.546 211.3 119.086C211.926 117.627 212.834 116.305 213.972 115.197C215.109 114.089 216.454 113.215 217.929 112.626C219.404 112.038 220.981 111.745 222.569 111.766H280.449C282.129 111.766 283.778 112.22 285.22 113.081C286.663 113.943 287.845 115.179 288.642 116.658V116.658C290.065 119.227 292.15 121.368 294.68 122.858C297.21 124.349 300.093 125.135 303.03 125.135C305.967 125.135 308.85 124.349 311.38 122.858C313.91 121.368 315.995 119.227 317.419 116.658C318.223 115.196 319.405 113.976 320.841 113.127C322.278 112.278 323.916 111.831 325.585 111.831H383.505C385.093 111.811 386.669 112.103 388.144 112.692C389.62 113.28 390.964 114.154 392.102 115.262C393.239 116.371 394.147 117.692 394.774 119.152C395.4 120.611 395.734 122.179 395.754 123.767V450.31Z" fill="#263238"/>
<path opacity="0.2" d="M345.922 103.365L237.453 480.092L280.528 480.052L384.979 103.365H345.922Z" fill="white"/>
<path opacity="0.2" d="M329.746 103.365L215.068 480.105L221.343 480.066L333.869 103.365H329.746Z" fill="white"/>
<path d="M332.291 383.428C332.371 387.162 331.703 390.875 330.326 394.347C328.949 397.819 326.892 400.98 324.275 403.645C321.657 406.31 318.533 408.424 315.087 409.862C311.64 411.301 307.94 412.036 304.205 412.023C296.584 411.994 289.276 408.987 283.841 403.645C278.406 398.303 275.274 391.047 275.115 383.428C275.036 379.695 275.706 375.984 277.083 372.513C278.46 369.043 280.518 365.883 283.135 363.22C285.752 360.556 288.876 358.444 292.322 357.006C295.768 355.568 299.467 354.834 303.2 354.847C310.82 354.872 318.128 357.876 323.563 363.216C328.999 368.556 332.131 375.81 332.291 383.428V383.428Z" fill="white" stroke="#263238" stroke-width="0.868065" stroke-linecap="round" stroke-linejoin="round"/>
<path d="M294.33 404.77C291.675 403.788 289.241 402.289 287.169 400.361C285.08 398.353 283.462 395.907 282.433 393.199C281.261 390.163 280.681 386.93 280.724 383.676C280.708 380.901 281.199 378.147 282.172 375.549C283.057 373.149 284.385 370.937 286.086 369.026C289.439 365.358 293.77 362.724 298.57 361.434C300.926 360.799 303.356 360.479 305.797 360.482C307.823 360.473 309.843 360.714 311.811 361.199C313.709 361.666 315.526 362.418 317.198 363.43C318.854 364.425 320.339 365.68 321.594 367.148C322.903 368.731 323.903 370.545 324.543 372.496C325.274 374.723 325.635 377.054 325.612 379.397C325.585 383.926 323.953 388.298 321.007 391.738C319.741 393.174 318.241 394.387 316.572 395.325C315.133 396.151 313.509 396.6 311.85 396.63C310.704 396.645 309.586 396.283 308.667 395.599C308.205 395.258 307.83 394.813 307.569 394.302C307.309 393.79 307.171 393.225 307.167 392.651C306.311 393.952 305.136 395.013 303.755 395.732C302.374 396.451 300.831 396.805 299.274 396.76C298.05 396.815 296.828 396.595 295.7 396.116C294.571 395.638 293.564 394.913 292.752 393.995C291.123 392.102 290.262 389.668 290.339 387.172C290.349 385.118 290.707 383.081 291.395 381.145C292.081 379.195 293.052 377.357 294.278 375.692C295.5 374.057 297.056 372.7 298.844 371.714C300.631 370.705 302.649 370.179 304.701 370.187C306.128 370.173 307.535 370.514 308.797 371.179C310.023 371.832 311.016 372.848 311.641 374.088L311.902 373.214C312.11 372.602 312.552 372.097 313.132 371.811C313.712 371.525 314.381 371.48 314.994 371.688C315.231 371.768 315.455 371.882 315.659 372.027C315.853 372.182 316.008 372.381 316.11 372.608C316.212 372.835 316.259 373.083 316.246 373.331C316.246 373.575 316.207 373.818 316.129 374.049L311.902 388.111C311.529 389.183 311.288 390.295 311.185 391.425C311.146 391.635 311.159 391.853 311.224 392.057C311.289 392.261 311.403 392.446 311.557 392.596C311.71 392.745 311.898 392.855 312.104 392.914C312.31 392.974 312.527 392.982 312.737 392.938C314.233 392.842 315.634 392.174 316.65 391.073C318.06 389.679 319.142 387.991 319.82 386.128C320.63 384.095 321.046 381.925 321.047 379.736C321.064 377.809 320.782 375.89 320.212 374.049C319.732 372.461 318.972 370.972 317.968 369.653C317.017 368.451 315.865 367.422 314.563 366.613C313.266 365.795 311.848 365.183 310.363 364.8C308.838 364.399 307.269 364.197 305.693 364.2C303.694 364.203 301.705 364.484 299.783 365.035C297.805 365.595 295.919 366.444 294.187 367.552C292.441 368.654 290.859 369.998 289.491 371.544C288.081 373.173 286.984 375.048 286.256 377.075C285.436 379.283 285.025 381.621 285.042 383.976C285 386.765 285.505 389.535 286.529 392.129C287.413 394.375 288.806 396.384 290.6 397.999C292.332 399.503 294.332 400.667 296.496 401.43C298.779 402.238 301.184 402.644 303.605 402.63C306.193 402.63 308.766 402.239 311.237 401.469C311.484 401.381 311.744 401.337 312.006 401.339C312.251 401.335 312.494 401.383 312.719 401.48C312.943 401.577 313.145 401.72 313.311 401.9C313.477 402.073 313.608 402.278 313.695 402.501C313.783 402.725 313.825 402.964 313.82 403.204C313.851 403.584 313.744 403.962 313.519 404.269C313.293 404.575 312.965 404.79 312.593 404.874C309.515 405.816 306.316 406.308 303.097 406.335C300.105 406.331 297.138 405.801 294.33 404.77V404.77ZM305.106 391.242C306.395 390.316 307.352 388.998 307.832 387.485L310.558 377.897L310.376 377.506C310.206 377.191 310 376.898 309.763 376.632C309.436 376.255 309.078 375.906 308.693 375.588C308.204 375.198 307.653 374.894 307.062 374.688C305.518 374.149 303.828 374.209 302.327 374.858C301.504 375.206 300.749 375.696 300.096 376.306C299.417 376.939 298.813 377.648 298.296 378.419C297.778 379.222 297.341 380.074 296.992 380.963C296.625 381.852 296.341 382.774 296.144 383.715C295.947 384.611 295.846 385.525 295.844 386.442C295.832 387.03 295.867 387.619 295.948 388.203C296.008 388.722 296.122 389.233 296.287 389.729C296.43 390.19 296.637 390.629 296.9 391.033C297.136 391.398 297.437 391.716 297.787 391.973C298.161 392.243 298.581 392.442 299.027 392.56C299.547 392.712 300.089 392.783 300.631 392.768C302.263 392.789 303.856 392.265 305.158 391.281L305.106 391.242Z" fill="#3AAB9F" stroke="#263238" stroke-width="0.868065" stroke-linecap="round" stroke-linejoin="round"/>
<path d="M331.651 285.421C331.729 289.154 331.06 292.865 329.682 296.336C328.305 299.806 326.247 302.966 323.63 305.629C321.013 308.293 317.889 310.406 314.443 311.844C310.997 313.281 307.299 314.016 303.565 314.003C295.945 313.977 288.637 310.973 283.202 305.633C277.767 300.293 274.634 293.039 274.474 285.421C274.393 281.686 275.059 277.973 276.435 274.5C277.811 271.027 279.869 267.865 282.487 265.2C285.104 262.535 288.229 260.421 291.677 258.983C295.124 257.545 298.825 256.812 302.56 256.826C310.181 256.855 317.489 259.862 322.924 265.204C328.359 270.547 331.491 277.802 331.651 285.421V285.421Z" fill="white" stroke="#263238" stroke-width="0.868065" stroke-linecap="round" stroke-linejoin="round"/>
<path d="M321.008 282.812C312.046 276.942 294.474 276.942 285.93 282.812C284.367 283.105 282.962 283.95 281.97 285.193C280.979 286.436 280.467 287.994 280.529 289.582C280.659 293.379 296.431 293.379 296.3 289.582C296.223 287.995 295.617 286.48 294.578 285.278C300.493 283.999 306.613 283.999 312.528 285.278C311.566 286.501 311.067 288.026 311.119 289.582C311.25 293.379 327.021 293.379 326.878 289.582C326.804 287.958 326.184 286.406 325.119 285.178C324.053 283.949 322.605 283.116 321.008 282.812V282.812Z" fill="#3AAB9F" stroke="#263238" stroke-width="0.868065" stroke-linecap="round" stroke-linejoin="round"/>
<path d="M331.651 190.219C331.808 197.25 327.973 203.538 321.815 207.725V224.801L309.566 212.539C307.586 212.893 305.577 213.067 303.565 213.061C287.781 213.061 274.749 202.833 274.475 190.219C274.201 177.604 286.763 167.39 302.561 167.39C318.358 167.39 331.443 177.669 331.651 190.219Z" fill="white" stroke="#263238" stroke-width="0.868065" stroke-linecap="round" stroke-linejoin="round"/>
<path d="M290.886 190.219C290.888 190.952 290.673 191.669 290.268 192.28C289.862 192.891 289.284 193.368 288.608 193.651C287.931 193.933 287.186 194.008 286.466 193.867C285.747 193.725 285.085 193.374 284.566 192.856C284.046 192.338 283.692 191.678 283.548 190.959C283.404 190.24 283.477 189.495 283.757 188.817C284.037 188.139 284.512 187.56 285.121 187.152C285.731 186.745 286.448 186.527 287.181 186.527C288.161 186.527 289.101 186.915 289.796 187.607C290.49 188.299 290.882 189.238 290.886 190.219V190.219Z" fill="#3AAB9F" stroke="#263238" stroke-width="0.868065" stroke-linecap="round" stroke-linejoin="round"/>
<path d="M306.735 190.219C306.737 190.952 306.522 191.669 306.117 192.28C305.711 192.891 305.134 193.368 304.457 193.651C303.78 193.933 303.035 194.008 302.315 193.867C301.596 193.725 300.934 193.374 300.415 192.856C299.896 192.338 299.541 191.678 299.397 190.959C299.253 190.24 299.326 189.495 299.606 188.817C299.886 188.139 300.361 187.56 300.97 187.152C301.58 186.745 302.297 186.527 303.03 186.527C304.01 186.527 304.951 186.915 305.645 187.607C306.339 188.299 306.731 189.238 306.735 190.219V190.219Z" fill="#3AAB9F" stroke="#263238" stroke-width="0.868065" stroke-linecap="round" stroke-linejoin="round"/>
<path d="M322.585 190.219C322.587 190.952 322.372 191.669 321.967 192.28C321.561 192.891 320.984 193.368 320.307 193.651C319.63 193.933 318.885 194.008 318.165 193.867C317.446 193.725 316.784 193.374 316.265 192.856C315.746 192.338 315.391 191.678 315.247 190.959C315.103 190.24 315.176 189.495 315.456 188.817C315.736 188.139 316.211 187.56 316.82 187.152C317.43 186.745 318.147 186.527 318.88 186.527C319.86 186.527 320.801 186.915 321.495 187.607C322.19 188.299 322.581 189.238 322.585 190.219V190.219Z" fill="#3AAB9F" stroke="#263238" stroke-width="0.868065" stroke-linecap="round" stroke-linejoin="round"/>
<path d="M143.334 242.281C142.871 243.143 142.204 243.877 141.39 244.421C135.372 249.221 129.215 253.826 122.919 258.235C120.61 259.853 118.209 261.523 115.979 263.336C102.568 272.311 110.761 274.502 102.568 293.496C100.638 298.036 100.99 320.277 100.99 320.277H100.325C98.7544 318.728 97.0855 317.281 95.3285 315.946V315.946C95.0858 315.783 94.8331 315.635 94.5719 315.503V315.503C94.3269 315.377 94.0622 315.293 93.7892 315.255C92.4847 315.177 87.5146 315.777 82.4922 315.451L81.1877 315.346C80.4572 315.268 79.7397 315.177 79.0223 315.046C78.3048 314.916 77.6134 314.772 76.9481 314.59C72.1819 313.061 67.5083 311.258 62.9508 309.189V309.189L60.681 308.211L59.5591 307.728L58.5416 307.285L57.8111 306.971L57.1067 306.671C55.9196 306.176 54.8108 305.719 53.7933 305.367C53.3268 305.2 52.8522 305.056 52.3713 304.936C52.3713 306.006 52.2018 307.102 52.0583 308.172C51.4321 313.272 50.0363 317.981 47.5447 318.608C47.4934 318.621 47.4395 318.621 47.3882 318.608C47.1687 318.649 46.9461 318.67 46.7229 318.673H46.5272C45.9752 318.662 45.4288 318.56 44.9096 318.373V318.373C42.6483 317.408 40.8004 315.675 39.6916 313.481C39.1961 312.556 38.9194 311.529 38.8828 310.481C38.8828 306.684 37.8262 284.286 37.8262 277.764C37.8262 271.241 39.1307 259.827 42.3789 255.587C43.6483 253.79 45.2515 252.253 47.1012 251.061C49.4812 249.077 52.2109 247.555 55.1499 246.573C58.6199 245.438 66.3817 242.542 71.7953 240.494L63.6161 243.651C65.6903 247.199 70.1386 252.783 78.1613 253.5C85.7013 254.139 90.3714 247.317 92.7586 242.334C92.9674 242.412 106.091 239.92 109.13 240.064C119.031 240.494 127.106 235.133 130.759 233.006C131.86 232.348 133.097 231.947 134.375 231.834C135.654 231.72 136.941 231.897 138.142 232.351C139.342 232.806 140.424 233.525 141.308 234.456C142.191 235.387 142.852 236.506 143.243 237.729V237.846C143.813 239.264 143.846 240.841 143.334 242.281V242.281Z" fill="#3AAB9F" stroke="#263238" stroke-width="0.868065" stroke-linecap="round" stroke-linejoin="round"/>
<path d="M92.6152 242.412L92.0151 242.203L92.6152 242.412Z" fill="white" stroke="#263238" stroke-width="0.868065" stroke-linecap="round" stroke-linejoin="round"/>
<path d="M103.744 326.017C103.75 326.069 103.75 326.122 103.744 326.174C103.691 326.3 103.61 326.412 103.508 326.503C103.405 326.594 103.284 326.66 103.153 326.698C103.021 326.735 102.883 326.743 102.748 326.72C102.613 326.697 102.485 326.644 102.374 326.565C101.774 326.226 100.848 324.047 100.848 324.047L99.817 322.978L99.1387 322.26C99.243 322.521 100.065 324.517 99.6344 325.443C99.6125 325.507 99.5769 325.565 99.53 325.613C99.2418 325.998 98.8677 326.31 98.4374 326.526C98.0071 326.741 97.5325 326.852 97.0515 326.852V326.852C96.4905 326.852 94.8469 327.048 93.4119 327.139H93.2554C92.8209 327.163 92.3854 327.163 91.9509 327.139C90.7926 326.99 89.6754 326.613 88.6635 326.03C86.3687 325.693 84.1077 325.156 81.9062 324.426L81.5149 324.217L81.1627 324.008C80.9311 323.868 80.7166 323.702 80.5235 323.512C79.7285 322.85 79.0534 322.056 78.5276 321.164V321.164C78.5276 321.164 73.2313 320.943 66.1218 320.395C63.5128 320.199 60.6951 319.951 57.773 319.664C53.2855 319.208 49.5807 319.234 46.6717 318.829H46.463C45.889 318.751 45.3542 318.647 44.8454 318.529C43.6038 318.287 42.4558 317.699 41.5329 316.834C40.61 315.969 39.9496 314.861 39.6274 313.637C39.4566 313.058 39.3172 312.47 39.21 311.876L41.4798 307.963C42.6628 307.014 43.9822 306.249 45.3933 305.693C47.5826 304.777 50.0002 304.554 52.3202 305.054C52.8011 305.173 53.2757 305.317 53.7421 305.484C54.7596 305.876 55.8684 306.332 57.0555 306.789L57.773 307.089L58.5035 307.402L59.521 307.845C65.326 310.246 72.2529 313.337 76.8839 314.642C78.2748 315.006 79.6925 315.259 81.1235 315.398L82.428 315.503C87.4504 315.829 92.4074 315.229 93.725 315.307C95.0425 315.385 98.2647 318.451 100.326 320.343C100.887 320.864 101.382 321.295 101.722 321.556L101.878 321.686L101.996 321.791C102.743 322.557 103.266 323.513 103.509 324.556C103.509 324.556 103.509 324.556 103.509 324.556C103.611 324.905 103.681 325.263 103.717 325.626C103.741 325.755 103.75 325.886 103.744 326.017V326.017Z" fill="white" stroke="#263238" stroke-width="0.868065" stroke-linecap="round" stroke-linejoin="round"/>
<path d="M103.743 326.017C103.749 326.069 103.749 326.122 103.743 326.174C103.688 326.299 103.607 326.41 103.504 326.499C103.401 326.589 103.279 326.654 103.148 326.69C103.017 326.726 102.879 326.733 102.745 326.709C102.611 326.685 102.484 326.631 102.373 326.552C101.728 325.803 101.212 324.952 100.847 324.034L99.816 322.978L99.1377 322.273C99.229 322.482 100.077 324.517 99.6464 325.456C99.6245 325.52 99.5889 325.578 99.5421 325.626C99.3975 325.818 99.2311 325.993 99.0464 326.148C98.4839 326.599 97.785 326.848 97.0635 326.852V326.852C96.4896 326.852 94.8589 327.035 93.437 327.139H93.2544C92.8199 327.163 92.3844 327.163 91.9499 327.139C90.7987 326.985 89.6874 326.613 88.6756 326.043C86.3808 325.7 84.12 325.158 81.9183 324.426L81.54 324.243L81.1878 324.034C80.9622 323.886 80.7485 323.72 80.5486 323.539C79.7419 322.87 79.0577 322.067 78.5266 321.164V321.164C78.5266 321.164 73.3869 320.943 66.4208 320.408C63.8118 320.212 60.7984 319.951 57.772 319.651C53.6498 319.247 50.245 319.129 47.4925 318.699L46.6446 318.542L45.6662 318.321C45.4407 316.722 45.6063 315.093 46.1489 313.572C46.6546 312.289 47.4388 311.135 48.4449 310.192C49.4511 309.249 50.654 308.541 51.967 308.119V308.119C53.5964 307.52 55.2659 307.036 56.9632 306.671L57.6676 306.971L58.3982 307.284L59.4157 307.728C65.3251 310.272 72.1737 313.35 76.8177 314.616C78.2076 314.982 79.6258 315.231 81.0573 315.359L82.3618 315.464C87.3841 315.803 92.3412 315.203 93.6588 315.281C94.9763 315.359 98.1854 318.412 100.181 320.303C100.634 320.736 101.109 321.145 101.603 321.53L101.76 321.647L101.877 321.751C102.639 322.507 103.164 323.468 103.39 324.517C103.493 324.866 103.563 325.224 103.599 325.587C103.666 325.723 103.714 325.868 103.743 326.017V326.017Z" fill="white" stroke="#263238" stroke-width="0.868065" stroke-linecap="round" stroke-linejoin="round"/>
<path d="M88.1274 322.547C88.1274 322.547 91.0887 324.086 92.2627 324.621C93.4368 325.156 93.3324 327.309 93.3324 327.309" fill="white"/>
<path d="M88.1274 322.547C88.1274 322.547 91.0887 324.086 92.2627 324.621C93.4368 325.156 93.3324 327.309 93.3324 327.309" stroke="#263238" stroke-width="0.868065" stroke-linecap="round" stroke-linejoin="round"/>
<path d="M91.2983 320.46C93.1612 321.79 94.9551 323.213 96.6729 324.726C96.9238 325.02 97.0874 325.379 97.145 325.762C97.2026 326.145 97.1521 326.536 96.999 326.891" fill="white"/>
<path d="M91.2983 320.46C93.1612 321.79 94.9551 323.213 96.6729 324.726C96.9238 325.02 97.0874 325.379 97.145 325.762C97.2026 326.145 97.1521 326.536 96.999 326.891" stroke="#263238" stroke-width="0.868065" stroke-linecap="round" stroke-linejoin="round"/>
<path d="M99.0989 322.247C97.5554 320.593 95.9224 319.026 94.207 317.551Z" fill="white"/>
<path d="M99.0989 322.247C97.5554 320.593 95.9224 319.026 94.207 317.551" stroke="#263238" stroke-width="0.868065" stroke-linecap="round" stroke-linejoin="round"/>
<path d="M92.6026 242.438C90.2415 247.408 85.5583 254.178 78.0183 253.591C70.0348 252.913 65.5473 247.291 63.4731 243.729C66.343 242.634 69.2521 241.512 71.6393 240.572C71.6393 238.146 71.561 235.237 71.3001 232.354C71.3001 231.728 71.1697 231.05 71.1045 230.463C71.0392 229.876 70.961 229.458 70.8827 228.975H86.054C86.054 228.975 85.9627 229.575 85.8453 230.58C85.754 231.48 85.6366 232.68 85.5453 234.037C85.4279 235.837 85.3496 237.95 85.4018 239.946C86.1323 240.194 86.8759 240.468 87.6194 240.755L89.0544 241.251C89.6284 241.459 90.1893 241.642 90.7894 241.838L92.0939 242.229C92.2677 242.288 92.4376 242.358 92.6026 242.438V242.438Z" fill="white" stroke="#263238" stroke-width="0.868065" stroke-linecap="round" stroke-linejoin="round"/>
<path d="M71.1035 230.41C71.1035 230.41 73.9343 237.768 78.0435 239.02C82.1526 240.272 85.8704 230.58 85.8704 230.58C85.8704 230.58 80.0785 236.763 77.9261 235.798C75.7736 234.833 71.1296 230.463 71.1296 230.463" fill="#263238"/>
<path d="M68.6641 189.775C64.8304 193.226 61.7907 197.468 59.7544 202.207C57.8889 206.121 56.3105 210.621 57.7454 214.717C58.6041 216.751 59.819 218.615 61.3328 220.222C64.1505 223.601 68.1032 233.032 70.9209 236.411C71.1035 230.397 66.0681 220.679 66.603 215.63C67.2508 211.73 68.5331 207.963 70.3991 204.477C72.2967 199.906 74.7785 195.6 77.7825 191.667C79.4914 189.606 84.9834 185.94 79.4393 185.496C75.7606 185.196 71.4427 187.492 68.6641 189.775Z" fill="#263238" stroke="#263238" stroke-width="0.868065" stroke-linecap="round" stroke-linejoin="round"/>
<path d="M65.1163 210.282C65.1163 210.282 63.1726 206.512 61.1245 210.086C59.6505 212.695 61.7768 216.804 62.69 218.331C62.993 218.765 63.4034 219.114 63.8812 219.342C64.359 219.571 64.8879 219.672 65.4164 219.635L65.1163 210.282Z" fill="white" stroke="#263238" stroke-width="0.868065" stroke-linecap="round" stroke-linejoin="round"/>
<path d="M90.6582 223.901C89.4117 226.365 87.7875 228.618 85.8446 230.58L84.6705 231.793C82.2442 234.193 79.6221 236.098 77.9002 235.707C76.4 235.407 74.4433 233.867 72.5256 231.898C72.043 231.415 71.5734 230.893 71.1037 230.371C69.0158 228.087 67.2233 225.55 65.7683 222.818C65.3642 221.794 65.1051 220.718 64.9987 219.622C64.6695 216.355 64.5562 213.069 64.6595 209.786C64.6595 208.625 64.6595 207.699 64.6595 207.177C64.6595 204.907 73.1649 197.015 73.1649 197.015C73.3941 196.931 73.6404 196.904 73.8823 196.937C75.3452 197.203 76.755 197.706 78.0567 198.424C83.2095 200.929 90.3973 205.899 90.9191 207.79C91.7148 210.543 91.4148 221.448 90.6582 223.901Z" fill="white" stroke="#263238" stroke-width="0.868065" stroke-linecap="round" stroke-linejoin="round"/>
<path d="M73.7656 213.439C73.7656 214.352 73.4264 215.096 73.0481 215.096C72.6698 215.096 72.2915 214.378 72.2915 213.439C72.2915 212.5 72.6307 211.756 73.0481 211.756C73.4656 211.756 73.7656 212.526 73.7656 213.439Z" fill="#263238"/>
<path d="M83.4832 211.769C83.9006 211.769 84.2398 212.513 84.2398 213.439C84.2398 214.365 83.9006 215.095 83.4832 215.095C83.0657 215.095 82.7266 214.352 82.7266 213.439C82.7266 212.526 83.0657 211.769 83.4832 211.769Z" fill="#263238"/>
<path d="M68.9136 209.33C68.9136 209.33 70.2181 206.721 74.836 207.516" stroke="#263238" stroke-width="0.868065" stroke-linecap="round" stroke-linejoin="round"/>
<path d="M87.7764 209.33C87.7764 209.33 86.4719 206.721 81.854 207.516" stroke="#263238" stroke-width="0.868065" stroke-linecap="round" stroke-linejoin="round"/>
<path d="M79.2314 219.818C79.7006 219.788 80.1479 219.609 80.5073 219.306C80.8667 219.003 81.1191 218.592 81.2273 218.135C81.2273 218.135 78.6966 214.222 79.4662 210.386" stroke="#263238" stroke-width="0.868065" stroke-linecap="round" stroke-linejoin="round"/>
<path d="M63.4731 201.15C62.4221 202.576 61.6275 204.174 61.125 205.873" stroke="white" stroke-width="0.868065" stroke-linecap="round" stroke-linejoin="round"/>
<path d="M74.378 190.714C74.378 190.714 72.93 193.115 66.551 198.007C66.1399 198.304 65.7478 198.626 65.377 198.972" stroke="white" stroke-width="0.868065" stroke-linecap="round" stroke-linejoin="round"/>
<path d="M53.9244 267.197C53.0548 279.599 52.1851 292.009 51.3154 304.428V303.475" fill="#263238"/>
<path d="M53.9244 267.197C53.0548 279.599 52.1851 292.009 51.3154 304.428V303.475" stroke="#263238" stroke-width="0.868065" stroke-linecap="round" stroke-linejoin="round"/>
<path d="M136.329 226.249C137.508 225.788 138.782 225.623 140.04 225.769C141.298 225.915 142.5 226.366 143.543 227.084C145.624 228.557 147.138 230.698 147.835 233.15C148.667 235.592 148.583 238.253 147.6 240.638C147.092 241.813 146.273 242.829 145.232 243.575C144.192 244.322 142.967 244.772 141.691 244.877C139.788 244.853 137.949 244.186 136.473 242.986C131.594 239.333 129.155 229.341 136.329 226.249Z" fill="white" stroke="#263238" stroke-width="0.868065" stroke-linecap="round" stroke-linejoin="round"/>
<path d="M147.13 184.596C147.13 184.753 147.13 185.783 147.222 185.966C147.678 187.975 148.644 192.997 146.204 194.015C147.13 197.315 149.4 218.879 149.1 229.876C149.022 233.163 148.448 237.063 145.5 238.472C140.53 240.833 135.807 235.08 136.368 230.58C137.242 224.436 136.942 218.174 137.673 211.965C138.469 205.521 139.93 198.92 138.325 192.619C137.934 192.189 135.429 187.218 134.607 185.849C134.239 185.263 133.949 184.632 133.746 183.97C133.425 181.719 133.268 179.448 133.277 177.174C134.02 175.765 134.986 177.069 135.494 177.996C135.909 179.125 136.052 180.336 135.912 181.531C135.864 181.823 135.904 182.123 136.029 182.392C136.139 182.545 136.287 182.667 136.459 182.745C136.63 182.823 136.82 182.854 137.008 182.835C138.612 182.6 138.547 181.257 138.521 180.226C138.521 176.769 138.521 173.312 138.521 169.882C138.521 169.308 138.703 167.755 139.251 167.703C139.799 167.651 140.621 168.094 140.699 169.934C140.791 172.008 140.791 178.4 140.791 178.4C140.842 178.453 140.907 178.491 140.977 178.512C141.048 178.532 141.123 178.534 141.195 178.517C141.325 178.517 141.378 178.283 141.43 178.152C142.199 174.943 142.982 171.734 143.752 168.525C143.843 168.147 144.404 167.364 144.808 167.364C145.774 167.364 145.8 168.486 145.852 168.812C146.191 170.534 143.778 177.63 143.374 179.248C143.374 179.535 143.374 179.965 143.674 179.887L147.457 172.256C147.632 171.81 147.908 171.411 148.263 171.089C148.619 170.768 149.044 170.533 149.505 170.403C149.568 170.383 149.637 170.383 149.7 170.403C149.768 170.443 149.823 170.502 149.857 170.573C150.222 171.225 149.857 172.125 149.648 172.843C149.439 173.56 146.609 178.83 145.604 180.957C145.461 181.257 145.226 181.935 145.513 182.261C145.8 182.587 146.322 181.961 146.53 181.531C147.17 180.226 147.77 179 148.357 177.722C148.539 177.343 148.813 176.808 149.244 176.9C151.788 177.448 148.174 182.783 147.13 184.596Z" fill="white" stroke="#263238" stroke-width="0.868065" stroke-linecap="round" stroke-linejoin="round"/>
<path d="M140.112 183.474C141.426 184.515 142.566 185.756 143.491 187.153C143.947 187.855 144.252 188.645 144.387 189.471C144.522 190.298 144.483 191.143 144.274 191.954C144.21 192.165 144.127 192.371 144.026 192.567" fill="white"/>
<path d="M140.112 183.474C141.426 184.515 142.566 185.756 143.491 187.153C143.947 187.855 144.252 188.645 144.387 189.471C144.522 190.298 144.483 191.143 144.274 191.954C144.21 192.165 144.127 192.371 144.026 192.567" stroke="#263238" stroke-width="0.868065" stroke-linecap="round" stroke-linejoin="round"/>
<path d="M103.365 264.967C104.745 267.75 105.674 270.736 106.117 273.811C106.496 276.89 106.613 279.303 104.513 287.952" stroke="#263238" stroke-width="0.868065" stroke-linecap="round" stroke-linejoin="round"/>
<path d="M73.9223 195.058C73.7437 195.592 73.6989 196.161 73.7918 196.715C74.0393 197.413 74.4945 198.019 75.0963 198.45C79.2658 202.104 83.9296 205.152 88.9501 207.503C89.5798 207.667 90.1256 208.06 90.4803 208.606C90.8351 209.151 90.9733 209.809 90.8677 210.452V220.535C90.9319 221.575 90.8306 222.619 90.5677 223.627C89.8372 225.975 88.2196 227.867 87.0455 230.032C85.852 232.085 85.2472 234.428 85.2975 236.802C84.9714 234.311 93.6854 229.484 96.0466 219.674C96.3727 218.292 103.156 210.06 99.0861 200.394C95.1726 191.119 89.0153 187.127 86.9412 186.644C85.5333 186.233 84.0476 186.162 82.6071 186.439C81.1666 186.716 79.8128 187.332 78.6576 188.236C76.3781 189.933 74.7153 192.329 73.9223 195.058V195.058Z" fill="#263238" stroke="#263238" stroke-width="0.868065" stroke-linecap="round" stroke-linejoin="round"/>
<path d="M82.4664 223.327C81.7228 223.483 80.9662 223.627 80.2096 223.718C77.6006 224.044 74.809 223.64 73.1001 221.735C73.2305 223.444 74.4046 229.902 77.9137 230.084C81.4228 230.267 82.4664 223.327 82.4664 223.327Z" stroke="#263238" stroke-width="0.868065" stroke-linecap="round" stroke-linejoin="round"/>
<path d="M79.0747 191.119C80.5793 194.535 82.9767 197.482 86.0146 199.65C88.2192 201.229 90.7369 202.364 92.7589 204.164C95.3679 206.551 97.0768 210.334 96.0723 213.765" stroke="white" stroke-width="0.868065" stroke-linecap="round" stroke-linejoin="round"/>
<path d="M106.339 243.821C103.826 245.838 102.171 248.733 101.708 251.922C101.258 254.677 101.597 257.504 102.686 260.075" stroke="#263238" stroke-width="0.868065" stroke-linecap="round" stroke-linejoin="round"/>
<path d="M57.7463 265.345C57.5375 268.763 55.4112 271.724 53.3501 274.476Z" fill="#263238"/>
<path d="M57.7463 265.345C57.5375 268.763 55.4112 271.724 53.3501 274.476" stroke="#263238" stroke-width="0.868065" stroke-linecap="round" stroke-linejoin="round"/>
<path d="M52.6587 291.474C53.6948 293.209 55.0816 294.708 56.7304 295.876C58.3791 297.044 60.2536 297.855 62.2337 298.257" stroke="#263238" stroke-width="0.868065" stroke-linecap="round" stroke-linejoin="round"/>
<path d="M102.569 293.509C102.569 293.509 99.0598 298.727 87.1367 299.823" stroke="#263238" stroke-width="0.868065" stroke-linecap="round" stroke-linejoin="round"/>
<path d="M451.848 247.786C451.848 247.786 406.386 261.875 397.829 250.748L398.99 193.989H405.89L414.004 233.972L451.261 227.149C451.261 227.149 456.035 241.942 451.848 247.786Z" fill="white"/>
<path d="M432.698 249.769C430.091 250.805 427.603 252.117 425.275 253.683C428.354 254.661 431.641 253.422 434.72 252.443C438.786 251.195 442.93 250.219 447.126 249.521C447.321 248.36 445.821 245.712 445.234 244.682C444.165 242.881 443.93 242.725 442.13 243.612C438.855 245.256 436.064 248.112 432.698 249.769Z" fill="#3AAB9F"/>
<path d="M451.848 247.786C451.848 247.786 406.386 261.875 397.829 250.748L398.99 193.989H405.89L414.004 233.972L451.261 227.149C451.261 227.149 456.035 241.942 451.848 247.786Z" stroke="#263238" stroke-width="0.868065" stroke-linecap="round" stroke-linejoin="round"/>
<path d="M447.386 249.273L455.37 298.427C455.161 330.283 470.358 325.495 480.912 325.404C493.109 325.3 511.62 313.207 502.54 294.383L506.037 226.249L484.786 224.631C477.781 224.084 449.082 224.984 446.799 228.649C440.877 238.159 447.386 249.273 447.386 249.273Z" fill="white"/>
<path d="M448.639 253.33C453.38 271.267 464.751 286.736 480.456 296.614C478.755 296.345 477.095 295.867 475.511 295.192C473.919 294.506 472.134 294.409 470.476 294.918C470.076 295.062 469.708 295.284 469.393 295.571C469.079 295.857 468.824 296.203 468.644 296.589C468.463 296.974 468.36 297.391 468.341 297.816C468.322 298.241 468.387 298.666 468.532 299.066C468.913 299.677 469.431 300.191 470.046 300.566C472.636 302.387 475.468 303.836 478.46 304.871C475.836 304.602 473.185 304.805 470.633 305.471C470.163 307.741 472.694 309.385 474.69 310.494C477.874 312.371 480.601 314.933 482.673 317.994C475.669 318.009 468.67 318.41 461.71 319.195C460.792 319.4 459.833 319.309 458.97 318.934C458.067 318.261 457.46 317.266 457.275 316.155C455.723 310.728 454.821 305.136 454.587 299.497C454.457 296.327 454.587 293.131 454.17 289.987C453.834 287.508 453.372 285.048 452.787 282.616C450.761 273.207 449.208 263.723 448.13 254.165C447.647 254.204 448.639 253.33 448.639 253.33Z" fill="#3AAB9F"/>
<path d="M502.528 249.417C500.768 248.852 499.127 247.968 497.688 246.808C498.092 248.765 501.014 252.143 502.723 253.187C503.076 253.409 503.584 253.591 503.897 253.291C504.21 252.991 504.419 252.222 504.732 251.987L502.528 249.417Z" fill="#3AAB9F"/>
<path d="M447.386 249.273L455.37 298.427C455.161 330.283 470.358 325.495 480.912 325.404C493.109 325.3 511.62 313.207 502.54 294.383L506.037 226.249L484.786 224.631C477.781 224.084 449.082 224.984 446.799 228.649C440.877 238.159 447.386 249.273 447.386 249.273Z" stroke="#263238" stroke-width="0.868065" stroke-linecap="round" stroke-linejoin="round"/>
<path d="M462.923 223.627C460.636 227.814 459.536 232.545 459.74 237.311C459.737 237.727 459.817 238.139 459.975 238.524C460.562 239.685 462.166 239.685 463.458 239.829C468.48 240.468 471.598 245.764 476.333 247.538C476.499 247.641 476.684 247.709 476.877 247.738C477.07 247.767 477.266 247.757 477.455 247.708C477.644 247.659 477.821 247.573 477.976 247.454C478.13 247.335 478.259 247.187 478.355 247.017C480.416 244.408 481.147 240.742 483.964 239.059C485.191 238.329 486.743 238.029 487.591 236.881C488.556 235.576 488.126 233.698 487.656 232.106C486.886 229.497 486.026 226.784 484.03 224.971C481.903 223.311 479.291 222.394 476.594 222.362C472.647 222.039 468.673 222.409 464.853 223.457C464.906 223.953 462.923 223.627 462.923 223.627Z" fill="#3AAB9F" stroke="#263238" stroke-width="0.868065" stroke-linecap="round" stroke-linejoin="round"/>
<path d="M526.06 256.983C522.872 252.341 520.523 247.175 519.12 241.72C518.61 238.988 517.814 236.316 516.746 233.75C515.739 231.767 514.285 230.046 512.499 228.722C510.713 227.397 508.643 226.506 506.454 226.119C505.519 225.913 504.547 225.958 503.636 226.249C501.745 226.966 500.91 229.145 500.531 231.128C499.713 235.387 499.955 239.782 501.236 243.925C502.11 246.743 512.611 267.171 519.499 275.089C518.899 271.098 523.491 257.753 526.06 256.983Z" fill="white"/>
<path d="M505.463 252.978L511.908 265.123C512.834 266.858 513.877 268.71 515.678 269.467C514.545 265.454 513.901 261.32 513.76 257.153C513.831 255.059 513.589 252.966 513.043 250.943C512.782 251.165 512.508 250.226 512.508 250.226C512.221 250.761 511.464 250.774 510.877 250.656C506.664 249.769 503.768 246.012 501.263 242.516C500.937 243.687 500.885 244.918 501.111 246.112C501.338 247.307 501.836 248.433 502.567 249.404C502.567 249.404 505.255 252.574 505.463 252.978Z" fill="#3AAB9F"/>
<path d="M526.06 256.983C522.872 252.341 520.523 247.175 519.12 241.72C518.61 238.988 517.814 236.316 516.746 233.75C515.739 231.767 514.285 230.046 512.499 228.722C510.713 227.397 508.643 226.506 506.454 226.119C505.519 225.913 504.547 225.958 503.636 226.249C501.745 226.966 500.91 229.145 500.531 231.128C499.713 235.387 499.955 239.782 501.236 243.925C502.11 246.743 512.611 267.171 519.499 275.089C518.899 271.098 523.491 257.753 526.06 256.983Z" stroke="#263238" stroke-width="0.868065" stroke-linecap="round" stroke-linejoin="round"/>
<path d="M517.008 271.593C509.989 258.144 513.381 227.149 513.172 222.166L522.434 221.67C523.361 221.67 527.652 248.099 530.574 259.07C533.183 269.063 530.679 279.173 526.061 279.173C522.226 279.173 518.482 274.424 517.008 271.593Z" fill="white" stroke="#263238" stroke-width="0.868065" stroke-linecap="round" stroke-linejoin="round"/>
<path d="M433.377 236.672C439.9 227.149 452.697 226.393 452.697 226.393" stroke="#263238" stroke-width="0.868065" stroke-linecap="round" stroke-linejoin="round"/>
<path d="M408.211 242.007C410.184 240.195 411.73 237.967 412.738 235.485Z" fill="white"/>
<path d="M408.211 242.007C410.184 240.195 411.73 237.967 412.738 235.485" stroke="#263238" stroke-width="0.868065" stroke-linecap="round" stroke-linejoin="round"/>
<path d="M456.674 287.013C460.392 293.105 484.473 299.614 494.074 298.218" stroke="#263238" stroke-width="0.868065" stroke-linecap="round" stroke-linejoin="round"/>
<path d="M463.483 304.206C470.42 305.399 477.53 305.128 484.355 303.41" stroke="#263238" stroke-width="0.868065" stroke-linecap="round" stroke-linejoin="round"/>
<path d="M495.431 245.099L500.023 251.322C500.649 252.169 501.523 253.122 502.553 252.887" stroke="#263238" stroke-width="0.868065" stroke-linecap="round" stroke-linejoin="round"/>
<path d="M529.557 481.135C529.153 482.792 529.023 484.762 530.21 486.001C531.397 487.24 533.119 487.214 534.723 487.188L540.241 487.084C542.369 487.19 544.496 486.857 546.49 486.105C547.487 485.718 548.341 485.033 548.936 484.144C549.531 483.255 549.838 482.205 549.816 481.135C549.68 480.308 549.416 479.507 549.034 478.761C548.538 477.691 548.042 476.609 547.559 475.539C541.467 462.116 532.166 470.282 529.557 481.135Z" fill="white" stroke="#263238" stroke-width="0.868065" stroke-linecap="round" stroke-linejoin="round"/>
<path d="M521.782 465.312C521.975 471.473 521.459 477.636 520.243 483.679C519.956 485.049 520.243 487.123 521.548 486.992C522.059 486.914 522.524 486.649 522.852 486.249C527.647 481.52 531.076 475.584 532.779 469.069C533.036 468.392 533.155 467.671 533.13 466.947C533.106 466.224 532.938 465.513 532.636 464.855C532.278 464.327 531.838 463.86 531.331 463.472C526.909 459.937 521.378 456.428 521.782 465.312Z" fill="white" stroke="#263238" stroke-width="0.868065" stroke-linecap="round" stroke-linejoin="round"/>
<path d="M506.636 307.637C506.636 307.637 513.511 319.586 514.985 322.365C516.459 325.143 547.597 366.065 553.572 395.86C554.694 401.522 531.722 464.842 531.722 464.842L526.504 461.894C526.504 461.894 530.13 404.144 529.243 399.343C528.356 394.543 505.436 359.112 505.436 359.112C505.436 359.112 492.639 349.707 487.369 338.775L506.636 307.637Z" fill="#263238"/>
<path d="M507.381 337.575C507.381 337.575 503.467 346.289 503.467 347.541C503.467 348.794 524.991 416.81 531.318 432.543C535.319 442.674 538.845 453.041 541.898 463.642C541.898 463.642 544.35 466.864 542.498 470.164C540.645 473.465 533.275 475.63 531.762 472.682C530.249 469.734 515.338 454.419 509.05 439.183C502.763 423.946 493.918 398.482 488.883 388.998C482.288 376.88 476.433 364.373 471.35 351.546C465.024 335.357 458.553 317.903 458.553 317.903C461.181 318.14 463.821 318.214 466.458 318.125C472.668 317.913 478.817 316.824 484.721 314.89C498.471 310.272 504.419 301.427 504.419 301.427C504.419 301.427 507.824 310.65 508.711 312.437L507.381 337.575Z" fill="#263238"/>
<path d="M551.276 401.691C549.929 404 548.117 406.003 545.954 407.575" stroke="white" stroke-width="0.868065" stroke-linecap="round" stroke-linejoin="round"/>
<path d="M552.96 397.895C552.764 398.531 552.529 399.154 552.255 399.761" stroke="white" stroke-width="0.868065" stroke-linecap="round" stroke-linejoin="round"/>
<path d="M494.948 317.251C498.418 323.225 501.666 331.822 501.144 338.71C500.864 339.961 500.426 341.171 499.84 342.31" stroke="white" stroke-width="0.868065" stroke-linecap="round" stroke-linejoin="round"/>
<path d="M473.947 323.891C474.325 327.217 474.834 332.748 474.103 336.01C473.486 339.345 471.572 342.3 468.781 344.228" stroke="white" stroke-width="0.868065" stroke-linecap="round" stroke-linejoin="round"/>
<path d="M503.531 311.302C504.289 312.247 504.904 313.297 505.358 314.42C506.241 316.033 507.455 317.441 508.921 318.552C510.387 319.662 512.071 320.45 513.863 320.864" stroke="white" stroke-width="0.868065" stroke-linecap="round" stroke-linejoin="round"/>
<path d="M492.458 324.634C497.062 334.705 500.585 344.802 507.733 361.917" stroke="white" stroke-width="0.868065" stroke-linecap="round" stroke-linejoin="round"/>
<path d="M490.004 319.482C490.396 320.264 490.774 321.047 491.152 321.83" stroke="white" stroke-width="0.868065" stroke-linecap="round" stroke-linejoin="round"/>
<path d="M528.331 396.525C530.442 400.593 533.126 404.336 536.302 407.64" stroke="white" stroke-width="0.868065" stroke-linecap="round" stroke-linejoin="round"/>
<path d="M530.509 400.282C531.891 406.665 534.415 412.746 537.958 418.232" stroke="white" stroke-width="0.868065" stroke-linecap="round" stroke-linejoin="round"/>
<path d="M498.079 400.608C487.917 378.928 477.077 357.416 463.758 324.634" stroke="white" stroke-width="0.868065" stroke-linecap="round" stroke-linejoin="round"/>
<path d="M500.375 406.909C500.128 406.153 499.867 405.396 499.593 404.626" stroke="white" stroke-width="0.868065" stroke-linecap="round" stroke-linejoin="round"/>
<path d="M535.505 473.569C532.896 470.164 513.876 443.566 509.154 431.512C506.01 423.476 503.636 417.802 501.327 409.792" stroke="white" stroke-width="0.868065" stroke-linecap="round" stroke-linejoin="round"/>
<path d="M528.331 422.38L537.371 448.953" stroke="white" stroke-width="0.868065" stroke-linecap="round" stroke-linejoin="round"/>
<path d="M522.237 221.683L519.498 221.905C516.027 222.522 512.461 222.357 509.062 221.422C506.883 220.887 501.835 219.322 501.235 219.218C499.735 218.897 498.22 218.653 496.695 218.487C492.09 218.213 494.425 216.491 496.343 216.57C498.874 216.687 499.722 216.635 501.665 216.778C501.431 216.648 500.713 216.504 500.7 215.943C500.7 214.574 502.5 214.639 502.5 214.639C502.5 214.639 500.53 213.804 500.804 212.774C501.078 211.743 502.396 211.469 503.231 211.547C503.231 211.547 502.122 211.012 502.174 210.438C502.409 208.221 506.962 208.064 506.962 208.064C505.861 207.572 504.83 206.936 503.896 206.173C503.555 205.806 503.317 205.356 503.205 204.868C503.18 204.636 503.219 204.401 503.316 204.189C503.413 203.976 503.566 203.794 503.758 203.66C503.95 203.527 504.174 203.448 504.407 203.431C504.64 203.414 504.874 203.46 505.083 203.564C506.261 204.348 507.397 205.193 508.488 206.094C509.897 207.099 511.527 207.738 513.015 208.638C514.464 209.879 515.633 211.413 516.445 213.139C516.68 213.504 522.237 221.683 522.237 221.683Z" fill="white" stroke="#263238" stroke-width="0.868065" stroke-linecap="round" stroke-linejoin="round"/>
<path d="M398.99 193.989V186.801C398.973 183.194 399.501 179.605 400.555 176.156C401.155 174.252 401.86 172.595 402.499 172.347C403.686 171.917 404.208 176.73 404.208 176.73C403.315 172.871 402.744 168.944 402.499 164.99C402.499 160.802 408.134 178.191 408.134 178.191L405.89 193.989H398.99Z" fill="white" stroke="#263238" stroke-width="0.868065" stroke-linecap="round" stroke-linejoin="round"/>
<path d="M405.798 182.3C406.48 181.774 406.989 181.057 407.259 180.239Z" fill="white"/>
<path d="M405.798 182.3C406.48 181.774 406.989 181.057 407.259 180.239" stroke="#263238" stroke-width="0.868065" stroke-linecap="round" stroke-linejoin="round"/>
<path d="M460.432 208.977C462.868 213.079 464.215 217.736 464.345 222.505C464.58 230.436 473.764 241.538 476.386 242.073C479.008 242.607 481.434 229.549 481.317 225.597C481.199 221.644 479.738 210.725 479.738 210.725C479.738 210.725 467.176 201.229 460.432 208.977Z" fill="white" stroke="#263238" stroke-width="0.868065" stroke-linecap="round" stroke-linejoin="round"/>
<path d="M464.123 219.479C464.123 219.479 476.164 235.902 480.886 219.205C485.608 202.507 467.645 223.77 464.123 219.479Z" fill="#263238"/>
<path d="M484.447 207.673C483.808 217.418 479.359 222.896 474.233 223.862C469.55 224.723 462.701 219.948 459.283 212.865C459.022 212.695 454.861 209.812 453.869 209.108C453.352 208.746 452.929 208.263 452.639 207.702C452.348 207.141 452.197 206.518 452.2 205.886C452.233 205.279 452.447 204.697 452.814 204.213C453.182 203.729 453.686 203.367 454.261 203.172H454.378C454.966 203.045 455.577 203.09 456.139 203.303C455.278 199.976 454.574 196.598 454.039 193.193C454.287 185.366 456.883 178.974 465.232 178.348C473.58 177.722 480.56 182.392 480.886 185.757C481.12 188.366 481.968 195.267 482.725 202.403C482.934 204.255 484.59 205.481 484.447 207.673Z" fill="white" stroke="#263238" stroke-width="0.868065" stroke-linecap="round" stroke-linejoin="round"/>
<path d="M480.886 196.402C480.886 196.402 475.511 193.937 476.424 201.946C476.607 203.525 479.542 205.86 479.542 205.86C479.542 205.86 478.785 208.221 477.39 208.221" fill="white"/>
<path d="M480.886 196.402C480.886 196.402 475.511 193.937 476.424 201.946C476.607 203.525 479.542 205.86 479.542 205.86C479.542 205.86 478.785 208.221 477.39 208.221" stroke="#263238" stroke-width="0.868065" stroke-linecap="round" stroke-linejoin="round"/>
<path d="M470.502 199.142C470.502 199.142 467.762 197.472 465.884 198.502C464.904 198.929 464.07 199.631 463.483 200.524" fill="white"/>
<path d="M470.502 199.142C470.502 199.142 467.762 197.472 465.884 198.502C464.904 198.929 464.07 199.631 463.483 200.524" stroke="#263238" stroke-width="0.868065" stroke-linecap="round" stroke-linejoin="round"/>
<path d="M468.936 203.759C469.145 204.725 468.936 205.586 468.375 205.703C467.814 205.821 467.266 205.116 467.071 204.151C466.875 203.185 467.071 202.324 467.645 202.207C468.219 202.09 468.74 202.781 468.936 203.759Z" fill="#263238"/>
<path d="M479.529 200.942C479.737 201.907 479.529 202.768 478.968 202.885C478.407 203.003 477.859 202.298 477.663 201.346C477.467 200.394 477.663 199.507 478.224 199.402C478.785 199.298 479.333 199.989 479.529 200.942Z" fill="#263238"/>
<path d="M453.413 183.083C452.459 184.018 451.798 185.21 451.509 186.514C450.727 189.272 450.502 192.158 450.844 195.004C451.187 197.85 452.091 200.6 453.505 203.094C454.374 202.987 455.255 203.023 456.114 203.199C457.027 203.433 458.201 204.999 458.631 205.808C459.009 206.67 459.225 207.594 459.271 208.534C459.062 206.055 458.866 203.59 458.657 201.111C458.517 200.12 458.562 199.112 458.788 198.137V198.137C459.427 196.102 458.723 191.301 458.905 187.01C464.319 193.623 472.185 192.449 474.794 192.228C478.708 191.902 482.047 187.897 481.838 185.04C481.63 182.183 480.86 174.826 467.959 174.069C465.116 173.767 462.251 174.364 459.766 175.778C458.979 176.297 458.31 176.977 457.804 177.773C457.298 178.568 456.967 179.463 456.831 180.396C456.649 181.596 457.105 181.7 456.192 182.287C455.279 182.874 454.314 182.313 453.413 183.083Z" fill="#263238" stroke="#263238" stroke-width="0.868065" stroke-linecap="round" stroke-linejoin="round"/>
<path d="M470.501 212.813C470.501 212.813 472.419 214.926 476.424 213.53Z" fill="white"/>
<path d="M470.501 212.813C470.501 212.813 472.419 214.926 476.424 213.53" stroke="#263238" stroke-width="0.868065" stroke-linecap="round" stroke-linejoin="round"/>
</svg>
