<svg width="557" height="421" viewBox="0 0 557 421" fill="none" xmlns="http://www.w3.org/2000/svg">
<g opacity="0.3">
<path d="M58.349 95.6353C56.5985 93.8213 53.542 92.1343 48.2542 92.0073C36.3726 91.7171 39.5652 100.17 36.3726 102.157C33.18 104.143 32.3184 100.996 29.1167 103.064C25.915 105.131 27.3753 109.149 24.7722 109.73C22.1692 110.31 18.6772 107.118 15.4937 109.149C12.3102 111.181 12.3011 112.913 10.8499 112.913C9.39873 112.913 6.50543 111.762 4.76401 112.913C3.02259 114.065 1 115.526 1 115.526H32.137" stroke="black" stroke-width="0.948863" stroke-linecap="round" stroke-linejoin="round"/>
<path d="M61.6232 100.832C61.3421 100.687 61.0428 100.551 60.7162 100.415C60.5773 99.3326 60.2127 98.2913 59.646 97.3586" stroke="black" stroke-width="0.948863" stroke-linecap="round" stroke-linejoin="round"/>
<path d="M36.1188 115.489H74.3484C74.3484 115.489 75.2554 112.877 72.0265 111.145C68.7976 109.412 67.3918 110.855 66.2309 109.403C65.1969 108.115 68.5346 104.986 63.138 101.649" stroke="black" stroke-width="0.948863" stroke-linecap="round" stroke-linejoin="round"/>
</g>
<g opacity="0.3">
<path d="M474.991 291.101C473.232 289.287 470.184 287.6 464.896 287.473C453.015 287.183 456.198 295.591 453.015 297.613C449.831 299.636 448.951 296.452 445.759 298.52C442.566 300.588 444.017 304.606 441.405 305.187C438.793 305.767 435.319 302.584 432.136 304.606C428.952 306.629 428.943 308.379 427.492 308.379C426.041 308.379 423.148 307.218 421.406 308.379C419.665 309.54 417.642 310.982 417.642 310.982H448.761" stroke="black" stroke-width="0.948863" stroke-linecap="round" stroke-linejoin="round"/>
<path d="M478.265 296.271L477.358 295.863C477.22 294.777 476.856 293.733 476.288 292.797" stroke="black" stroke-width="0.948863" stroke-linecap="round" stroke-linejoin="round"/>
<path d="M452.761 310.946H490.99C490.99 310.946 491.897 308.343 488.669 306.602C485.44 304.86 484.034 306.311 482.873 304.86C481.839 303.572 485.177 300.443 479.771 297.115" stroke="black" stroke-width="0.948863" stroke-linecap="round" stroke-linejoin="round"/>
</g>
<g opacity="0.3">
<path d="M191.251 68.4523H231.956C231.956 68.4523 233.335 64.2892 228.256 61.5229C223.177 58.7566 220.855 61.0603 219.005 58.7475C217.154 56.4347 224.093 50.4213 210.225 44.417C210.225 44.417 209.318 31.4743 190.344 31.0117C182.181 30.8122 178.462 33.1885 176.494 36.2269" stroke="black" stroke-width="0.948863" stroke-linecap="round" stroke-linejoin="round"/>
<path d="M178.834 68.4614H185.609" stroke="black" stroke-width="0.948863" stroke-linecap="round" stroke-linejoin="round"/>
<path d="M174.027 42.6121C173.446 44.5803 172.821 46.2401 171.397 47.1471C166.308 50.376 164.921 45.3331 159.842 48.5257C154.762 51.7183 157.066 58.2396 152.903 59.1647C148.74 60.0898 143.198 55.0016 138.11 58.2577C133.022 61.5138 133.022 64.262 130.718 64.262C128.414 64.262 123.78 62.448 121.004 64.262C118.229 66.076 115 68.4251 115 68.4251H166.98" stroke="black" stroke-width="0.948863" stroke-linecap="round" stroke-linejoin="round"/>
</g>
<path d="M551.165 419.689V412.575L545.023 408.941L538.589 412.76L532.145 408.941L525.711 412.76L519.277 408.941L512.843 412.76L506.409 408.941L499.965 412.76L493.531 408.941L487.087 412.76L480.653 408.941L474.219 412.76L467.775 408.941L461.341 412.76L454.897 408.941L448.463 412.76L442.029 408.941L435.585 412.76L429.151 408.941L422.707 412.76L416.273 408.941L409.829 412.76L403.395 408.941L396.961 412.76L390.517 408.941L384.073 412.76L377.639 408.941L371.195 412.76L364.761 408.941L358.317 412.76L351.883 408.941L345.439 412.76L339.005 408.941L332.561 412.76L326.127 408.941L319.683 412.76L313.249 408.941L306.804 412.76L300.36 408.941L293.926 412.76L287.492 408.941L281.048 412.76L274.614 408.941L268.17 412.76L261.736 408.941L255.302 412.76L248.858 408.941L242.424 412.76L235.98 408.941L229.546 412.76L223.102 408.941L216.658 412.76L210.224 408.941L203.78 412.76L197.346 408.941L190.902 412.76L184.458 408.941L178.014 412.76L171.57 408.941L165.126 412.76L158.682 408.941L152.248 412.76L145.804 408.941L139.37 412.76L132.926 408.941L126.482 412.76L120.038 408.941L113.583 412.76L107.149 408.941L101.764 412.128V419.689H551.165Z" fill="#3AAB9F"/>
<path d="M103.791 289.707C103.791 289.707 137.726 292.943 154.92 313.204C154.92 313.204 173.072 289.726 205.716 290.212C213.688 280.944 218.763 269.684 220.351 257.744C221.94 245.804 219.976 233.675 214.688 222.769C209.4 211.863 201.006 202.628 190.484 196.141C179.961 189.653 167.742 186.179 155.25 186.123C142.758 186.067 130.506 189.431 119.921 195.824C109.336 202.218 100.853 211.376 95.4608 222.235C90.068 233.093 87.9871 245.204 89.4601 257.158C90.9331 269.111 95.8995 280.416 103.781 289.755L103.791 289.707Z" fill="#72C1B8"/>
<path d="M103.791 289.707C103.791 289.707 137.726 292.943 154.92 313.204C154.92 313.204 173.072 289.726 205.716 290.212C213.688 280.944 218.763 269.684 220.351 257.744C221.94 245.804 219.976 233.675 214.688 222.769C209.4 211.863 201.006 202.628 190.484 196.141C179.961 189.653 167.742 186.179 155.25 186.123C142.758 186.067 130.506 189.431 119.921 195.824C109.336 202.218 100.853 211.376 95.4608 222.235C90.068 233.093 87.9871 245.204 89.4601 257.158C90.9331 269.111 95.8995 280.416 103.781 289.755L103.791 289.707Z" fill="#72C1B8"/>
<path opacity="0.5" d="M103.791 289.707C103.791 289.707 137.726 292.943 154.92 313.204C154.92 313.204 173.072 289.726 205.716 290.212C213.688 280.944 218.763 269.684 220.351 257.744C221.94 245.804 219.976 233.675 214.688 222.769C209.4 211.863 201.006 202.628 190.484 196.141C179.961 189.653 167.742 186.179 155.25 186.123C142.758 186.067 130.506 189.431 119.921 195.824C109.336 202.218 100.853 211.376 95.4608 222.235C90.068 233.093 87.9871 245.204 89.4601 257.158C90.9331 269.111 95.8995 280.416 103.781 289.755L103.791 289.707Z" fill="white"/>
<path d="M156.967 420.135L153.801 190.598L153.004 420.135H156.967Z" fill="#828282"/>
<path d="M155.485 307.033C155.485 307.033 166.941 287.161 187.554 281.097C187.554 281.097 165.791 286.063 154.91 303.166L155.485 307.033Z" fill="#828282"/>
<path d="M154.265 251.284C154.265 251.284 166.971 230.877 187.544 224.803C187.544 224.803 165.105 231.032 154.265 248.125V251.284Z" fill="#828282"/>
<path d="M154.708 280.3C154.708 280.3 166.971 259.019 187.584 252.945C187.584 252.945 165.297 258.902 154.416 276.015L154.708 280.3Z" fill="#828282"/>
<path d="M153.821 265.121C153.821 265.121 142.728 245.249 122.871 239.185C122.871 239.185 143.867 244.151 154.366 261.254L153.821 265.121Z" fill="#828282"/>
<path d="M153.821 292.68C153.821 292.68 142.728 272.818 122.871 266.744C122.871 266.744 143.867 271.71 154.366 288.822L153.821 292.68Z" fill="#828282"/>
<path d="M434.495 289.707C434.495 289.707 468.42 292.943 485.614 313.204C485.614 313.204 503.767 289.726 536.41 290.212C544.387 280.943 549.467 269.682 551.059 257.739C552.65 245.796 550.688 233.663 545.401 222.752C540.113 211.842 531.718 202.604 521.193 196.114C510.667 189.623 498.445 186.148 485.949 186.092C473.453 186.036 461.198 189.402 450.611 195.798C440.023 202.193 431.539 211.356 426.147 222.218C420.754 233.08 418.675 245.195 420.151 257.152C421.627 269.109 426.598 280.416 434.485 289.755L434.495 289.707Z" fill="#72C1B8"/>
<path opacity="0.5" d="M434.495 289.707C434.495 289.707 468.42 292.943 485.614 313.204C485.614 313.204 503.767 289.726 536.41 290.212C544.387 280.943 549.467 269.682 551.059 257.739C552.65 245.796 550.688 233.663 545.401 222.752C540.113 211.842 531.718 202.604 521.193 196.114C510.667 189.623 498.445 186.148 485.949 186.092C473.453 186.036 461.198 189.402 450.611 195.798C440.023 202.193 431.539 211.356 426.147 222.218C420.754 233.08 418.675 245.195 420.151 257.152C421.627 269.109 426.598 280.416 434.485 289.755L434.495 289.707Z" fill="white"/>
<path d="M487.662 420.135L484.495 190.598L483.699 420.135H487.662Z" fill="#828282"/>
<path d="M486.26 307.033C486.26 307.033 497.716 287.161 518.329 281.097C518.329 281.097 496.566 286.063 485.685 303.166L486.26 307.033Z" fill="#828282"/>
<path d="M484.959 251.284C484.959 251.284 497.666 230.877 518.238 224.803C518.238 224.803 495.8 231.032 484.959 248.125V251.284Z" fill="#828282"/>
<path d="M485.413 280.3C485.413 280.3 497.665 259.019 518.278 252.945C518.278 252.945 495.991 258.902 485.11 276.015L485.413 280.3Z" fill="#828282"/>
<path d="M484.515 265.121C484.515 265.121 473.422 245.249 453.566 239.185C453.566 239.185 474.572 244.151 485.07 261.254L484.515 265.121Z" fill="#828282"/>
<path d="M484.515 292.68C484.515 292.68 473.422 272.818 453.566 266.744C453.566 266.744 474.572 271.71 485.07 288.822L484.515 292.68Z" fill="#828282"/>
<path d="M357.237 175.944C357.237 175.944 414.861 181.444 444.076 215.863C444.076 215.863 474.935 176.021 530.36 176.799C543.896 161.052 552.512 141.924 555.205 121.642C557.898 101.36 554.558 80.7585 545.572 62.2348C536.587 43.7112 522.326 28.0277 504.451 17.0101C486.575 5.99253 465.819 0.0939847 444.6 0.00111382C423.38 -0.091757 402.57 5.62487 384.591 16.4855C366.612 27.3462 352.205 42.9042 343.045 61.3484C333.885 79.7926 330.351 100.364 332.853 120.669C335.355 140.974 343.79 160.176 357.177 176.041L357.237 175.944Z" fill="#72C1B8"/>
<path opacity="0.5" d="M357.237 175.944C357.237 175.944 414.861 181.444 444.076 215.863C444.076 215.863 474.935 176.021 530.36 176.799C543.896 161.052 552.512 141.924 555.205 121.642C557.898 101.36 554.558 80.7585 545.572 62.2348C536.587 43.7112 522.326 28.0277 504.451 17.0101C486.575 5.99253 465.819 0.0939847 444.6 0.00111382C423.38 -0.091757 402.57 5.62487 384.591 16.4855C366.612 27.3462 352.205 42.9042 343.045 61.3484C333.885 79.7926 330.351 100.364 332.853 120.669C335.355 140.974 343.79 160.176 357.177 176.041L357.237 175.944Z" fill="white"/>
<path d="M447.868 420.136L442.17 7.59705L440.738 420.136H447.868Z" fill="#828282"/>
<path d="M445.085 205.368C445.085 205.368 464.538 171.629 499.542 161.319C499.542 161.319 462.571 169.754 444.076 198.809L445.085 205.368Z" fill="#828282"/>
<path d="M442.967 110.681C442.967 110.681 464.538 76.0182 499.562 65.7079C499.562 65.7079 461.442 76.2806 442.967 105.336V110.681Z" fill="#828282"/>
<path d="M443.723 159.968C443.723 159.968 464.538 123.828 499.561 113.518C499.561 113.518 461.694 123.624 443.219 152.689L443.723 159.968Z" fill="#828282"/>
<path d="M442.2 134.139C442.2 134.139 423.423 100.39 389.639 90.0795C389.639 90.0795 425.308 98.5143 443.138 127.57L442.2 134.139Z" fill="#828282"/>
<path d="M442.2 181.006C442.2 181.006 423.423 147.257 389.639 136.947C389.639 136.947 425.308 145.382 443.138 174.437L442.2 181.006Z" fill="#828282"/>
<path d="M428.98 376.747C430.545 377.143 432.162 377.317 433.78 377.262C433.78 377.262 433.044 375.114 432.983 374.978C432.237 373.482 429.877 370.994 427.941 371.247C427.623 371.297 427.32 371.411 427.051 371.581C426.783 371.752 426.554 371.975 426.381 372.236C426.208 372.498 426.094 372.791 426.046 373.098C425.999 373.405 426.019 373.717 426.105 374.016C426.348 374.646 426.731 375.217 427.228 375.689C427.725 376.161 428.322 376.522 428.98 376.747Z" fill="#828282"/>
<path d="M430.159 386.241C431.76 386.234 433.352 385.995 434.879 385.531C435.381 387.188 435.994 388.811 436.714 390.39C437.138 391.362 437.582 392.246 438.045 393.169L437.481 392.382C436.351 391.129 433.386 389.331 431.611 390.06C431.319 390.189 431.058 390.376 430.846 390.609C430.634 390.842 430.475 391.116 430.38 391.412C430.285 391.708 430.255 392.02 430.294 392.328C430.332 392.636 430.438 392.933 430.603 393.199C431.004 393.751 431.527 394.211 432.133 394.547C432.74 394.883 433.415 395.086 434.112 395.142C435.669 395.148 437.218 394.919 438.701 394.462L439.246 395.521C440.123 397.212 441.01 398.893 441.827 400.564C442.12 401.157 442.372 401.74 442.644 402.333L442.15 401.653C441.01 400.389 438.056 398.601 436.271 399.33C435.979 399.461 435.72 399.649 435.508 399.882C435.297 400.115 435.139 400.388 435.044 400.684C434.949 400.98 434.919 401.291 434.957 401.599C434.994 401.906 435.098 402.203 435.262 402.469C435.665 403.021 436.19 403.482 436.798 403.818C437.406 404.153 438.083 404.356 438.782 404.413C440.296 404.421 441.803 404.204 443.249 403.771C443.501 404.383 443.753 404.996 443.965 405.598C444.096 406.016 444.258 406.405 444.379 406.832L444.732 408.076C444.933 408.873 445.145 409.689 445.316 410.476C445.437 411.02 445.548 411.535 445.659 412.06C445.377 411.477 444.812 410.331 444.752 410.243C443.834 408.824 441.192 406.618 439.306 407.085C439.002 407.171 438.719 407.316 438.476 407.513C438.233 407.709 438.035 407.952 437.895 408.226C437.754 408.5 437.675 408.8 437.661 409.105C437.647 409.41 437.699 409.715 437.813 410C438.129 410.598 438.577 411.122 439.126 411.535C439.675 411.948 440.311 412.24 440.99 412.391C442.564 412.626 444.166 412.626 445.74 412.391C445.922 413.256 446.083 414.101 446.234 414.908C446.557 416.666 446.799 418.25 446.98 419.591H448.251C448.029 418.211 447.737 416.559 447.364 414.733C447.182 413.848 446.97 412.906 446.748 411.944C447.654 411.598 448.537 411.199 449.391 410.748C450.562 411.71 451.861 412.518 453.253 413.149C452.91 413.965 452.567 414.762 452.245 415.51C451.549 417.065 450.883 418.425 450.288 419.62H451.66C452.174 418.542 452.729 417.308 453.303 415.938C453.666 415.102 454.019 414.208 454.383 413.285C455.934 413.636 457.533 413.757 459.122 413.644C459.812 413.541 460.47 413.293 461.05 412.919C461.63 412.544 462.118 412.052 462.48 411.477C462.622 411.199 462.701 410.895 462.712 410.585C462.724 410.276 462.668 409.967 462.548 409.68C462.429 409.392 462.248 409.132 462.017 408.916C461.786 408.7 461.511 408.533 461.21 408.426C459.374 407.833 456.571 409.845 455.542 411.186C455.482 411.263 454.927 412.157 454.584 412.789C454.725 412.41 454.877 412.041 455.018 411.652C455.31 410.884 455.583 410.107 455.875 409.271C455.996 408.863 456.127 408.455 456.258 408.037C456.389 407.619 456.49 407.172 456.601 406.745C456.853 405.773 457.055 404.694 457.236 403.645C458.675 404.188 460.192 404.516 461.734 404.617C462.431 404.614 463.119 404.465 463.749 404.18C464.38 403.894 464.938 403.48 465.385 402.965C465.569 402.711 465.697 402.422 465.758 402.117C465.819 401.813 465.814 401.499 465.742 401.197C465.669 400.895 465.532 400.61 465.339 400.363C465.145 400.115 464.9 399.909 464.618 399.758C462.894 398.903 459.798 400.487 458.568 401.701C458.487 401.769 457.71 402.673 457.287 403.237C457.388 402.605 457.499 401.973 457.579 401.293C457.821 399.437 458.003 397.562 458.194 395.686C458.245 395.113 458.315 394.54 458.376 393.966C459.863 394.536 461.43 394.89 463.025 395.016C463.722 395.013 464.409 394.864 465.04 394.579C465.671 394.294 466.229 393.879 466.676 393.364C466.862 393.111 466.99 392.823 467.052 392.519C467.114 392.215 467.109 391.901 467.037 391.599C466.964 391.298 466.827 391.014 466.632 390.767C466.438 390.52 466.191 390.315 465.909 390.167C464.185 389.302 461.099 390.886 459.858 392.062C459.768 392.149 458.648 393.5 458.376 393.859C458.517 392.596 458.668 391.342 458.86 390.108C459.128 388.445 459.502 386.8 459.979 385.182C461.477 385.753 463.054 386.11 464.659 386.241C465.355 386.238 466.043 386.089 466.674 385.804C467.304 385.519 467.863 385.104 468.309 384.589C468.495 384.335 468.624 384.046 468.686 383.742C468.749 383.437 468.743 383.123 468.671 382.82C468.599 382.517 468.461 382.233 468.266 381.985C468.072 381.737 467.825 381.532 467.543 381.382C465.818 380.527 462.733 382.111 461.492 383.326C461.391 383.413 460.191 384.871 459.99 385.152C459.99 385.055 460.04 384.958 460.07 384.861C460.593 383.25 461.268 381.689 462.087 380.196C462.521 379.361 462.995 378.593 463.469 377.855C464.857 378.568 466.35 379.073 467.896 379.351C468.588 379.421 469.288 379.347 469.948 379.132C470.608 378.917 471.212 378.568 471.718 378.107C471.93 377.873 472.088 377.599 472.183 377.302C472.278 377.005 472.308 376.692 472.27 376.384C472.232 376.075 472.127 375.778 471.962 375.511C471.798 375.243 471.577 375.012 471.315 374.832C469.701 373.802 466.454 375.046 465.092 376.086L463.852 377.281L464.507 376.309C465.314 375.134 466.141 374.104 466.867 373.2C467.291 372.685 467.674 372.228 468.047 371.81C469.614 371.826 471.175 371.613 472.676 371.179C473.324 370.933 473.908 370.555 474.389 370.07C474.87 369.585 475.235 369.005 475.459 368.37C475.537 368.069 475.549 367.756 475.492 367.45C475.436 367.144 475.313 366.854 475.133 366.597C474.952 366.34 474.717 366.123 474.443 365.96C474.169 365.796 473.862 365.691 473.543 365.649C471.617 365.445 469.328 367.991 468.622 369.536C468.561 369.663 467.856 371.83 467.896 371.83C467.533 372.228 467.14 372.665 466.726 373.142C465.98 374.036 465.133 375.085 464.296 376.212C463.376 377.461 462.531 378.759 461.764 380.099C460.905 381.597 460.183 383.164 459.606 384.783C459.606 384.783 459.606 384.783 459.606 384.841C459.606 384.297 459.606 382.762 459.606 382.645C459.384 380.993 457.952 377.923 456.036 377.582C455.719 377.536 455.394 377.554 455.084 377.636C454.774 377.717 454.485 377.861 454.236 378.057C453.987 378.253 453.784 378.497 453.639 378.773C453.494 379.05 453.41 379.353 453.394 379.662C453.422 380.333 453.602 380.991 453.92 381.588C454.239 382.186 454.689 382.709 455.24 383.121C456.576 383.98 458.042 384.636 459.586 385.065C459.04 386.726 458.612 388.421 458.305 390.137C458.124 391.109 457.973 392.149 457.831 393.169C457.831 392.693 457.831 392.275 457.831 392.198C457.61 390.546 456.167 387.475 454.261 387.135C453.944 387.088 453.619 387.106 453.309 387.188C452.999 387.27 452.71 387.413 452.461 387.609C452.212 387.805 452.009 388.049 451.864 388.326C451.719 388.602 451.635 388.905 451.619 389.214C451.646 389.886 451.825 390.544 452.144 391.141C452.462 391.739 452.913 392.262 453.465 392.674C454.76 393.507 456.182 394.14 457.68 394.549C457.63 394.938 457.569 395.327 457.519 395.725C457.287 397.591 457.065 399.466 456.793 401.293C456.692 401.944 456.571 402.566 456.45 403.237C456.45 402.809 456.45 402.459 456.45 402.401C456.228 400.749 454.786 397.678 452.88 397.338C452.562 397.292 452.238 397.31 451.928 397.391C451.617 397.473 451.329 397.617 451.08 397.813C450.831 398.009 450.627 398.253 450.482 398.529C450.337 398.806 450.254 399.108 450.238 399.418C450.266 400.089 450.445 400.746 450.764 401.344C451.083 401.941 451.533 402.465 452.083 402.877C453.337 403.691 454.715 404.311 456.167 404.714C456.026 405.355 455.885 406.006 455.724 406.657C455.603 407.075 455.512 407.493 455.361 407.901C455.209 408.309 455.088 408.727 454.947 409.135C454.655 409.903 454.362 410.7 454.06 411.448C453.848 411.963 453.646 412.42 453.435 412.954C453.545 412.313 453.717 411.059 453.727 410.952C453.703 409.484 453.29 408.045 452.527 406.774C452.547 406.613 452.547 406.449 452.527 406.288C452.487 405.98 452.381 405.683 452.214 405.418C452.048 405.152 451.825 404.923 451.56 404.746C451.296 404.569 450.995 404.448 450.679 404.39C450.362 404.333 450.037 404.34 449.723 404.413C447.848 404.889 446.698 408.057 446.577 409.728C446.577 409.825 446.638 410.894 446.688 411.574C446.597 411.176 446.506 410.797 446.406 410.389C446.204 409.592 445.992 408.805 445.75 407.95C445.629 407.542 445.498 407.133 445.367 406.716C445.236 406.298 445.064 405.88 444.913 405.452C444.54 404.481 444.116 403.509 443.673 402.537C445.186 402.236 446.642 401.711 447.989 400.982C448.569 400.609 449.059 400.118 449.423 399.544C449.786 398.97 450.016 398.327 450.097 397.659C450.105 397.349 450.045 397.04 449.921 396.753C449.798 396.467 449.613 396.208 449.379 395.995C449.145 395.781 448.867 395.618 448.564 395.514C448.26 395.411 447.937 395.37 447.616 395.395C445.69 395.599 444.016 398.553 443.663 400.195C443.663 400.292 443.531 401.488 443.481 402.139C443.209 401.565 442.936 400.982 442.634 400.399C441.777 398.728 440.849 397.066 439.931 395.395C439.649 394.889 439.377 394.374 439.104 393.869C440.672 393.555 442.182 393.014 443.582 392.266C444.163 391.895 444.652 391.406 445.016 390.834C445.38 390.261 445.61 389.619 445.69 388.952C445.698 388.642 445.638 388.333 445.514 388.046C445.391 387.76 445.206 387.501 444.972 387.288C444.738 387.074 444.46 386.911 444.157 386.807C443.853 386.704 443.53 386.663 443.209 386.688C441.283 386.892 439.609 389.846 439.256 391.479C439.256 391.605 439.074 393.335 439.054 393.772C438.449 392.645 437.854 391.517 437.309 390.38C436.574 388.854 435.944 387.283 435.423 385.677C437 385.359 438.519 384.819 439.931 384.074C440.51 383.701 440.997 383.212 441.359 382.64C441.721 382.067 441.95 381.426 442.029 380.76C442.038 380.45 441.98 380.142 441.858 379.855C441.735 379.569 441.551 379.31 441.318 379.096C441.085 378.883 440.808 378.719 440.505 378.615C440.201 378.512 439.879 378.471 439.558 378.496C437.622 378.7 435.958 381.654 435.605 383.287C435.605 383.413 435.403 385.23 435.393 385.609C435.393 385.522 435.323 385.425 435.302 385.327C434.81 383.705 434.472 382.043 434.294 380.362C434.193 379.438 434.143 378.544 434.112 377.67C435.678 377.53 437.212 377.16 438.661 376.572C439.28 376.262 439.821 375.826 440.248 375.294C440.675 374.762 440.976 374.147 441.131 373.491C441.175 373.184 441.152 372.871 441.062 372.573C440.972 372.275 440.817 371.998 440.609 371.762C440.4 371.525 440.143 371.334 439.852 371.2C439.561 371.066 439.245 370.992 438.923 370.984C436.987 370.984 434.99 373.744 434.455 375.328C434.455 375.415 434.233 376.3 434.102 376.99C434.102 376.591 434.102 376.193 434.102 375.814C434.102 374.405 434.193 373.112 434.294 371.927C434.344 371.276 434.415 370.693 434.475 370.139C435.793 369.322 436.973 368.316 437.975 367.156C438.374 366.605 438.644 365.978 438.768 365.317C438.891 364.656 438.865 363.977 438.691 363.327C438.583 363.035 438.412 362.768 438.19 362.544C437.968 362.319 437.699 362.143 437.401 362.025C437.103 361.908 436.783 361.853 436.461 361.862C436.14 361.872 435.824 361.948 435.534 362.083C433.81 362.938 433.356 366.281 433.649 367.913C433.649 368.05 434.324 370.236 434.354 370.217C434.274 370.741 434.203 371.305 434.133 371.927C434.012 373.074 433.891 374.366 433.86 375.814C433.804 377.34 433.841 378.869 433.971 380.391C434.109 382.097 434.403 383.788 434.849 385.444C434.853 385.463 434.853 385.483 434.849 385.502C434.546 385.036 433.649 383.773 433.568 383.685C432.438 382.422 429.534 380.634 427.699 381.363C427.406 381.492 427.145 381.679 426.933 381.912C426.721 382.145 426.562 382.419 426.467 382.715C426.372 383.011 426.342 383.323 426.381 383.631C426.419 383.939 426.525 384.235 426.69 384.501C427.108 385.011 427.633 385.43 428.231 385.729C428.829 386.029 429.486 386.204 430.159 386.241Z" fill="#828282"/>
<path d="M463.388 377.466C463.388 377.466 464.013 375.289 464.033 375.143C464.265 373.491 463.721 370.168 462.016 369.313C461.723 369.186 461.405 369.12 461.084 369.119C460.762 369.118 460.444 369.183 460.15 369.308C459.856 369.434 459.593 369.618 459.377 369.848C459.162 370.078 459 370.349 458.9 370.644C458.741 371.299 458.732 371.979 458.875 372.637C459.018 373.295 459.309 373.915 459.727 374.453C460.504 375.717 463.388 377.466 463.388 377.466Z" fill="#828282"/>
<path d="M486.603 392.421C487.59 392.669 488.609 392.777 489.628 392.742C489.628 392.742 489.164 391.381 489.124 391.294C488.65 390.322 487.158 388.767 485.937 388.923C485.735 388.954 485.542 389.026 485.371 389.134C485.2 389.242 485.054 389.384 484.943 389.55C484.833 389.716 484.76 389.902 484.73 390.098C484.7 390.293 484.712 390.492 484.768 390.682C484.922 391.084 485.166 391.448 485.484 391.749C485.801 392.05 486.183 392.279 486.603 392.421Z" fill="#828282"/>
<path d="M487.349 398.427C488.376 398.425 489.396 398.271 490.374 397.97C490.695 399.032 491.086 400.074 491.544 401.089C491.816 401.682 492.099 402.265 492.391 402.858C492.22 402.605 492.059 402.382 492.028 402.352C491.312 401.556 489.437 400.409 488.307 400.875C488.121 400.957 487.955 401.075 487.819 401.223C487.684 401.371 487.583 401.544 487.522 401.732C487.461 401.92 487.442 402.119 487.466 402.314C487.49 402.51 487.557 402.698 487.662 402.867C487.918 403.215 488.251 403.503 488.636 403.713C489.021 403.923 489.449 404.049 489.89 404.082C490.879 404.084 491.862 403.94 492.805 403.655C492.916 403.878 493.027 404.102 493.148 404.325C493.702 405.394 494.267 406.463 494.781 407.522C494.963 407.891 495.134 408.27 495.296 408.649C495.144 408.426 495.013 408.241 494.983 408.212C494.267 407.415 492.391 406.269 491.262 406.735C491.083 406.817 490.923 406.934 490.792 407.078C490.662 407.222 490.563 407.39 490.503 407.572C490.442 407.754 490.421 407.946 490.441 408.137C490.46 408.327 490.52 408.511 490.616 408.679C490.868 409.026 491.195 409.316 491.574 409.529C491.954 409.742 492.377 409.873 492.815 409.913C493.775 409.916 494.731 409.778 495.649 409.505C495.81 409.893 495.971 410.282 496.102 410.661C496.234 411.04 496.294 411.176 496.365 411.448C496.435 411.72 496.516 411.973 496.597 412.235C496.718 412.741 496.849 413.265 496.96 413.761C497.04 414.101 497.111 414.431 497.181 414.733L496.607 413.576C496.022 412.682 494.338 411.283 493.148 411.574C492.951 411.628 492.768 411.721 492.612 411.848C492.455 411.974 492.328 412.131 492.238 412.308C492.149 412.485 492.099 412.678 492.093 412.875C492.086 413.072 492.122 413.268 492.2 413.45C492.399 413.831 492.684 414.165 493.032 414.429C493.381 414.692 493.785 414.879 494.217 414.976C495.219 415.122 496.239 415.122 497.242 414.976C497.353 415.52 497.464 416.064 497.555 416.569C497.756 417.687 497.908 418.697 498.029 419.543H498.835C498.694 418.668 498.513 417.599 498.271 416.443C498.15 415.879 498.018 415.286 497.877 414.674C498.453 414.452 499.015 414.199 499.561 413.916C500.302 414.528 501.127 415.038 502.012 415.432C501.79 415.957 501.578 416.462 501.357 416.929C500.913 417.901 500.489 418.795 500.116 419.543H500.983C501.306 418.853 501.659 418.075 501.992 417.201C502.214 416.676 502.446 416.112 502.678 415.529C503.67 415.744 504.689 415.819 505.703 415.753C506.141 415.687 506.558 415.529 506.926 415.291C507.294 415.053 507.603 414.739 507.831 414.373C507.923 414.196 507.975 414.003 507.983 413.805C507.992 413.607 507.957 413.41 507.881 413.227C507.805 413.043 507.689 412.877 507.541 412.74C507.393 412.602 507.217 412.496 507.024 412.43C505.864 412.051 504.079 413.324 503.434 414.179C503.434 414.227 503.041 414.82 502.819 415.199C502.91 414.956 503 414.723 503.101 414.48C503.283 413.984 503.454 413.508 503.636 412.964C503.716 412.702 503.797 412.449 503.888 412.177C503.979 411.905 504.029 411.633 504.1 411.361C504.261 410.719 504.392 410.058 504.503 409.417C505.416 409.765 506.378 409.978 507.357 410.049C507.8 410.048 508.237 409.954 508.638 409.772C509.038 409.591 509.393 409.327 509.676 408.999C509.795 408.838 509.877 408.655 509.916 408.461C509.956 408.268 509.952 408.068 509.906 407.876C509.859 407.684 509.77 407.504 509.645 407.347C509.521 407.191 509.363 407.061 509.182 406.968C508.093 406.424 506.157 407.425 505.35 408.173C505.35 408.222 504.805 408.815 504.543 409.145C504.614 408.747 504.674 408.348 504.725 407.94C504.876 406.764 504.997 405.569 505.118 404.383C505.118 404.014 505.199 403.655 505.229 403.285C506.174 403.648 507.17 403.874 508.184 403.956C508.627 403.955 509.064 403.861 509.465 403.679C509.865 403.498 510.22 403.234 510.503 402.906C510.62 402.745 510.701 402.562 510.74 402.368C510.778 402.175 510.774 401.976 510.727 401.784C510.681 401.593 510.593 401.413 510.469 401.256C510.345 401.099 510.188 400.97 510.009 400.875C508.92 400.331 506.984 401.332 506.187 402.08C506.127 402.139 505.411 402.994 505.239 403.217C505.33 402.42 505.421 401.624 505.552 400.846C505.715 399.786 505.951 398.738 506.258 397.707C507.206 398.074 508.205 398.304 509.222 398.388C509.665 398.387 510.102 398.293 510.503 398.111C510.904 397.93 511.259 397.666 511.542 397.338C511.66 397.178 511.741 396.995 511.78 396.802C511.819 396.609 511.816 396.41 511.771 396.219C511.725 396.027 511.638 395.847 511.515 395.69C511.392 395.533 511.236 395.402 511.058 395.307C509.959 394.763 508.033 395.764 507.226 396.512C507.165 396.571 506.399 397.484 506.268 397.669C506.268 397.61 506.268 397.542 506.268 397.484C506.61 396.463 507.042 395.471 507.559 394.52C507.841 393.995 508.133 393.548 508.436 393.043C509.318 393.5 510.267 393.827 511.25 394.015C511.689 394.06 512.133 394.013 512.551 393.875C512.969 393.737 513.351 393.513 513.67 393.218C513.804 393.069 513.904 392.895 513.964 392.707C514.024 392.519 514.043 392.32 514.019 392.125C513.995 391.929 513.93 391.74 513.826 391.571C513.723 391.401 513.583 391.254 513.418 391.138C512.409 390.487 510.332 391.274 509.465 391.935L508.678 392.693L509.091 392.062C509.606 391.323 510.1 390.662 510.594 390.118C510.856 389.797 511.108 389.506 511.34 389.234C512.334 389.248 513.324 389.114 514.275 388.835C514.688 388.682 515.061 388.443 515.367 388.136C515.674 387.829 515.907 387.46 516.05 387.057C516.098 386.866 516.105 386.666 516.068 386.472C516.032 386.278 515.953 386.094 515.838 385.931C515.723 385.768 515.574 385.63 515.4 385.526C515.227 385.422 515.032 385.354 514.83 385.327C513.609 385.201 512.157 386.814 511.703 387.786C511.703 387.864 511.219 389.244 511.239 389.244L510.503 390.069C510.019 390.633 509.495 391.284 508.95 392.013C508.368 392.803 507.833 393.623 507.347 394.472C506.804 395.424 506.345 396.419 505.975 397.445C505.975 397.095 505.975 396.124 505.975 396.055C505.834 394.996 504.967 393.053 503.716 392.839C503.514 392.809 503.307 392.82 503.11 392.872C502.912 392.923 502.728 393.014 502.569 393.139C502.41 393.263 502.281 393.419 502.188 393.595C502.096 393.771 502.042 393.964 502.032 394.161C502.053 394.586 502.169 395.002 502.37 395.381C502.572 395.76 502.856 396.092 503.202 396.357C504.054 396.892 504.986 397.298 505.965 397.562C505.621 398.618 505.351 399.696 505.158 400.788C505.037 401.42 504.937 402.061 504.846 402.731C504.846 402.43 504.846 402.158 504.846 402.119C504.705 401.07 503.787 399.126 502.577 398.903C502.375 398.874 502.17 398.886 501.973 398.939C501.777 398.991 501.594 399.082 501.436 399.207C501.279 399.331 501.15 399.486 501.058 399.661C500.966 399.836 500.913 400.028 500.903 400.224C500.919 400.651 501.032 401.068 501.234 401.448C501.437 401.827 501.723 402.159 502.073 402.42C502.895 402.948 503.796 403.351 504.745 403.616C504.745 403.859 504.674 404.102 504.644 404.354C504.503 405.54 504.362 406.735 504.18 407.891C504.12 408.3 504.039 408.698 503.968 409.106C503.968 408.834 503.968 408.611 503.968 408.581C503.827 407.532 502.96 405.579 501.709 405.365C501.507 405.335 501.3 405.346 501.103 405.397C500.905 405.449 500.721 405.54 500.562 405.665C500.404 405.789 500.274 405.945 500.181 406.121C500.089 406.297 500.036 406.489 500.025 406.686C500.045 407.112 500.16 407.529 500.362 407.908C500.564 408.286 500.848 408.619 501.195 408.883C501.995 409.396 502.873 409.786 503.797 410.039C503.706 410.457 503.615 410.865 503.515 411.254C503.414 411.642 503.373 411.778 503.283 412.041C503.192 412.303 503.111 412.566 503.02 412.828C502.839 413.314 502.647 413.8 502.456 414.295C502.264 414.791 502.194 414.937 502.062 415.267C502.123 414.859 502.244 414.062 502.244 413.994C502.227 413.066 501.967 412.156 501.488 411.351C501.488 411.244 501.488 411.137 501.488 411.04C501.462 410.844 501.394 410.655 501.288 410.486C501.181 410.318 501.04 410.172 500.871 410.059C500.703 409.947 500.512 409.869 500.311 409.832C500.109 409.795 499.902 409.8 499.703 409.845C498.513 410.156 497.756 412.157 497.686 413.217C497.686 413.285 497.686 413.965 497.756 414.392C497.696 414.14 497.645 413.897 497.575 413.644C497.454 413.139 497.313 412.672 497.161 412.089L496.919 411.312C496.839 411.05 496.728 410.778 496.627 410.505C496.395 409.893 496.123 409.271 495.84 408.659C496.801 408.473 497.726 408.146 498.583 407.687C498.952 407.451 499.262 407.14 499.492 406.775C499.722 406.411 499.866 406.003 499.914 405.579C499.929 405.378 499.9 405.177 499.827 404.989C499.754 404.801 499.64 404.63 499.493 404.488C499.346 404.346 499.168 404.237 498.973 404.167C498.778 404.097 498.569 404.068 498.361 404.082C497.131 404.218 496.072 406.094 495.85 407.133C495.85 407.192 495.76 407.95 495.729 408.377C495.558 408.008 495.386 407.639 495.195 407.27C494.65 406.21 494.065 405.151 493.48 404.092C493.299 403.771 493.127 403.441 492.956 403.12C493.949 402.934 494.907 402.607 495.8 402.148C496.168 401.912 496.479 401.601 496.709 401.236C496.939 400.872 497.083 400.464 497.131 400.04C497.136 399.843 497.098 399.647 497.019 399.465C496.941 399.284 496.824 399.12 496.676 398.984C496.527 398.849 496.351 398.745 496.159 398.679C495.966 398.613 495.762 398.586 495.558 398.601C494.338 398.738 493.279 400.613 493.057 401.643C493.057 401.721 492.936 402.819 492.926 403.101C492.532 402.382 492.159 401.672 491.816 400.953C491.349 399.982 490.949 398.982 490.616 397.96C491.617 397.777 492.582 397.45 493.48 396.988C493.849 396.752 494.159 396.441 494.389 396.076C494.619 395.712 494.763 395.304 494.812 394.88C494.816 394.683 494.778 394.487 494.7 394.305C494.621 394.124 494.504 393.96 494.356 393.824C494.208 393.689 494.032 393.585 493.839 393.519C493.647 393.453 493.442 393.426 493.238 393.441C492.018 393.568 490.959 395.453 490.737 396.483C490.737 396.571 490.606 397.746 490.606 397.96L490.536 397.785C490.234 396.752 490.028 395.695 489.921 394.627C489.85 394.034 489.82 393.471 489.8 392.917C490.793 392.83 491.766 392.594 492.684 392.217C493.077 392.023 493.422 391.749 493.694 391.413C493.966 391.078 494.158 390.689 494.257 390.274C494.284 390.078 494.268 389.88 494.21 389.691C494.153 389.502 494.055 389.327 493.923 389.177C493.791 389.027 493.628 388.905 493.444 388.82C493.26 388.734 493.059 388.686 492.855 388.68C491.625 388.68 490.354 390.429 490.021 391.43C490.021 391.488 489.87 392.062 489.789 392.489C489.789 392.237 489.789 391.984 489.789 391.741C489.789 390.847 489.85 390.021 489.91 389.302C489.91 388.884 489.991 388.515 490.031 388.165C490.865 387.644 491.613 387.005 492.25 386.27C492.506 385.922 492.679 385.524 492.757 385.104C492.835 384.684 492.817 384.253 492.704 383.841C492.635 383.654 492.526 383.483 492.384 383.339C492.242 383.196 492.071 383.083 491.88 383.008C491.69 382.932 491.485 382.897 491.28 382.903C491.074 382.909 490.872 382.957 490.687 383.044C489.598 383.588 489.305 385.716 489.487 386.756C489.487 386.843 489.921 388.233 489.941 388.223C489.89 388.554 489.84 388.913 489.8 389.312C489.729 390.04 489.648 390.857 489.628 391.76C489.587 392.733 489.611 393.706 489.699 394.676C489.786 395.758 489.971 396.831 490.253 397.882C490.062 397.591 489.497 396.784 489.447 396.726C488.72 395.929 486.845 394.782 485.715 395.249C485.529 395.33 485.363 395.449 485.228 395.597C485.092 395.744 484.991 395.918 484.93 396.106C484.869 396.294 484.85 396.492 484.874 396.688C484.898 396.883 484.965 397.072 485.07 397.241C485.335 397.589 485.677 397.876 486.071 398.081C486.465 398.286 486.902 398.404 487.349 398.427Z" fill="#828282"/>
<path d="M508.446 392.858C508.446 392.858 508.84 391.478 508.85 391.381C509.001 390.332 508.658 388.223 507.549 387.708C507.361 387.621 507.155 387.574 506.947 387.57C506.738 387.566 506.531 387.605 506.339 387.686C506.148 387.766 505.977 387.885 505.837 388.035C505.698 388.184 505.594 388.361 505.532 388.554C505.431 388.968 505.426 389.398 505.517 389.814C505.608 390.231 505.792 390.623 506.056 390.963C506.749 391.708 507.555 392.346 508.446 392.858Z" fill="#828282"/>
<path d="M142.829 390.934C143.816 391.183 144.835 391.291 145.854 391.255C145.854 391.255 145.39 389.895 145.35 389.817C144.876 388.845 143.333 387.281 142.153 387.446C141.952 387.477 141.76 387.549 141.59 387.656C141.419 387.763 141.274 387.904 141.164 388.069C141.054 388.234 140.98 388.42 140.949 388.614C140.918 388.807 140.93 389.006 140.983 389.195C141.139 389.598 141.385 389.963 141.704 390.264C142.023 390.565 142.407 390.794 142.829 390.934Z" fill="#828282"/>
<path d="M143.575 396.959C144.601 396.954 145.62 396.803 146.601 396.512C146.917 397.573 147.308 398.612 147.77 399.622C148.033 400.215 148.315 400.807 148.607 401.39C148.436 401.138 148.275 400.924 148.254 400.895C147.528 400.088 145.653 398.951 144.523 399.418C144.337 399.499 144.171 399.618 144.035 399.765C143.9 399.913 143.799 400.087 143.738 400.275C143.677 400.463 143.658 400.661 143.682 400.857C143.706 401.052 143.773 401.241 143.878 401.41C144.135 401.755 144.468 402.042 144.854 402.25C145.239 402.458 145.666 402.583 146.106 402.615C147.095 402.616 148.078 402.472 149.021 402.187C149.142 402.411 149.253 402.634 149.364 402.858C149.928 403.927 150.483 404.996 151.007 406.055C151.189 406.434 151.35 406.803 151.522 407.182L151.209 406.754C150.483 405.948 148.607 404.811 147.478 405.277C147.299 405.36 147.139 405.476 147.008 405.62C146.878 405.764 146.779 405.932 146.719 406.115C146.658 406.297 146.637 406.489 146.657 406.679C146.676 406.869 146.736 407.054 146.832 407.221C147.09 407.566 147.423 407.853 147.808 408.061C148.193 408.269 148.621 408.394 149.061 408.426C150.022 408.434 150.978 408.296 151.895 408.018C152.056 408.406 152.218 408.795 152.349 409.174C152.48 409.553 152.54 409.689 152.611 409.961C152.682 410.233 152.762 410.486 152.843 410.748C152.964 411.254 153.105 411.778 153.216 412.274C153.287 412.624 153.357 412.954 153.428 413.246C153.256 412.867 152.893 412.148 152.853 412.089C152.268 411.186 150.594 409.786 149.404 410.078C149.202 410.125 149.013 410.213 148.849 410.337C148.686 410.46 148.552 410.616 148.456 410.794C148.361 410.972 148.306 411.167 148.295 411.367C148.285 411.567 148.319 411.767 148.396 411.953C148.595 412.334 148.879 412.669 149.228 412.932C149.577 413.196 149.981 413.383 150.413 413.479C151.415 413.626 152.435 413.626 153.438 413.479C153.549 414.033 153.66 414.567 153.751 415.073C153.952 416.2 154.114 417.201 154.224 418.056H155.031C154.89 417.172 154.709 416.112 154.467 414.946C154.356 414.383 154.224 413.79 154.073 413.178C154.652 412.963 155.215 412.71 155.757 412.42C156.501 413.029 157.325 413.542 158.208 413.945C157.996 414.46 157.774 414.917 157.562 415.442C157.109 416.414 156.685 417.308 156.312 418.056H157.189C157.512 417.366 157.865 416.579 158.198 415.714C158.43 415.189 158.652 414.616 158.884 414.033C159.874 414.257 160.895 414.333 161.909 414.256C162.346 414.192 162.763 414.036 163.131 413.799C163.498 413.562 163.808 413.251 164.037 412.886C164.127 412.71 164.179 412.517 164.187 412.32C164.195 412.123 164.161 411.927 164.086 411.744C164.011 411.561 163.897 411.395 163.751 411.257C163.605 411.119 163.431 411.012 163.24 410.943C162.07 410.564 160.295 411.846 159.64 412.692C159.64 412.75 159.247 413.333 159.025 413.712C159.126 413.469 159.216 413.236 159.307 412.993C159.489 412.507 159.66 412.021 159.852 411.477L160.094 410.7C160.184 410.437 160.235 410.146 160.316 409.874C160.467 409.232 160.598 408.572 160.709 407.93C161.621 408.281 162.583 408.494 163.563 408.562C164.006 408.561 164.443 408.467 164.844 408.285C165.244 408.104 165.599 407.84 165.882 407.512C166 407.352 166.081 407.169 166.12 406.976C166.16 406.783 166.156 406.584 166.111 406.393C166.065 406.201 165.978 406.021 165.855 405.864C165.733 405.707 165.577 405.577 165.398 405.481C164.299 404.937 162.373 405.938 161.566 406.686C161.566 406.735 161.022 407.328 160.749 407.658C160.82 407.26 160.89 406.861 160.941 406.453C161.092 405.277 161.203 404.082 161.324 402.897L161.445 401.808C162.387 402.169 163.38 402.391 164.39 402.469C164.832 402.469 165.268 402.377 165.669 402.197C166.07 402.017 166.425 401.755 166.709 401.429C166.827 401.268 166.908 401.084 166.948 400.891C166.987 400.697 166.984 400.498 166.938 400.305C166.893 400.113 166.806 399.932 166.683 399.774C166.56 399.616 166.404 399.485 166.225 399.389C165.126 398.844 163.2 399.845 162.393 400.594C162.333 400.652 161.616 401.507 161.455 401.74C161.536 400.934 161.637 400.137 161.758 399.359C161.952 398.327 162.214 397.308 162.544 396.308C163.494 396.667 164.493 396.893 165.509 396.979C165.952 396.978 166.389 396.884 166.79 396.702C167.191 396.521 167.545 396.257 167.829 395.929C167.946 395.768 168.026 395.585 168.065 395.391C168.104 395.198 168.099 394.999 168.053 394.807C168.006 394.615 167.918 394.435 167.794 394.279C167.671 394.122 167.514 393.992 167.334 393.898C166.245 393.354 164.309 394.355 163.502 395.103C163.442 395.161 162.675 396.075 162.554 396.26C162.554 396.201 162.554 396.143 162.605 396.085C162.936 395.061 163.365 394.069 163.886 393.121C164.168 392.596 164.46 392.1 164.763 391.634C165.645 392.091 166.594 392.418 167.576 392.606C168.016 392.651 168.46 392.604 168.878 392.466C169.296 392.328 169.678 392.104 169.997 391.809C170.132 391.661 170.233 391.488 170.294 391.301C170.355 391.113 170.374 390.915 170.35 390.72C170.327 390.524 170.26 390.336 170.156 390.167C170.052 389.998 169.911 389.852 169.745 389.739C168.736 389.078 166.659 389.865 165.802 390.526L165.005 391.284C165.146 391.08 165.287 390.857 165.428 390.662C165.943 389.914 166.437 389.263 166.921 388.719C167.193 388.398 167.435 388.107 167.677 387.844C168.668 387.854 169.655 387.716 170.602 387.436C171.009 387.273 171.375 387.025 171.673 386.711C171.971 386.398 172.194 386.025 172.326 385.619C172.376 385.427 172.384 385.228 172.348 385.033C172.313 384.838 172.234 384.653 172.119 384.49C172.004 384.327 171.854 384.189 171.679 384.085C171.505 383.981 171.309 383.915 171.106 383.889C169.886 383.763 168.434 385.376 167.99 386.348C167.99 386.435 167.496 387.805 167.526 387.805L166.79 388.631C166.316 389.205 165.781 389.846 165.247 390.575C164.663 391.364 164.128 392.185 163.643 393.033C163.094 393.983 162.635 394.978 162.272 396.007C162.272 395.657 162.272 394.685 162.272 394.617C162.131 393.568 161.264 391.615 160.003 391.401C159.801 391.371 159.595 391.382 159.398 391.433C159.201 391.485 159.017 391.576 158.859 391.701C158.701 391.826 158.573 391.981 158.481 392.157C158.39 392.333 158.338 392.526 158.329 392.722C158.346 393.152 158.462 393.572 158.668 393.954C158.873 394.335 159.164 394.668 159.519 394.928C160.369 395.463 161.297 395.872 162.272 396.143C161.928 397.196 161.658 398.271 161.465 399.359C161.344 399.991 161.253 400.632 161.163 401.303C161.163 401.002 161.163 400.73 161.163 400.691C161.021 399.641 160.154 397.698 158.904 397.484C158.701 397.454 158.495 397.465 158.297 397.517C158.1 397.568 157.915 397.659 157.757 397.784C157.598 397.908 157.468 398.064 157.376 398.24C157.283 398.416 157.23 398.608 157.22 398.806C157.237 399.23 157.351 399.646 157.553 400.023C157.756 400.401 158.041 400.732 158.389 400.992C159.2 401.496 160.084 401.883 161.011 402.139L160.921 402.877C160.769 404.072 160.628 405.258 160.447 406.414C160.386 406.822 160.316 407.231 160.235 407.629C160.235 407.367 160.235 407.133 160.235 407.104C160.094 406.055 159.226 404.102 157.966 403.888C157.764 403.858 157.558 403.869 157.361 403.92C157.164 403.972 156.98 404.063 156.822 404.188C156.664 404.313 156.535 404.468 156.444 404.644C156.353 404.82 156.301 405.013 156.292 405.209C156.309 405.644 156.426 406.069 156.635 406.454C156.845 406.839 157.141 407.174 157.502 407.435C158.3 407.946 159.174 408.339 160.094 408.601C160.003 409.009 159.922 409.417 159.811 409.806C159.7 410.194 159.68 410.34 159.579 410.603C159.479 410.865 159.408 411.118 159.317 411.38C159.136 411.866 158.944 412.352 158.752 412.847C158.561 413.343 158.49 413.489 158.359 413.819C158.43 413.421 158.541 412.614 158.541 412.546C158.528 411.617 158.267 410.707 157.784 409.903C157.795 409.8 157.795 409.695 157.784 409.592C157.757 409.397 157.688 409.209 157.582 409.041C157.475 408.873 157.333 408.728 157.165 408.615C156.997 408.503 156.807 408.425 156.606 408.388C156.405 408.35 156.199 408.353 155.999 408.397C154.819 408.708 154.063 410.719 153.982 411.778C153.982 411.837 153.982 412.517 154.053 412.945C154.053 412.692 153.942 412.449 153.882 412.196C153.751 411.691 153.609 411.225 153.468 410.651C153.387 410.389 153.307 410.126 153.216 409.864C153.125 409.602 153.024 409.33 152.934 409.067C152.702 408.445 152.429 407.823 152.137 407.211C153.098 407.027 154.024 406.699 154.88 406.239C155.247 405.994 155.553 405.673 155.776 405.3C156 404.927 156.134 404.511 156.171 404.082C156.177 403.885 156.14 403.689 156.062 403.506C155.984 403.324 155.867 403.159 155.719 403.023C155.57 402.887 155.394 402.783 155.2 402.718C155.007 402.653 154.802 402.627 154.598 402.644C153.377 402.77 152.308 404.646 152.087 405.686C152.087 405.744 152.006 406.512 151.976 406.929C151.794 406.56 151.623 406.191 151.431 405.822C150.886 404.762 150.302 403.703 149.717 402.644C149.545 402.323 149.364 402.003 149.192 401.672C150.186 401.491 151.146 401.163 152.036 400.7C152.405 400.464 152.715 400.153 152.945 399.789C153.175 399.424 153.319 399.016 153.367 398.592C153.374 398.395 153.337 398.199 153.259 398.017C153.181 397.835 153.064 397.671 152.915 397.536C152.766 397.401 152.589 397.298 152.396 397.233C152.203 397.169 151.998 397.145 151.794 397.163C150.574 397.29 149.515 399.165 149.293 400.205C149.293 400.283 149.172 401.371 149.162 401.653C148.779 400.943 148.396 400.224 148.053 399.505C147.592 398.535 147.191 397.538 146.853 396.522C147.854 396.32 148.819 395.976 149.717 395.502C150.085 395.265 150.395 394.954 150.625 394.59C150.855 394.225 151 393.817 151.048 393.393C151.058 393.19 151.022 392.988 150.943 392.8C150.864 392.613 150.744 392.443 150.591 392.305C150.437 392.166 150.254 392.061 150.055 391.998C149.855 391.934 149.643 391.912 149.434 391.935C148.214 392.071 147.155 393.947 146.933 394.987C146.933 395.064 146.802 396.24 146.802 396.454C146.778 396.397 146.757 396.339 146.742 396.279C146.431 395.247 146.222 394.19 146.116 393.121C146.046 392.538 146.016 391.964 145.995 391.42C146.991 391.329 147.967 391.093 148.89 390.721C149.281 390.526 149.624 390.251 149.894 389.915C150.164 389.58 150.355 389.191 150.453 388.777C150.481 388.582 150.467 388.383 150.41 388.193C150.353 388.004 150.255 387.828 150.123 387.677C149.99 387.527 149.826 387.405 149.642 387.32C149.457 387.235 149.256 387.188 149.051 387.183C147.821 387.183 146.56 388.933 146.217 389.943C146.217 389.992 146.076 390.575 145.995 390.993C145.995 390.74 145.995 390.487 145.995 390.244C145.995 389.35 146.056 388.534 146.116 387.805C146.116 387.387 146.197 387.018 146.237 386.668C147.073 386.15 147.822 385.511 148.456 384.773C148.712 384.425 148.885 384.027 148.963 383.607C149.041 383.188 149.023 382.756 148.91 382.344C148.843 382.156 148.735 381.984 148.593 381.84C148.451 381.696 148.279 381.582 148.087 381.508C147.896 381.433 147.691 381.399 147.485 381.407C147.279 381.416 147.077 381.467 146.893 381.557C145.794 382.101 145.511 384.22 145.693 385.259C145.693 385.356 146.116 386.736 146.137 386.727C146.086 387.067 146.046 387.426 145.995 387.815C145.925 388.544 145.844 389.36 145.824 390.264C145.793 391.236 145.817 392.209 145.895 393.179C145.985 394.262 146.174 395.335 146.459 396.386C146.268 396.094 145.693 395.288 145.642 395.239C144.926 394.433 143.051 393.296 141.911 393.762C141.726 393.845 141.561 393.964 141.427 394.112C141.292 394.26 141.191 394.433 141.131 394.62C141.07 394.808 141.05 395.006 141.074 395.201C141.097 395.396 141.162 395.585 141.266 395.754C141.535 396.107 141.881 396.398 142.28 396.606C142.68 396.814 143.122 396.935 143.575 396.959Z" fill="#828282"/>
<path d="M164.662 391.391C164.662 391.391 165.056 390.011 165.076 389.924C165.227 388.874 164.874 386.756 163.765 386.241C163.577 386.153 163.371 386.106 163.163 386.102C162.954 386.099 162.747 386.138 162.555 386.218C162.364 386.299 162.193 386.418 162.053 386.567C161.914 386.717 161.81 386.894 161.748 387.086C161.65 387.502 161.646 387.934 161.737 388.351C161.827 388.768 162.01 389.162 162.272 389.506C162.968 390.245 163.773 390.88 164.662 391.391Z" fill="#828282"/>
<path d="M379.465 397.464C379.258 397.408 379.038 397.416 378.836 397.487C378.633 397.558 378.457 397.689 378.331 397.863C377.052 399.604 373.243 404.565 370.241 406.397C366.613 408.629 360.69 410.461 360.264 412.293C360.171 412.67 360.162 413.062 360.24 413.443C360.317 413.823 360.478 414.181 360.71 414.492C360.943 414.803 361.241 415.058 361.584 415.239C361.928 415.42 362.307 415.523 362.694 415.54C364.118 415.54 369.606 416.556 376.726 415.948C383.845 415.34 387.292 413.309 391.555 414.134C395.818 414.959 399.282 415.159 400.906 412.32C402.23 409.998 401.668 401.745 401.414 398.77C401.402 398.628 401.363 398.489 401.298 398.363C401.233 398.236 401.143 398.124 401.035 398.032C400.926 397.94 400.8 397.87 400.664 397.827C400.529 397.784 400.386 397.769 400.244 397.781C396.652 398.053 384.852 398.897 379.465 397.464Z" fill="white" stroke="#263238" stroke-width="0.948863" stroke-linecap="round" stroke-linejoin="round"/>
<path d="M391.582 414.116C395.854 414.932 399.31 415.141 400.933 412.302C401.11 411.966 401.244 411.61 401.332 411.241C401.377 411.056 401.372 410.863 401.318 410.68C401.265 410.498 401.164 410.333 401.025 410.202C400.887 410.072 400.717 409.98 400.532 409.936C400.347 409.892 400.154 409.898 399.972 409.953C396.233 410.888 392.389 411.336 388.535 411.286C383.256 411.286 382.44 411.894 372.889 413.517C368.73 414.286 364.468 414.313 360.3 413.599C360.439 414.142 360.75 414.625 361.186 414.977C361.623 415.328 362.162 415.529 362.722 415.549C364.146 415.549 369.633 416.565 376.753 415.957C383.873 415.349 387.319 413.309 391.582 414.116Z" fill="white" stroke="#263238" stroke-width="0.948863" stroke-linecap="round" stroke-linejoin="round"/>
<path d="M402.212 397.89C401.969 397.822 401.71 397.84 401.48 397.943C401.25 398.046 401.063 398.226 400.951 398.452C399.818 400.702 396.416 407.114 393.614 409.445C390.158 412.293 383.864 413.717 383.637 416.556C383.41 419.395 386.485 419.812 387.909 419.812C389.333 419.812 398.684 421.236 403.963 419.812C409.241 418.388 412.706 418.996 415.345 418.388C417.985 417.78 423.272 417.78 424.488 415.948C425.495 414.442 424.56 406.878 424.207 404.23C424.17 403.987 424.05 403.764 423.869 403.599C423.687 403.434 423.454 403.337 423.209 403.323C420.851 403.159 414.293 402.588 410.674 400.937C407.932 399.717 405.103 398.698 402.212 397.89Z" fill="white" stroke="#263238" stroke-width="0.948863" stroke-linecap="round" stroke-linejoin="round"/>
<path d="M424.506 415.948C424.923 415.331 425.005 413.69 424.941 411.785C423.602 412 422.288 412.356 421.023 412.846C414.203 415.422 406.312 418.007 396.308 417.853C389.614 417.753 385.65 416.773 383.746 416.129C383.706 416.269 383.676 416.412 383.655 416.556C383.456 419.404 386.503 419.812 387.927 419.812C389.351 419.812 398.702 421.236 403.981 419.812C409.259 418.388 412.724 418.996 415.363 418.388C418.003 417.78 423.291 417.78 424.506 415.948Z" fill="white" stroke="#263238" stroke-width="0.948863" stroke-linecap="round" stroke-linejoin="round"/>
<path d="M369.025 262.621C369.025 262.621 367.601 309.975 370.041 323.798C372.481 337.62 375.12 370.054 375.936 373.882C376.58 376.929 377.977 383.405 378.539 385.99C378.598 386.259 378.552 386.54 378.411 386.776C378.269 387.012 378.043 387.185 377.778 387.26C377.156 387.428 376.612 387.807 376.239 388.331C375.865 388.855 375.684 389.493 375.728 390.135C375.728 392.684 376.154 396.928 376.299 398.298C376.314 398.451 376.362 398.598 376.438 398.731C376.515 398.864 376.619 398.979 376.744 399.069C377.46 399.586 379.365 400.692 384.272 402.37C388.336 403.8 392.739 403.962 396.897 402.833C397.008 402.8 397.112 402.748 397.205 402.679C397.822 402.234 400.489 400.384 401.74 400.747C403.155 401.146 408.443 404.203 414.338 405.418C420.234 406.633 424.089 406.633 424.315 405.617C425.178 401.821 425.52 397.924 425.331 394.035C424.923 388.756 424.723 389.972 424.315 385.5C423.907 381.029 426.129 351.271 424.515 339.688C422.9 328.106 420.66 326.274 420.252 318.138C419.844 310.002 422.846 261.605 422.846 261.605C422.846 261.605 402.729 265.061 394.802 263.229C386.875 261.397 383.419 257.134 378.131 256.526C372.844 255.919 369.025 262.621 369.025 262.621Z" fill="#263238" stroke="#263238" stroke-width="0.948863" stroke-linecap="round" stroke-linejoin="round"/>
<path d="M375.039 156.558C375.039 156.558 366.876 158.263 364.799 161.855C362.722 165.446 359.157 182.715 359.157 182.715L350.087 202.352L362.205 218.233L366.304 213.626L368.527 242.822L365.806 263.138L371.955 267.238L376.227 259.556L377.932 268.09C385.969 271.211 394.662 272.256 403.21 271.129C417.386 269.251 426.266 262.422 426.266 262.422C426.266 262.422 426.601 239.203 426.773 238.686C426.946 238.169 428.479 212.564 428.479 212.564C428.479 212.564 422.13 166.97 421.141 162.68C420.152 158.39 420.796 157.728 417.386 156.331C413.976 154.934 399.246 149.982 399.246 149.982C399.246 149.982 388.362 149.302 385.641 150.163C382.92 151.025 375.039 156.558 375.039 156.558Z" fill="#3AAB9F" stroke="#263238" stroke-width="0.948863" stroke-linecap="round" stroke-linejoin="round"/>
<path d="M345.516 206.342C345.948 205.356 346.641 204.506 347.52 203.885C348.754 203.222 348.527 198.198 353.098 199.54C357.67 200.882 364.372 213.816 364.59 215.938C364.808 218.061 363.365 219.167 362.694 220.065C361.61 221.909 360.378 223.662 359.012 225.308C357.198 227.203 356.781 229.208 354.55 228.092C352.318 226.977 350.423 221.852 347.974 215.394C345.525 208.936 345.516 206.342 345.516 206.342Z" fill="#3AAB9F" stroke="#263238" stroke-width="0.948863" stroke-linecap="round" stroke-linejoin="round"/>
<path d="M369.579 161.038C369.579 161.038 368.418 168.004 369.325 167.877C370.232 167.75 373.705 165.156 373.86 164.394C374.014 163.632 369.579 161.038 369.579 161.038Z" fill="#3AAB9F" stroke="#263238" stroke-width="0.948863" stroke-linecap="round" stroke-linejoin="round"/>
<path d="M373.968 155.614C373.968 155.614 369.189 160.394 369.579 161.056C369.969 161.719 377.061 168.793 377.061 168.793C377.061 168.793 378.358 162.344 377.841 159.505C377.324 156.667 373.968 155.614 373.968 155.614Z" fill="#3AAB9F" stroke="#263238" stroke-width="0.948863" stroke-linecap="round" stroke-linejoin="round"/>
<path d="M364.418 112.904C364.418 112.904 360.545 121.802 360.79 123.616C361.035 125.43 362.078 128.777 361.697 129.675C361.316 130.572 356.536 134.327 356.663 135.225C356.79 136.123 359.502 138.853 359.502 138.853C359.502 138.853 361.57 150.336 362.468 152.014C363.366 153.692 369.724 151.751 369.724 151.751C369.724 151.751 373.986 156.531 374.113 157.691C374.24 158.852 377.342 174.081 377.859 172.53C378.376 170.979 383.918 159.75 383.918 159.75C383.918 159.75 395.001 148.776 394.729 148.132C394.457 147.488 389.705 140.386 389.705 139.352C389.705 138.318 397.314 126.709 397.06 122.455C396.806 118.201 393.704 110.582 388.897 107.87C384.09 105.159 377.415 102.574 370.313 104.388C363.211 106.202 362.867 109.031 364.418 112.904Z" fill="white" stroke="#263238" stroke-width="0.948863" stroke-linecap="round" stroke-linejoin="round"/>
<path d="M369.706 151.751L374.095 157.682L375.837 148.803L369.706 151.751Z" fill="#263238" stroke="#263238" stroke-width="0.948863" stroke-linecap="round" stroke-linejoin="round"/>
<path d="M377.841 147.778C378.612 146.363 379.383 127.008 380.027 126.01C380.671 125.013 383.519 125.62 384.29 128.731C385.061 131.842 381.968 135.824 381.968 136.214C382.887 137.712 384.237 138.897 385.841 139.615C387.131 139.904 388.472 139.879 389.75 139.543C389.744 139.479 389.744 139.415 389.75 139.352C389.75 138.5 395.002 130.282 396.634 125.149C393.186 122.367 389.549 119.828 385.75 117.548C378.902 113.285 375.556 114.827 375.556 114.827C375.556 114.827 370.649 119.09 371.683 120.632C372.717 122.174 376.717 125.412 376.717 125.412C376.717 125.412 375.556 138.572 375.039 139.343C374.657 139.867 374.172 140.309 373.615 140.64C373.615 140.64 371.293 136.105 369.488 136.105C367.683 136.105 359.511 138.826 359.511 138.826C359.511 138.826 361.579 150.309 362.477 151.986C363.375 153.664 369.733 151.723 369.733 151.723C369.733 151.723 377.061 149.166 377.841 147.778Z" fill="#808080" stroke="#263238" stroke-width="0.948863" stroke-linecap="round" stroke-linejoin="round"/>
<path d="M388.934 107.87C384.163 105.149 377.451 102.574 370.349 104.388C363.248 106.202 362.867 109.031 364.418 112.904C365.984 113.927 367.738 114.627 369.578 114.963C375.98 115.883 382.054 118.376 387.256 122.219L395.419 128.16C396.425 125.911 397.133 123.824 397.051 122.482C396.806 118.192 393.713 110.591 388.934 107.87Z" fill="#263238" stroke="#263238" stroke-width="0.948863" stroke-linecap="round" stroke-linejoin="round"/>
<path d="M365.706 129.548C365.706 130.337 365.361 130.972 364.935 130.972C364.508 130.972 364.155 130.337 364.155 129.548C364.155 128.758 364.508 128.133 364.935 128.133C365.361 128.133 365.706 128.731 365.706 129.548Z" fill="#263238"/>
<path d="M362.985 126.065C362.985 126.065 364.663 123.48 367.52 126.319" stroke="#263238" stroke-width="0.948863" stroke-linecap="round" stroke-linejoin="round"/>
<path d="M363.257 141.166C363.257 141.166 367.901 141.293 369.606 138.191" stroke="#263238" stroke-width="0.948863" stroke-linecap="round" stroke-linejoin="round"/>
<path d="M379.383 160.258L383.383 168.004C383.383 168.004 391.256 160.648 393.577 157.936C395.602 155.41 397.497 152.783 399.255 150.064C399.255 150.064 395.391 146.436 394.231 146.064C393.07 145.692 392.807 146.581 392.163 147.361C391.519 148.141 379.383 160.258 379.383 160.258Z" fill="#3AAB9F" stroke="#263238" stroke-width="0.948863" stroke-linecap="round" stroke-linejoin="round"/>
<path d="M420.46 223.965C420.46 223.965 414.819 254.186 414.483 255.891C414.148 257.596 413.966 258.794 413.286 259.138C412.606 259.483 408.842 260.68 408.334 261.696C407.826 262.712 405.259 270.412 404.407 271.945C403.554 273.478 405.604 273.823 406.457 273.478C407.111 273.144 407.691 272.681 408.162 272.117C408.162 272.117 407.309 278.947 407.989 279.119C409.009 279.271 410.049 279.024 410.892 278.43C411.917 277.75 412.089 277.242 412.606 276.897C413.123 276.553 415.508 276.38 416.533 275.7C417.558 275.02 418.746 273.823 419.254 273.65C419.817 273.547 420.327 273.254 420.7 272.82C421.073 272.386 421.286 271.837 421.304 271.265C421.64 269.215 422.329 260.163 422.664 259.311C423 258.458 436.668 227.385 436.668 227.385L420.46 223.965Z" fill="white" stroke="#263238" stroke-width="0.948863" stroke-linecap="round" stroke-linejoin="round"/>
<path d="M416.361 160.657C416.361 160.657 406.802 171.922 407.826 179.269C408.851 186.615 419.436 206.243 419.436 206.243C419.436 206.243 417.722 210.859 418.583 212.047C419.341 213.35 419.97 214.723 420.461 216.147L437.53 220.419C437.53 220.419 439.925 219.222 439.58 214.07C439.318 210.523 438.57 207.029 437.358 203.685C437.022 202.832 427.626 168.312 424.551 163.043C421.477 157.773 418.919 157.601 418.202 157.601" fill="#3AAB9F"/>
<path d="M416.361 160.657C416.361 160.657 406.802 171.922 407.826 179.269C408.851 186.615 419.436 206.243 419.436 206.243C419.436 206.243 417.722 210.859 418.583 212.047C419.341 213.35 419.97 214.723 420.461 216.147L437.53 220.419C437.53 220.419 439.925 219.222 439.58 214.07C439.318 210.523 438.57 207.029 437.358 203.685C437.022 202.832 427.626 168.312 424.551 163.043C421.477 157.773 418.919 157.601 418.202 157.601" stroke="#263238" stroke-width="0.948863" stroke-linecap="round" stroke-linejoin="round"/>
<path d="M421.313 214.27C421.313 214.27 421.649 214.097 420.461 216.147C419.273 218.197 418.919 225.026 419.436 225.707C419.953 226.387 435.145 230.831 436.505 230.323C437.866 229.815 438.727 226.224 439.752 222.632C440.777 219.04 441.802 218.877 438.047 216.664C434.292 214.451 422.501 213.925 421.313 214.27Z" fill="#3AAB9F" stroke="#263238" stroke-width="0.948863" stroke-linecap="round" stroke-linejoin="round"/>
<path d="M386.476 292.416C388.29 306.293 391.355 329.222 392.19 333.149C394.088 340.587 396.396 347.914 399.101 355.098C400.008 357.112 401.441 387.586 401.704 392.92C401.714 393.151 401.65 393.38 401.521 393.572C401.392 393.765 401.205 393.911 400.988 393.99C400.629 394.09 400.313 394.303 400.084 394.597C399.856 394.891 399.727 395.25 399.718 395.622C399.718 397.255 399.509 400.711 399.509 400.711" stroke="white" stroke-width="0.948863" stroke-linecap="round" stroke-linejoin="round"/>
<path d="M385.079 281.732C385.079 281.732 385.424 284.407 385.986 288.552" stroke="white" stroke-width="0.948863" stroke-linecap="round" stroke-linejoin="round"/>
<path d="M327.893 195.631C327.893 195.631 333.798 200.32 337.933 202.216C342.069 204.111 344.4 204.556 349.425 209.58C354.45 214.605 357.787 223.63 356.563 225.906C355.339 228.183 353.434 228.809 349.869 227.357C346.305 225.906 341.498 226.913 335.92 219.548C330.342 212.184 319.521 201.817 319.521 201.817L327.893 195.631Z" fill="white" stroke="#263238" stroke-width="0.948863" stroke-linecap="round" stroke-linejoin="round"/>
<path d="M364.273 194.08C365.479 199.685 366.703 207.231 366.332 213.589" stroke="#263238" stroke-width="0.948863" stroke-linecap="round" stroke-linejoin="round"/>
<path d="M362.232 185.926C362.232 185.926 362.649 187.314 363.221 189.554" stroke="#263238" stroke-width="0.948863" stroke-linecap="round" stroke-linejoin="round"/>
<path d="M376.753 250.341C376.526 252.608 376.344 254.041 376.344 254.041" stroke="#263238" stroke-width="0.948863" stroke-linecap="round" stroke-linejoin="round"/>
<path d="M377.66 201.1C377.787 203.005 377.95 204.773 378.159 206.288C379.456 215.63 377.642 225.752 377.642 234.831C377.642 238.64 377.415 242.622 377.143 245.978" stroke="#263238" stroke-width="0.948863" stroke-linecap="round" stroke-linejoin="round"/>
<path d="M377.379 177.709C377.379 177.709 377.134 186.688 377.379 195.359" stroke="#263238" stroke-width="0.948863" stroke-linecap="round" stroke-linejoin="round"/>
<path d="M283.288 396.112C283.288 396.112 293.872 403.994 297.137 405.536C300.402 407.078 306.561 408.257 306.37 410.724C306.18 413.191 300.792 414.578 292.33 414.352C283.868 414.125 280.213 413.39 274.444 412.819C268.676 412.247 264.25 415.123 261.366 412.819C258.481 410.515 261.747 397.237 261.747 397.237L283.288 396.112Z" fill="white" stroke="#263238" stroke-width="0.948863" stroke-linecap="round" stroke-linejoin="round"/>
<path d="M271.941 410.923C267.959 410.798 264.003 410.223 260.15 409.209C260.232 410.878 260.567 412.238 261.32 412.837C264.204 415.141 268.631 412.257 274.399 412.837C280.167 413.418 283.823 414.179 292.285 414.37C300.747 414.56 306.135 413.218 306.325 410.742C301.499 411.442 296.626 411.767 291.75 411.712C282.716 411.712 278.87 411.114 271.941 410.923Z" fill="white" stroke="#263238" stroke-width="0.948863" stroke-linecap="round" stroke-linejoin="round"/>
<path d="M264.25 398.035C264.25 398.035 267.134 401.663 274.063 406.497C280.993 411.331 285.6 411.495 286.172 413.808C286.743 416.12 286.172 418.424 284.058 418.805C281.945 419.186 258.1 418.615 251.171 418.034C244.241 417.454 240.205 417.653 239.634 415.54C239.063 413.427 239.443 406.878 239.443 406.878C243.026 404.966 246.494 402.846 249.829 400.529C256.368 396.112 264.25 398.035 264.25 398.035Z" fill="white" stroke="#263238" stroke-width="0.948863" stroke-linecap="round" stroke-linejoin="round"/>
<path d="M278.1 416.501C271.215 416.501 247.262 414.896 239.444 414.361C239.477 414.758 239.541 415.152 239.634 415.54C240.205 417.653 244.251 417.463 251.171 418.034C258.091 418.606 281.945 419.195 284.058 418.805C284.691 418.679 285.262 418.34 285.676 417.846C286.09 417.351 286.323 416.729 286.335 416.084C283.599 416.362 280.85 416.501 278.1 416.501Z" fill="white" stroke="#263238" stroke-width="0.948863" stroke-linecap="round" stroke-linejoin="round"/>
<path d="M236.913 261.478C236.557 273.884 237.2 286.299 238.836 298.602C241.557 318.029 240.759 334.954 240.949 338.219C241.139 341.484 237.684 354.762 237.103 368.993C236.523 383.224 238.255 405.345 238.255 406.497C238.255 407.649 238.836 409.962 239.988 409.962C241.139 409.962 251.534 404.574 251.534 404.574L264.413 400.148C267.824 400.112 271.229 399.855 274.607 399.377C279.804 398.615 283.07 396.883 283.26 396.112C283.613 394.409 283.343 392.635 282.498 391.115C281.337 389.192 279.777 391.115 281.337 385.727C282.897 380.34 290.407 345.339 289.999 331.68C289.591 318.02 295.958 283.79 295.958 276.48C295.958 269.17 296.647 260.907 296.647 260.907L295.958 255.13C295.958 255.13 280.956 262.249 264.993 261.669C255.489 261.352 246.086 259.603 237.103 256.481L236.913 261.478Z" fill="#263238" stroke="#263238" stroke-width="0.948863" stroke-linecap="round" stroke-linejoin="round"/>
<path d="M265.093 387.623C265.188 390.143 265.422 392.656 265.791 395.151L267.134 399.577" stroke="white" stroke-width="0.948863" stroke-linecap="round" stroke-linejoin="round"/>
<path d="M282.135 280.326L275.406 285.713C275.406 285.713 274.825 311.49 271.17 325.331C267.515 339.171 264.821 363.996 264.821 376.875C264.821 378.072 264.821 379.206 264.821 380.276" stroke="white" stroke-width="0.948863" stroke-linecap="round" stroke-linejoin="round"/>
<path d="M258.282 148.086C258.282 148.086 242.346 156.313 238.573 159.877C234.8 163.442 231.888 175.024 232.06 188.556C232.355 198.48 233.215 208.38 234.636 218.206L236.178 262.939C236.178 262.939 255.715 268.934 269.737 268.589C278.13 268.4 286.423 266.717 294.226 263.619C294.226 263.619 296.629 262.594 296.629 260.898C296.629 259.202 296.112 241.706 296.792 235.194C297.473 228.682 295.423 186.117 292.339 175.668C290.777 170.041 288.65 164.587 285.99 159.388C284.793 156.667 286.335 157.156 277.936 152.186C269.537 147.216 263.424 146.028 258.282 148.086Z" fill="#3AAB9F" stroke="#263238" stroke-width="0.948863" stroke-linecap="round" stroke-linejoin="round"/>
<path d="M282.789 161.619C282.789 161.619 282.961 160.077 283.986 160.249C285.011 160.422 290.67 165.909 289.818 163.877C288.965 161.846 285.528 154.961 282.961 152.912C280.394 150.862 279.877 151.533 279.877 153.084C279.877 154.635 282.789 161.619 282.789 161.619Z" fill="white" stroke="#263238" stroke-width="0.948863" stroke-linecap="round" stroke-linejoin="round"/>
<path d="M287.242 144.313L281.419 153.22C281.419 153.22 283.986 167.959 282.099 167.959C280.213 167.959 278.843 161.446 278.163 160.594C277.483 159.741 261.882 142.454 261.882 142.454L267.197 127.371C267.197 127.371 271.134 126.001 273.882 130.455C276.63 134.908 287.242 144.313 287.242 144.313Z" fill="white" stroke="#263238" stroke-width="0.948863" stroke-linecap="round" stroke-linejoin="round"/>
<path d="M274.435 142.363L282.19 151.451L285.963 146.127L273.991 139.252L274.435 142.363Z" fill="#263238" stroke="#263238" stroke-width="0.948863" stroke-linecap="round" stroke-linejoin="round"/>
<path d="M262.563 140.196C262.563 140.196 276.104 155.614 277.138 156.821C278.172 158.027 280.394 159.732 279.533 160.766C278.671 161.8 271.479 169.337 271.479 169.337C271.479 169.337 263.941 163.85 260.341 157.165C256.74 150.481 256.395 149.456 256.395 149.456C256.395 149.456 258.454 141.429 262.563 140.196Z" fill="white" stroke="#263238" stroke-width="0.948863" stroke-linecap="round" stroke-linejoin="round"/>
<path d="M294.217 110.7C294.217 110.7 296.82 110.7 296.493 106.8C296.167 102.9 292.593 99.3176 292.103 100.134C291.614 100.95 293.246 103.544 291.133 102.247C289.02 100.95 287.877 97.7122 285.609 98.0206C283.342 98.3289 283.006 100.624 282.517 101.104C282.027 101.585 273.093 99.2903 266.59 101.268C260.087 103.245 256.513 110.337 257.157 113.303C257.801 116.269 261.057 126.301 263.007 129.393C264.957 132.486 265.284 133.293 267.724 133.928C270.163 134.563 272.603 135.878 274.39 130.999C276.177 126.119 274.716 125.802 277.474 124.169C280.231 122.537 283.823 122.056 283.496 117.992C283.17 113.929 283.977 113.458 285.31 112.959C286.643 112.46 293.409 112.161 294.217 110.7Z" fill="#263238" stroke="#263238" stroke-width="0.948863" stroke-linecap="round" stroke-linejoin="round"/>
<path d="M294.216 110.7C294.216 110.7 298.933 122.727 298.126 123.87C297.476 124.726 296.77 125.538 296.012 126.301C296.012 126.301 300.076 133.13 298.606 134.754C297.701 135.757 296.663 136.632 295.523 137.357C295.523 137.357 293.709 147.107 291.786 148.241C289.863 149.374 289.019 150.68 284.63 148.241C280.24 145.801 275.043 143.706 273.093 141.738C271.143 139.769 270.163 134.581 270.163 134.581C270.163 134.581 265.773 133.448 264.476 129.384C263.179 125.321 265.284 122.228 267.197 122.718C269.111 123.208 270.29 125.811 270.943 127.108C271.596 128.405 273.537 128.731 273.864 127.761C274.19 126.79 271.75 123.861 272.893 122.228C274.036 120.596 278.417 120.278 279.396 118.491C280.376 116.705 277.283 115.888 277.283 115.888C277.283 115.888 279.396 115.081 278.743 114.428C278.09 113.775 274.517 114.102 275.333 112.151C276.149 110.201 281.183 109.231 285.573 109.875C289.963 110.519 294.216 110.7 294.216 110.7Z" fill="white" stroke="#263238" stroke-width="0.948863" stroke-linecap="round" stroke-linejoin="round"/>
<path d="M291.459 126.79C291.459 127.697 290.988 128.414 290.398 128.414C289.809 128.414 289.346 127.688 289.346 126.79C289.346 125.892 289.818 125.167 290.398 125.167C290.979 125.167 291.459 125.892 291.459 126.79Z" fill="#263238"/>
<path d="M287.233 122.89C288.131 122.316 289.174 122.011 290.24 122.011C291.305 122.011 292.349 122.316 293.246 122.89" stroke="#263238" stroke-width="0.948863" stroke-linecap="round" stroke-linejoin="round"/>
<path d="M291.133 138.173C290.079 138.037 289.088 137.595 288.282 136.902C287.476 136.209 286.891 135.295 286.598 134.273" stroke="#263238" stroke-width="0.948863" stroke-linecap="round" stroke-linejoin="round"/>
<path d="M239.344 163.641C239.344 163.641 231.063 177.654 232.088 188.584C233.113 199.513 270.798 238.205 271.995 236.99C273.193 235.774 332.437 194.207 332.437 194.207C332.437 194.207 337.235 192.048 337.653 190.28C338.07 188.511 337.653 187.785 337.653 186.742C337.653 185.699 338.269 184.457 338.061 183.114C337.852 181.772 337.027 181.455 336.292 180.62C335.557 179.786 335.884 179.369 335.775 177.809C335.666 176.249 334.632 176.249 333.181 175.423C331.73 174.598 330.886 174.072 330.27 173.754C329.653 173.437 330.678 173.337 328.809 173.655C326.66 174.142 324.437 174.213 322.261 173.863C319.975 173.337 319.349 175.732 319.141 176.983C318.934 177.939 318.864 178.919 318.932 179.895C319.032 180.62 319.141 188.003 318.724 188.729C318.306 189.454 312.275 195.486 301.491 199.857C290.707 204.229 276.957 210.252 276.957 210.252C276.957 210.252 270.816 199.957 268.948 195.694C267.08 191.432 257.094 176.648 256.785 176.403" fill="#3AAB9F"/>
<path d="M239.344 163.641C239.344 163.641 231.063 177.654 232.088 188.584C233.113 199.513 270.798 238.205 271.995 236.99C273.193 235.774 332.437 194.207 332.437 194.207C332.437 194.207 337.235 192.048 337.653 190.28C338.07 188.511 337.653 187.785 337.653 186.742C337.653 185.699 338.269 184.457 338.061 183.114C337.852 181.772 337.027 181.455 336.292 180.62C335.557 179.786 335.884 179.369 335.775 177.809C335.666 176.249 334.632 176.249 333.181 175.423C331.73 174.598 330.886 174.072 330.27 173.754C329.653 173.437 330.678 173.337 328.809 173.655C326.66 174.142 324.437 174.213 322.261 173.863C319.975 173.337 319.349 175.732 319.141 176.983C318.934 177.939 318.864 178.919 318.932 179.895C319.032 180.62 319.141 188.003 318.724 188.729C318.306 189.454 312.275 195.486 301.491 199.857C290.707 204.229 276.957 210.252 276.957 210.252C276.957 210.252 270.816 199.957 268.948 195.694C267.08 191.432 257.094 176.648 256.785 176.403" stroke="#263238" stroke-width="0.948863" stroke-linecap="round" stroke-linejoin="round"/>
<path d="M337.634 190.28C338.042 188.466 337.634 187.785 337.634 186.742C337.634 185.699 338.251 184.457 338.042 183.114C337.834 181.772 337.008 181.455 336.274 180.62C335.539 179.786 335.865 179.369 335.757 177.809C335.648 176.249 334.614 176.249 333.163 175.423C331.711 174.598 330.868 174.072 330.251 173.754C329.634 173.437 330.659 173.337 328.791 173.655C326.642 174.142 324.419 174.213 322.242 173.863C319.957 173.337 319.331 175.732 319.122 176.983C318.915 177.939 318.845 178.919 318.914 179.895C319.014 180.62 319.122 188.003 318.705 188.729C318.288 189.454 312.256 195.486 301.472 199.857C290.688 204.229 276.938 210.252 276.938 210.252C276.938 210.252 275.387 207.667 273.619 204.547L270.589 205.989C261.311 210.46 257.411 219.494 256.413 222.233C264.449 230.886 271.496 237.516 272.004 236.999C273.192 235.756 332.419 194.207 332.419 194.207C332.419 194.207 337.217 192.048 337.634 190.28Z" fill="white" stroke="#263238" stroke-width="0.948863" stroke-linecap="round" stroke-linejoin="round"/>
<path d="M327.195 171.732C327.195 171.732 324.782 171.913 324.474 172.811C324.165 173.709 324.664 177.573 325.326 177.809C325.988 178.044 328.047 177.917 328.392 176.983C328.623 175.739 328.671 174.468 328.537 173.21C328.513 172.848 328.368 172.505 328.124 172.237C327.88 171.968 327.553 171.79 327.195 171.732Z" fill="white" stroke="#263238" stroke-width="0.948863" stroke-linecap="round" stroke-linejoin="round"/>
<path d="M322.107 177.174C322.107 177.174 317.572 176.439 316.665 177.174C315.758 177.908 315.966 179.233 315.894 179.514C315.821 179.795 313.69 181.119 313.554 181.863C313.418 182.607 313.762 183.867 313.599 184.148C313.436 184.43 312.393 185.509 312.365 186.606C312.448 187.628 312.664 188.634 313.009 189.599C313.009 189.599 312.828 191.169 312.855 191.713C312.882 192.257 313.499 193.146 314.052 193.209C314.606 193.273 317.907 193.345 318.424 192.756L318.941 192.175C318.941 192.175 321.218 191.858 321.717 191.005C322.215 190.153 322.234 190.515 322.215 190.098C322.197 189.681 323.54 189.291 323.866 188.538C324.064 188.005 324.153 187.438 324.129 186.869C324.129 186.869 326.07 185.563 326.016 184.647C325.961 183.731 323.984 178.988 322.107 177.174Z" fill="white" stroke="#263238" stroke-width="0.948863" stroke-linecap="round" stroke-linejoin="round"/>
<path d="M316.674 179.886C316.674 179.886 318.488 179.042 319.25 180.003C320.012 180.965 324.157 186.869 324.157 186.869" stroke="#263238" stroke-width="0.948863" stroke-linecap="round" stroke-linejoin="round"/>
<path d="M314.697 183.577C314.697 183.577 315.232 183.368 316.202 184.221C317.173 185.074 322.025 189.472 322.025 189.472" stroke="#263238" stroke-width="0.948863" stroke-linecap="round" stroke-linejoin="round"/>
<path d="M313.708 188.511L318.968 192.139" stroke="#263238" stroke-width="0.948863" stroke-linecap="round" stroke-linejoin="round"/>
<path d="M300.221 170.988L304.965 175.205" stroke="#263238" stroke-width="0.948863" stroke-linecap="round" stroke-linejoin="round"/>
<path d="M323.413 155.179V160.712" stroke="#263238" stroke-width="0.948863" stroke-linecap="round" stroke-linejoin="round"/>
<path d="M349.507 166.244L343.711 171.786" stroke="#263238" stroke-width="0.948863" stroke-linecap="round" stroke-linejoin="round"/>
<path d="M312.348 164.929L314.715 168.358" stroke="#263238" stroke-width="0.948863" stroke-linecap="round" stroke-linejoin="round"/>
<path d="M335.802 163.877L334.224 166.78" stroke="#263238" stroke-width="0.948863" stroke-linecap="round" stroke-linejoin="round"/>
</svg>
