<svg width="352" height="248" viewBox="0 0 352 248" fill="none" xmlns="http://www.w3.org/2000/svg">
<path d="M337.905 75.2095C337.905 75.2095 318.081 36.2961 287.533 16.8882C256.986 -2.51971 217.688 -0.984131 188.517 22.5991C159.346 46.1824 163.177 91.2587 144.699 129.001C126.22 166.744 130.026 208.384 169.175 226.231C208.325 244.077 222.957 217.166 268.264 212.544C313.572 207.922 379.915 167.077 337.905 75.2095Z" fill="#97CFC9"/>
<path opacity="0.7" d="M337.905 75.2095C337.905 75.2095 318.081 36.2961 287.533 16.8882C256.986 -2.51971 217.688 -0.984131 188.517 22.5991C159.346 46.1824 163.177 91.2587 144.699 129.001C126.22 166.744 130.026 208.384 169.175 226.231C208.325 244.077 222.957 217.166 268.264 212.544C313.572 207.922 379.915 167.077 337.905 75.2095Z" fill="white"/>
<path d="M0 246.984H263.204" stroke="#263238" stroke-width="1.26299" stroke-miterlimit="10"/>
<path d="M34.4409 165.292L43.2495 246.876" stroke="#263238" stroke-width="2.31965" stroke-miterlimit="10"/>
<path d="M41.6852 230.139L37.769 226.13" stroke="#263238" stroke-width="2.31965" stroke-miterlimit="10"/>
<path d="M38.9616 227.334C38.9546 226.719 38.8119 226.114 38.543 225.557C38.2742 225.001 37.8854 224.507 37.4029 224.109C36.3989 223.238 31.1072 221.083 30.608 222.889C30.0588 224.856 35.4726 228.715 38.9616 227.334Z" fill="#3AAB9F" stroke="#263238" stroke-width="1.15982" stroke-miterlimit="10"/>
<path d="M38.9617 227.334L33.925 224.291" stroke="#263238" stroke-width="0.579912" stroke-miterlimit="10"/>
<path d="M42.6669 239.26L38.7563 235.251" stroke="#263238" stroke-width="2.31965" stroke-miterlimit="10"/>
<path d="M39.9433 236.455C39.9363 235.84 39.7936 235.235 39.5247 234.679C39.2558 234.122 38.8671 233.628 38.3846 233.23C37.3806 232.359 32.0889 230.204 31.5896 232.01C31.0405 233.977 36.4543 237.831 39.9433 236.455Z" fill="#3AAB9F" stroke="#263238" stroke-width="1.15982" stroke-miterlimit="10"/>
<path d="M39.9434 236.454L34.9067 233.412" stroke="#263238" stroke-width="0.579912" stroke-miterlimit="10"/>
<path d="M39.2889 207.882L35.3728 203.878" stroke="#263238" stroke-width="2.31965" stroke-miterlimit="10"/>
<path d="M36.5655 205.077C36.5585 204.462 36.4158 203.857 36.1469 203.3C35.878 202.744 35.4893 202.25 35.0068 201.852C34.0028 200.986 28.7111 198.826 28.2118 200.632C27.6627 202.604 33.0765 206.458 36.5655 205.077Z" fill="#3AAB9F" stroke="#263238" stroke-width="1.15982" stroke-miterlimit="10"/>
<path d="M36.5652 205.077L31.5286 202.04" stroke="#263238" stroke-width="0.579912" stroke-miterlimit="10"/>
<path d="M40.2706 217.003L36.3545 212.999" stroke="#263238" stroke-width="2.31965" stroke-miterlimit="10"/>
<path d="M37.547 214.198C37.54 213.583 37.3973 212.978 37.1284 212.421C36.8595 211.865 36.4708 211.371 35.9883 210.973C34.9843 210.102 29.6926 207.947 29.1933 209.753C28.6442 211.72 34.0691 215.579 37.547 214.198Z" fill="#3AAB9F" stroke="#263238" stroke-width="1.15982" stroke-miterlimit="10"/>
<path d="M37.5471 214.198L32.5105 211.155" stroke="#263238" stroke-width="0.579912" stroke-miterlimit="10"/>
<path d="M37.6968 193.069L33.7806 189.06" stroke="#263238" stroke-width="2.31965" stroke-miterlimit="10"/>
<path d="M34.9677 190.264C34.9607 189.649 34.818 189.044 34.5491 188.487C34.2802 187.931 33.8915 187.437 33.409 187.039C32.405 186.168 27.1133 184.013 26.614 185.819C26.0704 187.786 31.4842 191.645 34.9677 190.264Z" fill="#3AAB9F" stroke="#263238" stroke-width="1.15982" stroke-miterlimit="10"/>
<path d="M34.9679 190.264L29.9313 187.221" stroke="#263238" stroke-width="0.579912" stroke-miterlimit="10"/>
<path d="M36.0938 178.192L32.1776 174.182" stroke="#263238" stroke-width="2.31965" stroke-miterlimit="10"/>
<path d="M33.3648 175.365C33.3578 174.75 33.2151 174.145 32.9462 173.589C32.6773 173.032 32.2886 172.538 31.8061 172.14C30.8021 171.269 25.5159 169.114 25.0111 170.92C24.4675 172.908 29.8813 176.762 33.3648 175.365Z" fill="#3AAB9F" stroke="#263238" stroke-width="1.15982" stroke-miterlimit="10"/>
<path d="M33.3647 175.381L28.3281 172.344" stroke="#263238" stroke-width="0.579912" stroke-miterlimit="10"/>
<path d="M41.0305 224.743L44.0037 220.04" stroke="#263238" stroke-width="2.31965" stroke-miterlimit="10"/>
<path d="M43.0995 221.454C42.9763 220.852 42.9874 220.232 43.1318 219.635C43.2763 219.038 43.5508 218.478 43.9371 217.992C44.7359 216.917 49.4508 213.773 50.3272 215.439C51.2646 217.25 46.8271 222.125 43.0995 221.454Z" fill="#3AAB9F" stroke="#263238" stroke-width="1.15982" stroke-miterlimit="10"/>
<path d="M43.0996 221.454L47.6315 217.25" stroke="#263238" stroke-width="0.579912" stroke-miterlimit="10"/>
<path d="M38.4457 200.744L41.4188 196.042" stroke="#263238" stroke-width="2.31965" stroke-miterlimit="10"/>
<path d="M40.5147 197.45C40.3923 196.849 40.4037 196.23 40.5482 195.634C40.6926 195.038 40.9668 194.479 41.3523 193.994C42.151 192.919 46.8659 189.769 47.7423 191.435C48.6964 193.247 44.22 198.105 40.5147 197.45Z" fill="#3AAB9F" stroke="#263238" stroke-width="1.15982" stroke-miterlimit="10"/>
<path d="M40.5146 197.45L45.0465 193.252" stroke="#263238" stroke-width="0.579912" stroke-miterlimit="10"/>
<path d="M37.3087 190.194L40.2874 185.491" stroke="#263238" stroke-width="2.31965" stroke-miterlimit="10"/>
<path d="M39.3775 186.904C39.2543 186.303 39.2653 185.683 39.4098 185.086C39.5542 184.489 39.8288 183.929 40.2151 183.443C41.0138 182.395 45.7287 179.224 46.6051 180.89C47.5592 182.701 43.0828 187.56 39.3775 186.904Z" fill="#3AAB9F" stroke="#263238" stroke-width="1.15982" stroke-miterlimit="10"/>
<path d="M39.3777 186.904L43.9095 182.707" stroke="#263238" stroke-width="0.579912" stroke-miterlimit="10"/>
<path d="M35.6444 174.736L38.6176 170.033" stroke="#263238" stroke-width="2.31965" stroke-miterlimit="10"/>
<path d="M37.7134 171.441C37.5902 170.84 37.6012 170.22 37.7457 169.623C37.8902 169.026 38.1647 168.465 38.551 167.98C39.3498 166.932 44.0647 163.761 44.9411 165.427C45.8951 167.238 41.4188 172.097 37.7134 171.441Z" fill="#3AAB9F" stroke="#263238" stroke-width="1.15982" stroke-miterlimit="10"/>
<path d="M37.7136 171.441L42.2455 167.243" stroke="#263238" stroke-width="0.579912" stroke-miterlimit="10"/>
<path d="M34.3688 164.846C34.2464 164.246 34.2579 163.627 34.4023 163.031C34.5468 162.435 34.8209 161.875 35.2064 161.39C36.0051 160.315 40.72 157.166 41.5964 158.832C42.5505 160.643 38.0741 165.502 34.3688 164.846Z" fill="#3AAB9F" stroke="#263238" stroke-width="1.15982" stroke-miterlimit="10"/>
<path d="M34.3687 164.846L38.906 160.649" stroke="#263238" stroke-width="0.579912" stroke-miterlimit="10"/>
<path d="M34.6238 165.029C33.9931 165.085 33.3575 165.009 32.7595 164.807C32.1615 164.605 31.6151 164.281 31.157 163.857C30.1586 162.981 27.4017 158.101 29.2045 157.434C31.1736 156.703 35.6888 161.53 34.6238 165.029Z" fill="#3AAB9F" stroke="#263238" stroke-width="1.15982" stroke-miterlimit="10"/>
<path d="M34.6349 165.029L30.7964 160.219" stroke="#263238" stroke-width="0.579912" stroke-miterlimit="10"/>
<path d="M57.222 176.338L49.9388 246.876" stroke="#263238" stroke-width="2.31965" stroke-miterlimit="10"/>
<path d="M50.5325 241.238L47.5538 236.535" stroke="#263238" stroke-width="2.31965" stroke-miterlimit="10"/>
<path d="M48.4913 237.949C48.6137 237.347 48.6018 236.727 48.4563 236.13C48.3109 235.533 48.0353 234.973 47.6481 234.487C46.8494 233.439 42.1345 230.274 41.2581 231.94C40.2763 233.751 44.7582 238.604 48.4913 237.949Z" fill="#3AAB9F" stroke="#263238" stroke-width="1.15982" stroke-miterlimit="10"/>
<path d="M48.4635 237.949L44.1813 233.966" stroke="#263238" stroke-width="0.579912" stroke-miterlimit="10"/>
<path d="M52.9175 218.981L49.9388 214.278" stroke="#263238" stroke-width="2.31965" stroke-miterlimit="10"/>
<path d="M50.8432 215.676C50.9663 215.074 50.9553 214.454 50.8109 213.857C50.6664 213.26 50.3918 212.7 50.0056 212.214C49.2068 211.166 44.4864 208 43.6155 209.667C42.6614 211.494 47.1378 216.348 50.8432 215.676Z" fill="#3AAB9F" stroke="#263238" stroke-width="1.15982" stroke-miterlimit="10"/>
<path d="M50.8432 215.692L46.5665 211.714" stroke="#263238" stroke-width="0.579912" stroke-miterlimit="10"/>
<path d="M51.9414 228.102L48.9572 223.399" stroke="#263238" stroke-width="2.31965" stroke-miterlimit="10"/>
<path d="M49.8668 224.813C49.99 224.211 49.979 223.591 49.8345 222.994C49.6901 222.397 49.4155 221.837 49.0292 221.351C48.2305 220.303 43.51 217.138 42.6336 218.804C41.6851 220.615 46.1615 225.468 49.8668 224.813Z" fill="#3AAB9F" stroke="#263238" stroke-width="1.15982" stroke-miterlimit="10"/>
<path d="M49.8668 224.813L45.5846 220.836" stroke="#263238" stroke-width="0.579912" stroke-miterlimit="10"/>
<path d="M54.5041 204.168L51.5254 199.465" stroke="#263238" stroke-width="2.31965" stroke-miterlimit="10"/>
<path d="M52.4295 200.879C52.5526 200.277 52.5416 199.657 52.3972 199.06C52.2527 198.463 51.9781 197.903 51.5919 197.417C50.7931 196.343 46.0449 193.198 45.2018 194.864C44.2477 196.676 48.7241 201.529 52.4295 200.879Z" fill="#3AAB9F" stroke="#263238" stroke-width="1.15982" stroke-miterlimit="10"/>
<path d="M52.4296 200.879L48.153 196.896" stroke="#263238" stroke-width="0.579912" stroke-miterlimit="10"/>
<path d="M56.0961 189.285L53.1174 184.583" stroke="#263238" stroke-width="2.31965" stroke-miterlimit="10"/>
<path d="M54.0381 185.996C54.1606 185.394 54.1486 184.774 54.0032 184.177C53.8578 183.58 53.5822 183.02 53.195 182.535C52.3963 181.487 47.6814 178.321 46.8049 179.987C45.8398 181.814 50.3217 186.652 54.0381 185.996Z" fill="#3AAB9F" stroke="#263238" stroke-width="1.15982" stroke-miterlimit="10"/>
<path d="M54.0271 185.996L49.7449 182.019" stroke="#263238" stroke-width="0.579912" stroke-miterlimit="10"/>
<path d="M51.0372 235.826L54.9478 231.816" stroke="#263238" stroke-width="2.31965" stroke-miterlimit="10"/>
<path d="M53.7609 233.02C53.7672 232.406 53.9091 231.801 54.177 231.245C54.4449 230.688 54.8326 230.194 55.314 229.795C56.318 228.924 61.6098 226.764 62.1145 228.57C62.6581 230.537 57.2499 234.396 53.7609 233.02Z" fill="#3AAB9F" stroke="#263238" stroke-width="1.15982" stroke-miterlimit="10"/>
<path d="M53.7609 233.02L59.0915 229.817" stroke="#263238" stroke-width="0.579912" stroke-miterlimit="10"/>
<path d="M53.6056 211.827L57.5217 207.818" stroke="#263238" stroke-width="2.31965" stroke-miterlimit="10"/>
<path d="M56.329 209.016C56.336 208.402 56.4787 207.796 56.7476 207.24C57.0165 206.684 57.4052 206.19 57.8877 205.791C58.8917 204.921 64.1779 202.765 64.6827 204.566C65.2318 206.538 59.818 210.398 56.329 209.016Z" fill="#3AAB9F" stroke="#263238" stroke-width="1.15982" stroke-miterlimit="10"/>
<path d="M56.329 209.016L61.6596 205.813" stroke="#263238" stroke-width="0.579912" stroke-miterlimit="10"/>
<path d="M54.7371 201.277L58.6477 197.267" stroke="#263238" stroke-width="2.31965" stroke-miterlimit="10"/>
<path d="M57.4606 198.476C57.4669 197.862 57.6088 197.257 57.8767 196.701C58.1446 196.145 58.5323 195.65 59.0137 195.251C60.0177 194.381 65.3095 192.22 65.8143 194.026C66.3579 195.988 60.9496 199.847 57.4606 198.476Z" fill="#3AAB9F" stroke="#263238" stroke-width="1.15982" stroke-miterlimit="10"/>
<path d="M57.4606 198.471L62.7912 195.268" stroke="#263238" stroke-width="0.579912" stroke-miterlimit="10"/>
<path d="M56.39 185.813L60.3062 181.804" stroke="#263238" stroke-width="2.31965" stroke-miterlimit="10"/>
<path d="M59.1136 183.008C59.1207 182.394 59.2634 181.788 59.5323 181.232C59.8011 180.675 60.1899 180.181 60.6723 179.783C61.6763 178.912 66.9626 176.751 67.4673 178.557C68.0165 180.525 62.6027 184.384 59.1136 183.008Z" fill="#3AAB9F" stroke="#263238" stroke-width="1.15982" stroke-miterlimit="10"/>
<path d="M59.1136 183.008L64.4443 179.804" stroke="#263238" stroke-width="0.579912" stroke-miterlimit="10"/>
<path d="M57.2445 175.902C57.2515 175.288 57.3943 174.682 57.6631 174.126C57.932 173.57 58.3207 173.076 58.8032 172.677C59.8072 171.807 65.0934 169.651 65.5982 171.457C66.1473 173.408 60.7335 177.267 57.2445 175.902Z" fill="#3AAB9F" stroke="#263238" stroke-width="1.15982" stroke-miterlimit="10"/>
<path d="M57.2445 175.886L62.5751 172.683" stroke="#263238" stroke-width="0.579912" stroke-miterlimit="10"/>
<path d="M57.4661 176.117C56.8378 176.045 56.2326 175.844 55.6911 175.527C55.1496 175.21 54.6844 174.785 54.3265 174.279C53.5333 173.204 51.8748 167.899 53.7718 167.604C55.8519 167.303 59.2466 172.903 57.4661 176.117Z" fill="#3AAB9F" stroke="#263238" stroke-width="1.15982" stroke-miterlimit="10"/>
<path d="M57.4661 176.117L54.7314 170.646" stroke="#263238" stroke-width="0.579912" stroke-miterlimit="10"/>
<path d="M47.3819 143.68L46.8439 247" stroke="#263238" stroke-width="2.31965" stroke-miterlimit="10"/>
<path d="M47.465 229.849L43.9982 225.469" stroke="#263238" stroke-width="2.31965" stroke-miterlimit="10"/>
<path d="M45.0522 226.78C45.1096 226.17 45.0319 225.555 44.8243 224.977C44.6167 224.399 44.284 223.87 43.8485 223.426C42.9444 222.459 37.9133 219.782 37.2199 221.523C36.4655 223.426 41.4356 227.801 45.0522 226.78Z" fill="#3AAB9F" stroke="#263238" stroke-width="1.15982" stroke-miterlimit="10"/>
<path d="M45.0521 226.78L40.3705 223.249" stroke="#263238" stroke-width="0.579912" stroke-miterlimit="10"/>
<path d="M47.465 210.79L43.9982 206.409" stroke="#263238" stroke-width="2.31965" stroke-miterlimit="10"/>
<path d="M45.0522 207.721C45.1096 207.111 45.0319 206.496 44.8243 205.918C44.6167 205.34 44.284 204.811 43.8485 204.367C42.9444 203.4 37.9133 200.723 37.2199 202.47C36.4655 204.389 41.4356 208.742 45.0522 207.721Z" fill="#3AAB9F" stroke="#263238" stroke-width="1.15982" stroke-miterlimit="10"/>
<path d="M45.0521 207.721L40.3705 204.19" stroke="#263238" stroke-width="0.579912" stroke-miterlimit="10"/>
<path d="M47.465 188.415L43.9982 184.034" stroke="#263238" stroke-width="2.31965" stroke-miterlimit="10"/>
<path d="M45.0522 185.346C45.1096 184.736 45.0319 184.121 44.8243 183.543C44.6167 182.964 44.284 182.436 43.8485 181.992C42.9444 181.024 37.9133 178.348 37.2199 180.094C36.4655 181.992 41.4356 186.367 45.0522 185.346Z" fill="#3AAB9F" stroke="#263238" stroke-width="1.15982" stroke-miterlimit="10"/>
<path d="M45.0521 185.346L40.3705 181.814" stroke="#263238" stroke-width="0.579912" stroke-miterlimit="10"/>
<path d="M47.465 173.516L43.9982 169.141" stroke="#263238" stroke-width="2.31965" stroke-miterlimit="10"/>
<path d="M45.0522 170.452C45.1104 169.841 45.0331 169.226 44.8255 168.646C44.6179 168.067 44.2848 167.537 43.8485 167.093C42.9444 166.131 37.9133 163.454 37.2199 165.196C36.4655 167.093 41.4356 171.473 45.0522 170.452Z" fill="#3AAB9F" stroke="#263238" stroke-width="1.15982" stroke-miterlimit="10"/>
<path d="M45.0521 170.452L40.3705 166.921" stroke="#263238" stroke-width="0.579912" stroke-miterlimit="10"/>
<path d="M47.465 158.558L43.9982 154.177" stroke="#263238" stroke-width="2.31965" stroke-miterlimit="10"/>
<path d="M45.0522 155.478C45.1104 154.867 45.0331 154.252 44.8255 153.672C44.6179 153.093 44.2848 152.563 43.8485 152.119C42.9444 151.151 37.9133 148.475 37.2199 150.221C36.4655 152.135 41.4356 156.515 45.0522 155.478Z" fill="#3AAB9F" stroke="#263238" stroke-width="1.15982" stroke-miterlimit="10"/>
<path d="M45.0521 155.494L40.3705 151.963" stroke="#263238" stroke-width="0.579912" stroke-miterlimit="10"/>
<path d="M47.3875 235.664L50.8543 231.289" stroke="#263238" stroke-width="2.31965" stroke-miterlimit="10"/>
<path d="M49.8002 232.601C49.742 231.99 49.8193 231.374 50.0269 230.795C50.2345 230.216 50.5676 229.686 51.0039 229.242C51.908 228.28 56.9391 225.603 57.6325 227.344C58.3868 229.242 53.4112 233.622 49.8002 232.601Z" fill="#3AAB9F" stroke="#263238" stroke-width="1.15982" stroke-miterlimit="10"/>
<path d="M49.8002 232.601L54.7591 228.881" stroke="#263238" stroke-width="0.579912" stroke-miterlimit="10"/>
<path d="M47.3875 205.356L50.8543 200.976" stroke="#263238" stroke-width="2.31965" stroke-miterlimit="10"/>
<path d="M49.8002 202.292C49.742 201.682 49.8193 201.066 50.0269 200.487C50.2345 199.907 50.5676 199.378 51.0039 198.933C51.908 197.966 56.9391 195.289 57.6325 197.036C58.3868 198.933 53.4112 203.314 49.8002 202.292Z" fill="#3AAB9F" stroke="#263238" stroke-width="1.15982" stroke-miterlimit="10"/>
<path d="M49.8002 202.292L54.7591 198.568" stroke="#263238" stroke-width="0.579912" stroke-miterlimit="10"/>
<path d="M47.3875 190.393L50.8543 186.018" stroke="#263238" stroke-width="2.31965" stroke-miterlimit="10"/>
<path d="M49.8002 187.329C49.742 186.718 49.8193 186.103 50.0269 185.523C50.2345 184.944 50.5676 184.414 51.0039 183.97C51.908 183.008 56.9391 180.331 57.6325 182.072C58.3868 183.964 53.4112 188.35 49.8002 187.329Z" fill="#3AAB9F" stroke="#263238" stroke-width="1.15982" stroke-miterlimit="10"/>
<path d="M49.8002 187.329L54.7591 183.61" stroke="#263238" stroke-width="0.579912" stroke-miterlimit="10"/>
<path d="M47.3875 170.619L50.8543 166.244" stroke="#263238" stroke-width="2.31965" stroke-miterlimit="10"/>
<path d="M49.8002 167.555C49.742 166.944 49.8193 166.329 50.0269 165.749C50.2345 165.17 50.5676 164.64 51.0039 164.196C51.908 163.234 56.9391 160.557 57.6325 162.299C58.3868 164.196 53.4112 168.576 49.8002 167.555Z" fill="#3AAB9F" stroke="#263238" stroke-width="1.15982" stroke-miterlimit="10"/>
<path d="M49.8002 167.555L54.7591 163.836" stroke="#263238" stroke-width="0.579912" stroke-miterlimit="10"/>
<path d="M47.3875 155.075L50.8543 150.694" stroke="#263238" stroke-width="2.31965" stroke-miterlimit="10"/>
<path d="M49.8002 152.011C49.742 151.401 49.8193 150.785 50.0269 150.205C50.2345 149.626 50.5676 149.096 51.0039 148.652C51.908 147.685 56.9391 145.008 57.6325 146.755C58.3868 148.652 53.4112 153.032 49.8002 152.011Z" fill="#3AAB9F" stroke="#263238" stroke-width="1.15982" stroke-miterlimit="10"/>
<path d="M49.8002 152.011L54.7591 148.292" stroke="#263238" stroke-width="0.579912" stroke-miterlimit="10"/>
<path d="M47.1821 145.115C47.1239 144.505 47.2012 143.889 47.4088 143.31C47.6164 142.73 47.9495 142.201 48.3858 141.756C49.29 140.789 54.321 138.117 55.0144 139.859C55.7688 141.756 50.7932 146.137 47.1821 145.115Z" fill="#3AAB9F" stroke="#263238" stroke-width="1.15982" stroke-miterlimit="10"/>
<path d="M47.1821 145.115L52.1411 141.396" stroke="#263238" stroke-width="0.579912" stroke-miterlimit="10"/>
<path d="M47.4207 145.32C46.7868 145.313 46.1618 145.175 45.5877 144.914C45.0136 144.654 44.5038 144.277 44.0926 143.809C43.194 142.831 40.9752 137.704 42.8389 137.22C44.8747 136.693 48.8518 141.944 47.4207 145.32Z" fill="#3AAB9F" stroke="#263238" stroke-width="1.15982" stroke-miterlimit="10"/>
<path d="M47.4206 145.32L44.1257 140.154" stroke="#263238" stroke-width="0.579912" stroke-miterlimit="10"/>
<path d="M243.296 246.984L240.09 211.172H164.18L159.987 246.984H243.296Z" fill="#263238" stroke="#263238" stroke-width="1.15982" stroke-miterlimit="10"/>
<path d="M196.802 102.628C196.802 102.628 174.614 108.54 164.907 115.656C155.2 122.772 148.488 130.05 150.052 143.836C151.616 157.623 161.778 195.343 161.778 195.343C161.778 195.343 160.369 210.645 160.369 211.553C160.369 212.462 160.214 215.036 163.653 215.187C167.092 215.337 208.367 217.009 217.592 217.159C226.816 217.31 239.014 216.401 240.417 215.343C241.112 214.783 241.679 214.09 242.083 213.308C242.487 212.525 242.719 211.669 242.764 210.795C242.919 208.979 244.483 186.706 244.483 186.706L244.638 176.709C244.638 176.709 254.806 143.987 255.427 133.382C256.049 122.778 251.988 119.295 247.456 115.963C242.924 112.63 228.813 106.987 221.192 104.751C213.57 102.515 196.802 102.628 196.802 102.628Z" fill="#3AAB9F" stroke="#263238" stroke-width="1.15982" stroke-miterlimit="10"/>
<path d="M202.277 153.473C201.167 168.227 199.137 195.397 199.315 200.078C199.564 206.528 196.852 208.436 196.852 210.828" stroke="#263238" stroke-width="1.15982" stroke-miterlimit="10"/>
<path d="M203.014 143.955C203.014 143.955 202.815 146.465 202.51 150.437" stroke="#263238" stroke-width="1.15982" stroke-miterlimit="10"/>
<path d="M212.921 162.906L214.341 179.138L222.29 178.59L212.921 162.906Z" fill="#263238" stroke="#263238" stroke-width="1.15982" stroke-miterlimit="10"/>
<path d="M205.389 191.21C205.389 191.21 224.803 188.254 226.262 188.565C227.721 188.877 237.661 193.542 239.108 193.854C240.05 194.07 240.965 194.384 241.837 194.789L244.017 196.558L243.274 191.21C243.274 191.21 240.384 187.786 233.961 185.297C227.537 182.809 224.326 184.222 222.867 184.679C221.408 185.136 205.389 191.21 205.389 191.21Z" fill="#263238" stroke="#263238" stroke-width="1.15982" stroke-miterlimit="10"/>
<path d="M175.535 177.015L226.012 176.859C226.012 176.859 242.275 175.349 242.897 175.193C243.518 175.037 249.936 176.709 250.563 177.165C251.189 177.622 251.184 178.982 250.873 180.347L250.563 181.707C250.791 182.859 250.947 184.024 251.029 185.195C251.029 186.27 249.78 186.555 249.62 187.012C249.459 187.469 250.563 189.13 249.309 190.194L248.061 191.269C248.061 191.269 247.9 194.15 247.279 194.908C246.658 195.665 244.777 197.025 243.995 196.574C243.213 196.122 243.524 194.908 243.524 194.15C243.524 193.392 243.213 192.634 242.275 192.634C241.338 192.634 241.166 193.392 236.335 192.177C231.503 190.962 226.173 186.878 225.701 186.722C225.23 186.566 182.862 197.633 170.354 199.148C157.846 200.664 156.753 198.998 156.281 196.998C155.81 194.999 155.033 190.334 155.033 190.334L152.814 181.094L175.535 177.015Z" fill="white" stroke="#263238" stroke-width="1.15982" stroke-miterlimit="10"/>
<path d="M208.356 120.386C208.356 120.386 210.969 117.699 212.616 118.919C214.264 120.139 215.772 126.503 217.83 125.97C219.888 125.438 224.01 113.071 224.01 108.148C224.01 103.224 220.437 100.3 219.616 100.032C218.795 99.763 197.789 99.4943 195.315 100.435C192.841 101.375 191.887 109.744 190.928 114.796C189.968 119.849 192.159 121.047 193.535 120.386C194.91 119.725 200.258 117.591 201.495 117.591C202.732 117.591 208.356 120.386 208.356 120.386Z" fill="#3AAB9F" stroke="#263238" stroke-width="1.15982" stroke-miterlimit="10"/>
<path d="M222.417 92.3457C222.417 92.3457 220.448 101.773 219.683 104.1C218.917 106.428 213.343 113.528 211.917 115.011C210.492 116.495 206.342 123.799 205.261 124.014C204.179 124.229 201.117 114.269 201.117 114.269C201.117 114.269 197.179 107.701 196.413 106.008C195.648 104.315 194.461 99.3383 194.461 99.3383C194.461 99.3383 200.906 104.713 207.774 103.574C214.641 102.434 218.152 95.7372 218.152 95.7372L222.417 92.3457Z" fill="white" stroke="#263238" stroke-width="1.15982" stroke-miterlimit="10"/>
<path d="M195.731 73.5663C195.731 73.5663 193.806 71.5669 192.708 74.6413C191.61 77.7156 193.817 83.1495 193.817 83.1495L195.731 73.5663Z" fill="white" stroke="#263238" stroke-width="1.15982" stroke-miterlimit="10"/>
<path d="M196.075 67.3316C196.075 67.3316 192.908 89.1479 192.908 90.4432C192.908 91.7385 192.031 95.947 193.346 98.7042C194.661 101.462 198.588 104.842 201.761 105.267C204.934 105.691 211.157 105.057 214.657 102.407C218.157 99.7577 222.196 94.0443 222.196 94.0443C222.196 94.0443 226.572 93.4047 229.407 92.2437C232.241 91.0828 234.432 88.4276 234.327 85.6757C234.201 83.9138 233.556 82.2238 232.468 80.8062L230.804 77.8393L235.175 69.8954C235.175 69.8954 232.663 65.3429 224.575 61.0001C216.488 56.6573 209.271 55.2813 205.888 55.2813C202.504 55.2813 198.233 56.6573 197.012 59.307C195.792 61.9568 196.075 67.3316 196.075 67.3316Z" fill="white" stroke="#263238" stroke-width="1.15982" stroke-miterlimit="10"/>
<path d="M206.459 56.6572C206.459 56.6572 212.688 66.6113 217.392 66.1921C222.096 65.7729 223.494 63.6498 223.494 63.6498L226.661 67.7777C226.661 67.7777 223.277 69.1536 223.932 70.852C224.586 72.5505 227.537 76.3558 227.537 76.3558L225.13 86.3099C225.13 86.3099 226.988 86.627 227.321 85.9928C227.654 85.3586 229.285 81.4404 229.285 81.4404C229.725 81.1664 230.203 80.953 230.705 80.8061C231.282 80.6859 231.88 80.6859 232.457 80.8061C232.457 80.8061 233.656 76.8879 234.121 76.7804C234.587 76.6729 238.931 75.5066 240.573 71.3788C242.214 67.2509 239.696 60.6829 234.011 55.4963C228.325 50.3096 216.305 48.9283 215.65 47.9716C214.996 47.0148 218.712 48.3908 217.947 46.2731C217.181 44.1554 212.372 41.4036 206.254 44.3704C200.135 47.3373 201.006 50.6159 201.661 51.6748L202.315 52.7497C202.315 52.7497 197.179 51.0567 193.573 53.1743C189.968 55.292 188.221 59.5274 189.857 59.952C191.493 60.3766 193.573 59.4145 193.573 59.4145C193.573 59.4145 191.388 62.9081 192.042 63.6498C192.697 64.3915 196.086 67.353 196.086 67.353C196.086 67.353 197.401 59.9412 200.13 58.8824C202.859 57.8235 206.459 56.6572 206.459 56.6572Z" fill="#263238" stroke="#263238" stroke-width="1.15982" stroke-miterlimit="10"/>
<path d="M204.49 70.9542L205.477 74.0285L199.902 84.1923L205.804 86.4174" stroke="#263238" stroke-width="1.15982" stroke-miterlimit="10"/>
<path d="M203.397 69.7878C203.397 69.7878 200.779 67.7776 198.588 68.3097C196.397 68.8419 197.717 69.1536 199.248 69.6857C200.779 70.2178 203.835 71.5884 203.397 69.7878Z" fill="#263238" stroke="#263238" stroke-width="1.15982" stroke-miterlimit="10"/>
<path d="M211.49 69.3686C211.49 69.3686 208.972 70.0028 210.175 70.5296C211.379 71.0563 214.985 69.9921 216.405 70.5296C217.825 71.0671 219.683 72.8622 219.577 72.013C219.416 71.2827 219.061 70.6057 218.547 70.0487C218.034 69.4917 217.379 69.0739 216.649 68.8365C214.657 68.2023 211.49 69.3686 211.49 69.3686Z" fill="#263238" stroke="#263238" stroke-width="1.15982" stroke-miterlimit="10"/>
<path d="M201.955 74.4908C201.761 75.2594 201.228 75.7915 200.757 75.6786C200.285 75.5657 200.063 74.8616 200.252 74.0931C200.441 73.3245 200.984 72.7924 201.45 72.8998C201.916 73.0073 202.144 73.7222 201.955 74.4908Z" fill="#263238"/>
<path d="M213.875 77.5114C213.681 78.2746 213.143 78.8067 212.677 78.6992C212.211 78.5917 211.984 77.8769 212.172 77.0868C212.361 76.2967 212.899 75.7861 213.37 75.899C213.842 76.0118 214.058 76.7428 213.875 77.5114Z" fill="#263238"/>
<path d="M196.513 87.6859L200.995 90.5453" stroke="#263238" stroke-width="1.15982" stroke-miterlimit="10"/>
<path d="M242.608 113.383C242.608 113.383 258.084 119.145 261.057 127.776C264.031 136.408 260.275 147.319 258.711 151.866C257.147 156.413 247.456 174.134 245.892 178.375C244.328 182.615 241.982 187.77 241.982 187.77C241.982 187.77 239.796 175.042 233.844 167.168C227.892 159.294 226.495 152.167 226.495 152.167C226.495 152.167 237.283 133.683 240.096 127.927" fill="#3AAB9F"/>
<path d="M242.608 113.383C242.608 113.383 258.084 119.145 261.057 127.776C264.031 136.408 260.275 147.319 258.711 151.866C257.147 156.413 247.456 174.134 245.892 178.375C244.328 182.615 241.982 187.77 241.982 187.77C241.982 187.77 239.796 175.042 233.844 167.168C227.892 159.294 226.495 152.167 226.495 152.167C226.495 152.167 237.283 133.683 240.096 127.927" stroke="#263238" stroke-width="1.15982" stroke-miterlimit="10"/>
<path d="M228.147 148.964C228.147 148.964 231.315 147.432 232.369 147.943C233.423 148.453 246.974 155.467 248.732 163.46C250.002 169.472 249.134 175.723 246.269 181.196C244.683 184.099 241.693 189.721 239.408 190.403C237.122 191.086 235.181 172.844 230.433 163.298C225.685 153.753 228.147 148.964 228.147 148.964Z" fill="#3AAB9F" stroke="#263238" stroke-width="1.15982" stroke-miterlimit="10"/>
<path d="M233.384 140.198C233.384 140.198 236.196 130.958 237.294 127.325" stroke="#263238" stroke-width="1.15982" stroke-miterlimit="10"/>
<path d="M205.15 107.385C205.15 107.385 200.779 101.472 197.384 97.5379C193.989 93.6035 190.495 91.287 189.297 91.6256C188.099 91.9642 187.633 93.1091 188.42 94.485C189.208 95.861 192.791 98.9353 193.446 99.7846C194.1 100.634 195.11 103.703 195.11 103.703C195.11 103.703 191.943 103.912 191.394 104.547C190.883 105.283 190.445 106.064 190.084 106.879C189.425 107.203 188.854 107.675 188.42 108.255C188.094 108.698 187.871 109.204 187.766 109.739C187.655 110.163 186.102 110.905 186.235 112.808C186.368 114.71 188.204 117.468 188.859 118.72C189.513 119.972 194.322 125.6 195.199 126.556C196.075 127.513 201.101 135.978 202.41 138.838C203.719 141.697 216.399 174.849 220.116 179.826C223.832 184.803 230.716 189.565 234.432 191.263C238.149 192.962 240.772 190.097 242.52 186.496C244.267 182.895 245.798 175.693 242.414 167.432C239.031 159.171 232.358 152.076 227.221 147.841C222.085 143.605 212.466 133.017 211.374 131.109C210.281 129.201 208.883 124.965 208.883 124.965C208.883 124.965 211.723 116.903 211.939 115.011C212.156 113.119 211.069 109.717 211.385 108.234C211.701 106.75 213.021 103.783 213.57 102.515C214.119 101.246 215.972 99.1235 214.99 98.1721C214.008 97.2208 209.965 98.3817 208.545 100.607C207.278 102.8 206.145 105.063 205.15 107.385Z" fill="white" stroke="#263238" stroke-width="1.15982" stroke-miterlimit="10"/>
<path d="M171.369 130.319C171.696 128.636 171.924 127.475 171.924 127.475L171.369 130.319Z" fill="#3AAB9F"/>
<path d="M171.369 130.319C171.696 128.636 171.924 127.475 171.924 127.475" stroke="#263238" stroke-width="1.15982" stroke-miterlimit="10"/>
<path d="M170.376 112.931C170.376 112.931 162.089 114.006 153.491 122.928C144.893 131.85 148.643 153.076 149.425 157.472C150.207 161.869 151.461 175.365 151.461 175.365L173.505 168.243C173.505 168.243 169.91 144.46 169.594 142.337C169.439 141.262 170.038 137.499 170.67 134.006" fill="#3AAB9F"/>
<path d="M170.376 112.931C170.376 112.931 162.089 114.006 153.491 122.928C144.893 131.85 148.643 153.076 149.425 157.472C150.207 161.869 151.461 175.365 151.461 175.365L173.505 168.243C173.505 168.243 169.91 144.46 169.594 142.337C169.439 141.262 170.038 137.499 170.67 134.006" stroke="#263238" stroke-width="1.15982" stroke-miterlimit="10"/>
<path d="M149.27 170.651C149.27 170.651 151.461 182.014 152.554 182.615C153.647 183.217 170.687 178.681 172.567 178.375C174.448 178.068 175.535 178.525 175.535 177.015C175.535 175.505 173.971 168.378 173.033 167.168C172.096 165.959 151.772 168.528 150.052 168.985C148.333 169.442 149.27 170.651 149.27 170.651Z" fill="#3AAB9F" stroke="#263238" stroke-width="1.15982" stroke-miterlimit="10"/>
<path d="M161.734 161.869C165.617 163.375 169.385 165.146 173.011 167.168C173.011 167.168 167.697 157.494 165.506 155.5" stroke="#263238" stroke-width="1.15982" stroke-miterlimit="10"/>
<path d="M158.805 160.805C159.432 161.014 160.053 161.235 160.664 161.455" stroke="#263238" stroke-width="1.15982" stroke-miterlimit="10"/>
<path d="M210.081 210.398C214.125 209 217.847 207.463 220.066 205.947" stroke="#263238" stroke-width="1.15982" stroke-miterlimit="10"/>
<path d="M191.016 215.794C191.016 215.794 199.653 213.811 207.851 211.145" stroke="#263238" stroke-width="1.15982" stroke-miterlimit="10"/>
<path d="M227.343 205.319C223.094 207.372 216.366 210.371 210.869 211.704" stroke="#263238" stroke-width="1.15982" stroke-miterlimit="10"/>
<path d="M231.509 203.222C231.509 203.222 230.638 203.69 229.19 204.41" stroke="#263238" stroke-width="1.15982" stroke-miterlimit="10"/>
<path d="M75.3151 11.9715C38.1118 29.3374 31.0561 80.3227 54.6527 110.97C59.584 117.377 66.0295 122.794 73.6676 125.917C99.7382 136.629 120.634 115.329 133.342 95.7537C153.632 64.5101 156.167 56.7865 155.807 62.0484C155.446 67.3103 164.865 72.9324 170.301 45.2199C177.251 9.74633 126.02 1.68414 100.088 5.03801C91.5049 6.07086 83.1443 8.41085 75.3151 11.9715Z" fill="#263238" stroke="#263238" stroke-width="1.15982" stroke-miterlimit="10"/>
<path d="M167.154 76.4603C169.336 72.6431 169.188 68.5203 166.825 67.2518C164.461 65.9833 160.776 68.0495 158.594 71.8667C156.412 75.6839 156.56 79.8066 158.923 81.0751C161.287 82.3436 164.972 80.2775 167.154 76.4603Z" fill="#263238" stroke="#263238" stroke-width="1.15982" stroke-miterlimit="10"/>
<path d="M171.039 77.2429C169.752 79.4949 169.84 81.9351 171.233 82.6822C172.625 83.4293 174.811 82.2092 176.097 79.9572C177.384 77.7051 177.301 75.265 175.903 74.5179C174.505 73.7708 172.32 74.9855 171.039 77.2429Z" fill="#263238" stroke="#263238" stroke-width="1.15982" stroke-miterlimit="10"/>
<path d="M77.4672 8.67129C40.2529 26.0157 33.1972 77.001 56.7938 107.648C61.725 114.055 68.1761 119.473 75.8087 122.595C101.879 133.307 122.775 112.007 135.483 92.432C155.773 61.1884 158.314 53.4648 157.948 58.7267C157.582 63.9886 167.006 69.6106 172.442 41.8767C179.392 6.40313 128.161 -1.65906 102.229 1.69481C93.6473 2.74238 85.2905 5.09689 77.4672 8.67129Z" fill="white" stroke="#263238" stroke-width="1.15982" stroke-miterlimit="10"/>
<path d="M160.738 68.5465C158.552 72.3626 158.702 76.4851 161.065 77.7535C163.428 79.022 167.111 76.9527 169.297 73.1366C171.482 69.3205 171.327 65.198 168.964 63.9295C166.601 62.6611 162.918 64.7304 160.738 68.5465Z" fill="white" stroke="#263238" stroke-width="1.15982" stroke-miterlimit="10"/>
<path d="M173.185 73.9212C171.893 76.1786 171.982 78.6134 173.379 79.3605C174.777 80.1076 176.952 78.8929 178.238 76.6355C179.525 74.3781 179.442 71.9433 178.044 71.1962C176.646 70.4491 174.472 71.6638 173.185 73.9212Z" fill="white" stroke="#263238" stroke-width="1.15982" stroke-miterlimit="10"/>
<path d="M57.8147 47.0741V39.974H62.2522C62.4642 38.7993 62.7816 37.6447 63.2008 36.5234L59.3457 34.3735L63.0455 28.2194L66.9283 30.3693C67.7208 29.4562 68.5931 28.6111 69.5354 27.8431L67.3166 24.0808L73.6623 20.528L75.8811 24.2904C77.0383 23.8842 78.2298 23.5767 79.4422 23.3713V19.0715H86.7697V23.3982C87.9825 23.5992 89.1743 23.905 90.3308 24.3119L92.5496 20.5764L98.8953 24.1291L96.6765 27.8915C97.6171 28.6595 98.4874 29.5047 99.278 30.4177L103.161 28.2677L106.822 34.4165L102.939 36.5664C103.359 37.6871 103.675 38.8419 103.882 40.017H108.32V47.1171H103.882C103.669 48.2935 103.352 49.4498 102.933 50.5731L106.789 52.723L103.128 58.8718L99.2448 56.7219C98.4536 57.6345 97.5812 58.478 96.6377 59.2427L98.8565 63.005L92.5108 66.5524L90.292 62.79C89.1334 63.1962 87.9398 63.502 86.7253 63.7037V68.0036H79.3978V63.7037C78.1855 63.4983 76.9939 63.1908 75.8367 62.7846L73.6179 66.547L67.2611 62.9566L69.4799 59.1943C68.5376 58.4264 67.6654 57.5812 66.8728 56.6681L62.99 58.8181L59.3235 52.6693L63.2063 50.5194C62.7878 49.396 62.4705 48.2397 62.2578 47.0634L57.8147 47.0741ZM83.0699 56.7488C85.7712 56.7488 88.4117 55.9725 90.6576 54.5183C92.9036 53.064 94.654 50.997 95.6874 48.5787C96.7209 46.1604 96.991 43.4995 96.4636 40.9325C95.9363 38.3654 94.635 36.0076 92.7246 34.1572C90.8141 32.3067 88.3802 31.0469 85.7308 30.5369C83.0813 30.0269 80.3352 30.2897 77.8399 31.2921C75.3446 32.2945 73.2121 33.9914 71.7122 36.1682C70.2123 38.345 69.4122 40.904 69.4133 43.5214C69.4119 45.2598 69.7641 46.9814 70.4498 48.5878C71.1355 50.1942 72.1413 51.6539 73.4097 52.8834C74.678 54.1129 76.184 55.0881 77.8416 55.7531C79.4992 56.4182 81.2758 56.7602 83.0699 56.7595V56.7488Z" fill="#CCCCCC"/>
<path d="M68.2096 88.7987V83.0315H71.8373C72.0104 82.0748 72.2684 81.1343 72.6083 80.2205L69.4743 78.4683L72.453 73.4698L75.5981 75.2273C76.2406 74.4838 76.9497 73.7967 77.717 73.1742L75.9032 70.132L81.0618 67.2458L82.8702 70.2879C83.8107 69.9567 84.7797 69.7067 85.7657 69.5408V66.0257H91.7231V69.5408C92.7088 69.7079 93.6776 69.9579 94.6186 70.2879L96.4324 67.2511L101.591 70.1374L99.7772 73.1688C100.543 73.7928 101.252 74.4797 101.896 75.222L105.036 73.4644L108.014 78.463L104.875 80.2205C105.215 81.1325 105.473 82.0712 105.646 83.0261H109.274V88.8094H105.646C105.473 89.7646 105.215 90.7033 104.875 91.6151L108.009 93.3672L105.03 98.3712L101.874 96.6082C101.23 97.3505 100.521 98.0374 99.755 98.6614L101.563 101.704L96.4047 104.59L94.5964 101.553C93.6552 101.882 92.6864 102.132 91.7009 102.3V105.81H85.7878V102.295C84.801 102.133 83.8317 101.883 82.8923 101.548L81.0785 104.59L75.9198 101.704L77.7337 98.656C76.9694 98.032 76.2623 97.345 75.6203 96.6029L72.4752 98.3604L69.4965 93.3619L72.6361 91.6097C72.2961 90.6959 72.0382 89.7554 71.865 88.7987H68.2096ZM88.7333 96.6727C90.9274 96.6727 93.0723 96.0423 94.8967 94.8611C96.7211 93.6799 98.143 92.0011 98.9827 90.0368C99.8223 88.0726 100.042 85.9112 99.614 83.826C99.1859 81.7408 98.1293 79.8254 96.5778 78.3221C95.0263 76.8187 93.0496 75.7949 90.8976 75.3801C88.7456 74.9654 86.515 75.1782 84.4878 75.9918C82.4607 76.8055 80.7281 78.1833 79.509 79.951C78.29 81.7188 77.6394 83.7971 77.6394 85.9232C77.6394 87.3357 77.9267 88.7344 78.4849 90.0393C79.0431 91.3442 79.8613 92.5297 80.8926 93.5281C81.924 94.5264 83.1483 95.318 84.4955 95.8576C85.8428 96.3972 87.2866 96.6742 88.7444 96.6727H88.7333Z" fill="#CCCCCC"/>
<path d="M106.062 75.6089V71.2124H108.835C108.964 70.4801 109.161 69.7606 109.423 69.0624L107.032 67.7241L109.301 63.9188L111.697 65.2571C112.187 64.6911 112.727 64.1677 113.312 63.693L111.93 61.3765L115.858 59.1782L117.239 61.4947C117.959 61.2409 118.702 61.0502 119.458 60.925V58.2376H123.995V60.925C124.75 61.0518 125.493 61.2424 126.214 61.4947L127.595 59.1836L131.522 61.3819L130.141 63.6984C130.725 64.1731 131.265 64.6964 131.755 65.2625L134.146 63.9241L136.415 67.7295L134.029 69.0678C134.278 69.7677 134.463 70.487 134.584 71.2177H137.358V75.6143H134.584C134.455 76.3466 134.258 77.0661 133.996 77.7642L136.376 79.081L134.107 82.8918L131.711 81.5535C131.221 82.1178 130.681 82.6393 130.097 83.1121L131.478 85.4341L127.551 87.6323L126.169 85.3158C125.448 85.5673 124.706 85.7579 123.951 85.8855V88.5729H119.413V85.8855C118.659 85.7693 117.916 85.5895 117.194 85.3481L115.813 87.6592L111.886 85.4609L113.267 83.1444C112.684 82.6683 112.144 82.1451 111.653 81.5803L109.262 82.9186L107.021 79.081L109.407 77.7481C109.149 77.049 108.954 76.3297 108.824 75.5982L106.062 75.6089ZM121.699 81.6018C123.371 81.6018 125.005 81.1214 126.395 80.2214C127.785 79.3213 128.869 78.042 129.509 76.5453C130.148 75.0485 130.316 73.4016 129.99 71.8126C129.663 70.2237 128.858 68.7642 127.676 67.6186C126.494 66.473 124.988 65.6929 123.348 65.3769C121.708 65.0608 120.008 65.223 118.464 65.843C116.919 66.4629 115.599 67.5128 114.67 68.8599C113.741 70.2069 113.245 71.7906 113.245 73.4106C113.245 75.5831 114.136 77.6665 115.721 79.2027C117.306 80.7388 119.457 81.6018 121.699 81.6018Z" fill="#CCCCCC"/>
<path d="M122.22 34.9379V30.5413H124.993C125.125 29.8096 125.322 29.0903 125.581 28.3914L123.196 27.0585L125.465 23.2477L127.856 24.5861C128.348 24.0226 128.888 23.4995 129.47 23.022L128.089 20.7055L132.021 18.5072L133.397 20.8237C134.118 20.5698 134.86 20.3792 135.616 20.254V17.5666H140.148V20.254C140.903 20.3816 141.645 20.5723 142.366 20.8237L143.742 18.5126L147.675 20.7108L146.249 23.0381C146.83 23.5143 147.369 24.0375 147.858 24.6022L150.254 23.2639L152.523 27.0746L150.132 28.4075C150.392 29.1064 150.588 29.8258 150.72 30.5575H153.494V34.954H150.72C150.59 35.6856 150.395 36.4049 150.138 37.104L152.523 38.4369L150.254 42.2476L147.863 40.9093C147.372 41.4723 146.832 41.9938 146.249 42.468L147.63 44.7899L143.698 46.9882L142.322 44.6717C141.615 44.9134 140.887 45.0968 140.148 45.2199V47.9073H135.61V45.2199C134.856 45.1027 134.114 44.9229 133.392 44.6824L132.016 46.9936L128.083 44.7953L129.464 42.4787C128.883 42.0013 128.343 41.4781 127.85 40.9147L125.459 42.253L123.191 38.4423L125.581 37.1093C125.319 36.4112 125.123 35.6917 124.993 34.9594L122.22 34.9379ZM137.857 40.9201C139.53 40.9211 141.166 40.4413 142.558 39.5413C143.95 38.6413 145.035 37.3615 145.676 35.8639C146.317 34.3663 146.485 32.7181 146.16 31.1277C145.834 29.5374 145.029 28.0764 143.846 26.9296C142.663 25.7827 141.156 25.0015 139.515 24.6848C137.874 24.3681 136.172 24.5301 134.626 25.1504C133.08 25.7706 131.759 26.8211 130.829 28.1692C129.9 29.5172 129.403 31.1021 129.403 32.7235C129.403 34.8964 130.294 36.9804 131.879 38.5174C133.464 40.0544 135.614 40.9186 137.857 40.9201Z" fill="#CCCCCC"/>
</svg>
