<svg width="8" height="14" viewBox="0 0 8 14" fill="none" xmlns="http://www.w3.org/2000/svg">
<path d="M1.50497 0.277045L7.40247 6.48285C7.47247 6.55673 7.52194 6.63676 7.55087 6.72296C7.58027 6.80915 7.59497 6.9015 7.59497 7C7.59497 7.09851 7.58027 7.19085 7.55087 7.27705C7.52194 7.36324 7.47247 7.44327 7.40247 7.51715L1.50497 13.7414C1.34164 13.9138 1.13747 14 0.892471 14C0.647471 14 0.437471 13.9077 0.262471 13.723C0.087471 13.5383 -2.8551e-05 13.3228 -2.85295e-05 13.0765C-2.8508e-05 12.8303 0.0874711 12.6148 0.262471 12.4301L5.40747 7L0.262472 1.56992C0.0991389 1.39754 0.017472 1.18526 0.017472 0.933088C0.017472 0.680422 0.104972 0.461742 0.279972 0.277045C0.454972 0.0923484 0.659139 3.47325e-07 0.892472 3.67723e-07C1.12581 3.88122e-07 1.32997 0.0923485 1.50497 0.277045Z" fill="white"/>
</svg>
