<svg width="29" height="29" viewBox="0 0 29 29" fill="none" xmlns="http://www.w3.org/2000/svg">
<path d="M14.4491 10.5129C12.4494 10.5129 10.8175 12.1448 10.8175 14.1445C10.8175 16.1443 12.4494 17.7762 14.4491 17.7762C16.4489 17.7762 18.0808 16.1443 18.0808 14.1445C18.0808 12.1448 16.4489 10.5129 14.4491 10.5129ZM25.3414 14.1445C25.3414 12.6407 25.355 11.1504 25.2705 9.64924C25.1861 7.90561 24.7883 6.35814 23.5133 5.08311C22.2355 3.80536 20.6908 3.41031 18.9471 3.32586C17.4433 3.2414 15.953 3.25502 14.4518 3.25502C12.948 3.25502 11.4577 3.2414 9.95655 3.32586C8.21292 3.41031 6.66545 3.80808 5.39042 5.08311C4.11267 6.36086 3.71763 7.90561 3.63317 9.64924C3.54871 11.1531 3.56233 12.6434 3.56233 14.1445C3.56233 15.6457 3.54871 17.1387 3.63317 18.6398C3.71763 20.3835 4.11539 21.9309 5.39042 23.206C6.66818 24.4837 8.21292 24.8788 9.95655 24.9632C11.4604 25.0477 12.9507 25.0341 14.4518 25.0341C15.9557 25.0341 17.446 25.0477 18.9471 24.9632C20.6908 24.8788 22.2383 24.481 23.5133 23.206C24.791 21.9282 25.1861 20.3835 25.2705 18.6398C25.3577 17.1387 25.3414 15.6484 25.3414 14.1445ZM14.4491 19.7323C11.3569 19.7323 8.86134 17.2368 8.86134 14.1445C8.86134 11.0523 11.3569 8.55675 14.4491 8.55675C17.5413 8.55675 20.0369 11.0523 20.0369 14.1445C20.0369 17.2368 17.5413 19.7323 14.4491 19.7323ZM20.2658 9.6329C19.5438 9.6329 18.9608 9.04987 18.9608 8.3279C18.9608 7.60593 19.5438 7.0229 20.2658 7.0229C20.9877 7.0229 21.5708 7.60593 21.5708 8.3279C21.571 8.49933 21.5374 8.66913 21.4719 8.82755C21.4064 8.98598 21.3102 9.12993 21.189 9.25115C21.0678 9.37237 20.9239 9.46849 20.7654 9.534C20.607 9.5995 20.4372 9.63311 20.2658 9.6329Z" fill="#26998D"/>
</svg>
