<svg width="29" height="29" viewBox="0 0 29 29" fill="none" xmlns="http://www.w3.org/2000/svg">
<path fill-rule="evenodd" clip-rule="evenodd" d="M1.46484 3.49443C1.46484 2.92778 1.68994 2.38435 2.09062 1.98367C2.4913 1.583 3.03473 1.3579 3.60137 1.3579H24.8992C25.18 1.35744 25.4582 1.41237 25.7177 1.51955C25.9773 1.62673 26.2132 1.78405 26.4118 1.98251C26.6105 2.18096 26.7681 2.41666 26.8755 2.67609C26.983 2.93553 27.0382 3.21361 27.0381 3.49443V24.7923C27.0384 25.0732 26.9833 25.3513 26.876 25.6109C26.7687 25.8704 26.6113 26.1063 26.4127 26.305C26.2142 26.5036 25.9784 26.6612 25.7189 26.7686C25.4594 26.8761 25.1813 26.9313 24.9004 26.9311H3.60137C3.3207 26.9311 3.04278 26.8758 2.78349 26.7684C2.5242 26.661 2.28862 26.5035 2.09021 26.305C1.8918 26.1064 1.73445 25.8708 1.62714 25.6114C1.51984 25.3521 1.46469 25.0741 1.46484 24.7935V3.49443ZM11.5872 11.1083H15.0501V12.8473C15.5499 11.8476 16.8286 10.9479 18.75 10.9479C22.4337 10.9479 23.3067 12.9391 23.3067 16.5926V23.3602H19.5788V17.4249C19.5788 15.3441 19.079 14.1701 17.8096 14.1701C16.0486 14.1701 15.3162 15.436 15.3162 17.4249V23.3602H11.5872V11.1083ZM5.19389 23.2009H8.92293V10.9479H5.19389V23.1998V23.2009ZM9.45648 6.95146C9.46352 7.27075 9.4067 7.58822 9.28937 7.88525C9.17205 8.18228 8.99657 8.45289 8.77325 8.68118C8.54993 8.90948 8.28325 9.09087 7.98888 9.2147C7.6945 9.33854 7.37836 9.40233 7.05899 9.40233C6.73963 9.40233 6.42348 9.33854 6.12911 9.2147C5.83473 9.09087 5.56806 8.90948 5.34473 8.68118C5.12141 8.45289 4.94594 8.18228 4.82861 7.88525C4.71128 7.58822 4.65447 7.27075 4.6615 6.95146C4.6753 6.32475 4.93395 5.72836 5.38207 5.29C5.83018 4.85165 6.43213 4.60619 7.05899 4.60619C7.68586 4.60619 8.2878 4.85165 8.73592 5.29C9.18403 5.72836 9.44268 6.32475 9.45648 6.95146Z" fill="#26998D"/>
</svg>
