<svg width="29" height="29" viewBox="0 0 29 29" fill="none" xmlns="http://www.w3.org/2000/svg">
<path d="M25.8763 10.3035V19.7679C25.8764 20.7329 25.5072 21.6613 24.8445 22.3627C24.1818 23.0641 23.2758 23.4853 22.3124 23.54L22.0985 23.5458H6.4058C5.44083 23.5459 4.51241 23.1767 3.81101 22.5139C3.1096 21.8512 2.68837 20.9452 2.63374 19.9818L2.62793 19.7679V10.3035L13.8476 16.1807C13.9724 16.2461 14.1112 16.2802 14.2521 16.2802C14.393 16.2802 14.5318 16.2461 14.6567 16.1807L25.8763 10.3035ZM6.4058 4.94707H22.0985C23.0349 4.94695 23.938 5.29463 24.6326 5.92265C25.3272 6.55067 25.7638 7.41428 25.8577 8.34598L14.2521 14.4254L2.64653 8.34598C2.73664 7.45128 3.14294 6.61807 3.79238 5.99611C4.44183 5.37415 5.29183 5.00424 6.18959 4.95288L6.4058 4.94707H22.0985H6.4058Z" fill="#26998D"/>
</svg>
