<svg width="29" height="29" viewBox="0 0 29 29" fill="none" xmlns="http://www.w3.org/2000/svg">
<path d="M21.4235 11.631H19.6799C19.6792 10.9375 19.4034 10.2727 18.9131 9.78235C18.4227 9.29201 17.7579 9.01623 17.0645 9.01554V7.27191C18.2201 7.2733 19.3281 7.733 20.1453 8.55018C20.9624 9.36737 21.4221 10.4753 21.4235 11.631Z" fill="#26998D"/>
<path d="M24.9108 11.631H23.1671C23.1653 10.013 22.5217 8.46187 21.3776 7.31779C20.2336 6.17371 18.6824 5.53016 17.0644 5.52831V3.78468C19.1447 3.78699 21.1391 4.61439 22.6101 6.08537C24.081 7.55634 24.9085 9.55075 24.9108 11.631ZM18.2266 19.0258L20.1794 17.0729C20.4408 16.8114 20.7732 16.6324 21.1354 16.558C21.4975 16.4836 21.8736 16.5172 22.2169 16.6544L24.5952 17.6064C24.9457 17.7467 25.2462 17.9888 25.4578 18.3014C25.6695 18.6141 25.7826 18.983 25.7826 19.3605V23.6856C25.7832 23.9427 25.7313 24.1972 25.6302 24.4335C25.529 24.6698 25.3807 24.883 25.1943 25.06C25.0079 25.2371 24.7873 25.3742 24.5461 25.463C24.3049 25.5518 24.048 25.5905 23.7913 25.5766C7.1205 24.5391 3.75354 10.4192 3.12845 5.0122C3.09818 4.74786 3.12421 4.4801 3.20484 4.22655C3.28546 3.97299 3.41886 3.73938 3.59624 3.54107C3.77363 3.34277 3.99099 3.18427 4.23403 3.07599C4.47707 2.96772 4.74028 2.91212 5.00634 2.91286H9.2547C9.63226 2.91285 10.0012 3.02597 10.3138 3.23762C10.6265 3.44926 10.8685 3.74974 11.0088 4.10028L11.9599 6.47859C12.0972 6.82189 12.1307 7.19792 12.0563 7.56008C11.982 7.92224 11.8029 8.25462 11.5415 8.51602L9.5886 10.4689C9.5886 10.4689 10.6714 18.0816 18.2266 19.0258Z" fill="#26998D"/>
</svg>
